<svg width="264" height="22" viewBox="0 0 264 22" fill="none" xmlns="http://www.w3.org/2000/svg">
<path d="M0 3.75H5.87676V21.75H9.30487V3.75H15.0592V0.375001H0V3.75Z" fill="white"/>
<path d="M29.3839 9.5H21.1809V0.375001H17.6304V21.75H21.1809V12.875H29.3839V21.75H32.812V0.375001H29.3839V9.5Z" fill="white"/>
<path d="M39.1784 0.375001H37.7092V21.75H39.1784H41.1373H51.4217V18.375H41.1373V12.75H49.83V9.5H41.1373V3.75H51.4217V0.375001H41.1373H39.1784Z" fill="white"/>
<path d="M69.1743 0.375001L61.3386 21.75H65.0116L66.3584 17.75H74.4389L75.7857 21.75H79.4586L71.623 0.375001H69.1743ZM67.4602 14.25L70.3986 5.75L73.337 14.25H67.4602Z" fill="white"/>
<path d="M93.5383 1.25C92.314 0.625 90.8448 0.375001 89.1308 0.375001H85.8251H84.3559H82.397V21.75H84.3559H85.8251H89.1308C90.8448 21.75 92.314 21.5 93.5383 20.875C94.7626 20.25 95.6197 19.375 96.3543 18.25C96.9664 17.125 97.3337 15.75 97.3337 14.125V8C97.3337 6.375 96.9664 5 96.3543 3.875C95.7421 2.75 94.7626 1.875 93.5383 1.25ZM93.7832 14.25C93.7832 15.625 93.4159 16.625 92.5589 17.375C91.8243 18.125 90.7224 18.5 89.2532 18.5H85.8251V3.75H89.2532C90.7224 3.75 91.8243 4.125 92.5589 4.875C93.2935 5.625 93.7832 6.625 93.7832 8V14.25Z" fill="white"/>
<path d="M107.985 15.875L103.211 0.375001H99.5376L106.516 21.75H109.455L116.311 0.375001H112.76L107.985 15.875Z" fill="white"/>
<path d="M122.677 0.375001H119.127V21.75H122.677V0.375001Z" fill="white"/>
<path d="M130.88 5.75C131.248 5.125 131.615 4.5 132.227 4.125C132.839 3.75 133.451 3.625 134.308 3.625C134.921 3.625 135.41 3.75 136.022 4C136.512 4.25 137.002 4.625 137.369 5.125C137.736 5.625 137.981 6.25 138.226 6.875H141.777C141.532 5.5 141.042 4.25 140.43 3.25C139.695 2.25 138.961 1.375 137.859 0.875C136.879 0.375 135.655 0 134.431 0C132.962 0 131.615 0.375 130.513 1C129.411 1.625 128.432 2.625 127.819 3.875C127.207 5.125 126.962 6.5 126.962 8.125V14C126.962 15.625 127.207 17 127.819 18.25C128.432 19.5 129.289 20.375 130.391 21C131.492 21.625 132.839 22 134.308 22C135.533 22 136.635 21.75 137.736 21.125C138.716 20.625 139.573 19.75 140.308 18.75C141.042 17.75 141.409 16.5 141.654 15.125H138.226C138.104 15.875 137.736 16.5 137.369 17C137.002 17.5 136.512 17.875 136.022 18.125C135.533 18.375 134.921 18.5 134.308 18.5C133.451 18.5 132.839 18.375 132.227 18C131.615 17.625 131.248 17.125 130.88 16.5C130.513 15.875 130.391 15 130.391 14.125V8.125C130.513 7.25 130.635 6.375 130.88 5.75Z" fill="white"/>
<path d="M146.797 0.375001H145.327V21.75H146.797H148.756H159.04V18.375H148.756V12.75H157.448V9.5H148.756V3.75H159.04V0.375001H148.756H146.797Z" fill="white"/>
<path d="M181.935 1.125C180.833 0.5 179.486 0.125 178.017 0.125C176.548 0.125 175.201 0.5 174.099 1.125C172.997 1.75 172.14 2.75 171.405 3.875C170.793 5.125 170.426 6.5 170.426 8V14C170.426 15.625 170.793 17 171.405 18.125C172.018 19.375 172.875 20.25 174.099 20.875C175.201 21.5 176.548 21.875 178.017 21.875C179.486 21.875 180.833 21.5 181.935 20.875C183.037 20.25 183.894 19.25 184.628 18.125C185.24 16.875 185.608 15.5 185.608 14V8C185.608 6.375 185.24 5 184.628 3.875C183.894 2.625 183.037 1.75 181.935 1.125ZM181.935 14.125C181.935 15 181.812 15.75 181.445 16.375C181.078 17 180.71 17.5 180.098 17.875C179.486 18.25 178.751 18.375 178.017 18.375C177.282 18.375 176.548 18.25 175.935 17.875C175.323 17.5 174.834 17 174.589 16.375C174.344 15.75 174.099 15 174.099 14.125V7.875C174.099 7 174.221 6.25 174.589 5.625C174.956 5 175.323 4.5 175.935 4.125C176.548 3.75 177.282 3.625 178.017 3.625C178.751 3.625 179.486 3.75 180.098 4.125C180.71 4.5 181.2 5 181.445 5.625C181.69 6.25 181.935 7 181.935 7.875V14.125Z" fill="white"/>
<path d="M191.117 0.375001H189.648V21.75H193.076V13H201.524V9.625H193.076V3.75H203.116V0.375001H193.076H191.117Z" fill="white"/>
<path d="M207.89 0.375001H206.421V21.75H209.849V13H218.297V9.625H209.849V3.75H219.889V0.375001H209.849H207.89Z" fill="white"/>
<path d="M226.622 0.375001H223.072V21.75H226.622V0.375001Z" fill="white"/>
<path d="M234.948 5.75C235.315 5.125 235.682 4.5 236.295 4.125C236.907 3.75 237.519 3.625 238.376 3.625C238.988 3.625 239.478 3.75 240.09 4C240.58 4.25 241.069 4.625 241.437 5.125C241.804 5.625 242.049 6.25 242.294 6.875H245.844C245.599 5.5 245.11 4.25 244.497 3.25C243.763 2.25 243.028 1.375 241.926 0.875C240.947 0.375 239.723 0 238.498 0C237.029 0 235.682 0.375 234.58 1C233.479 1.625 232.622 2.625 232.009 3.75C231.397 5 231.152 6.375 231.152 8V13.875C231.152 15.5 231.397 16.875 232.009 18.125C232.622 19.375 233.479 20.25 234.58 20.875C235.682 21.5 237.029 21.875 238.498 21.875C239.723 21.875 240.825 21.625 241.926 21C242.906 20.5 243.763 19.625 244.497 18.625C245.232 17.625 245.599 16.375 245.844 15H242.294C242.171 15.75 241.804 16.375 241.437 16.875C241.069 17.375 240.58 17.75 240.09 18C239.6 18.25 238.988 18.375 238.376 18.375C237.519 18.375 236.907 18.25 236.295 17.875C235.682 17.5 235.315 17 234.948 16.375C234.58 15.75 234.458 14.875 234.458 14V8.125C234.458 7.25 234.58 6.375 234.948 5.75Z" fill="white"/>
<path d="M263.107 3.75V0.375001H252.823H250.742H249.272V21.75H250.742H252.823H263.107V18.375H252.823V12.75H261.516V9.5H252.823V3.75H263.107Z" fill="white"/>
</svg>

