<svg width="119" height="71" viewBox="0 0 119 71" fill="none" xmlns="http://www.w3.org/2000/svg">
<path d="M51.4376 50.0222C71.1891 54.578 91.2065 41.6705 105.064 15.745C99.8996 16.6623 97.153 23.6275 91.2588 21.1281C91.0765 20.2739 90.5814 19.5543 90.67 19.3296C96.0379 13.288 101.338 7.08898 106.998 1.29483C108.936 -0.658984 111.98 -0.476764 113.199 2.3561C115.706 8.17923 118.437 14.0924 118.848 21.9367C115.664 20.1361 113.444 18.8532 111.964 17.998C107.295 25.2314 103.297 32.735 98.0649 39.0913C85.776 54.4547 69.7194 61.9263 49.8167 58.7414C46.6377 58.2444 44.8971 59.3668 42.7343 61.2305C33.661 69.4268 22.9566 72.5424 10.8868 69.9032C6.58731 68.9558 1.7719 67.6709 5.88723e-05 60.9718C7.31174 65.4727 14.2065 66.4221 21.4505 65.1693C28.4704 63.8263 34.9483 61.2243 39.5345 55.5192C35.8656 50.0098 31.7069 45.0844 29.268 39.4187C26.6727 33.8202 25.0364 27.4359 24.4528 21.3446C23.7336 14.9386 27.8091 10.1995 32.859 8.58531C37.909 6.9711 43.2872 9.13301 46.8883 14.485C52.6052 23.0302 54.2103 32.7858 52.8187 42.8986C52.605 45.4157 51.9431 47.7526 51.4376 50.0222ZM44.9389 47.4099C48.0971 37.0962 46.7422 28.3522 42.2344 20.0327C40.7022 17.3345 38.701 14.8381 35.1937 16.1614C32.1554 17.2827 31.7645 20.2492 32.2231 23.0365C33.333 32.0725 37.2572 39.897 44.9389 47.4099Z" fill="#60C1BF"/>
</svg>

