<svg width="64" height="60" viewBox="0 0 64 60" fill="none" xmlns="http://www.w3.org/2000/svg">
<g clip-path="url(#clip0_275_732)">
<path d="M3.81619e-05 33.5155C0.0781822 33.5155 0.195398 33.4374 0.273542 33.4765C0.820551 33.828 1.32849 34.1796 1.83642 34.5702C1.95364 34.6874 1.95364 34.9218 1.99271 35.1171C2.03178 35.3905 1.99271 35.664 1.99271 35.9765C2.26622 35.9765 2.50065 35.9765 2.69601 35.9765C5.7827 35.9765 8.86939 35.9765 11.9561 35.9765C23.834 35.9765 35.751 35.9765 47.6289 35.9765C49.5434 35.9765 50.95 37.0702 51.2626 38.828C51.6533 40.8984 50.1295 42.8515 48.0586 42.9687C47.7851 42.9687 47.5116 42.9687 47.2381 42.9687C32.4298 42.9687 17.6606 42.9687 2.8523 42.9687C2.57879 42.9687 2.30529 42.9687 1.99271 42.9687C1.99271 43.6327 1.99271 44.2577 1.99271 44.9609C2.149 44.9609 2.26622 44.9999 2.4225 44.9999C17.6606 44.9999 32.9378 44.9999 48.1759 44.9999C51.0281 44.9999 53.3334 43.0468 53.7241 40.3515C54.232 36.9921 51.7314 34.0624 48.3321 34.0234C44.2296 33.9843 40.127 34.0234 36.0245 34.0234C32.8596 34.0234 29.6948 34.0234 26.4909 33.9452C27.2333 33.7499 27.9756 33.5546 28.718 33.3202C29.3822 33.1249 30.0855 33.0077 30.7497 32.7343C32.2735 32.1093 33.8755 31.9921 35.5165 32.0312C39.6972 32.0702 43.8389 32.0312 48.0196 32.0312C52.2003 32.0312 55.326 34.7655 55.7168 38.9062C55.9512 41.0155 55.2479 42.8905 53.8413 44.4921C53.7632 44.5702 53.685 44.6484 53.6459 44.7265C53.6069 44.8046 53.5287 44.8437 53.4115 44.9999C53.7632 44.9999 54.0367 44.9999 54.2711 44.9999C55.4042 44.9999 56.5373 44.9999 57.6313 44.9999C58.8425 44.9999 59.663 45.7421 59.7412 46.953C59.7803 47.6562 59.7803 48.3593 59.7412 49.0624C59.663 50.2343 58.8425 50.9765 57.7094 51.0155C57.2406 51.0155 56.8108 51.0155 56.3028 51.0155C56.3028 52.0312 56.3028 52.9687 56.3028 54.0234C56.7326 54.0234 57.2015 54.0234 57.6313 54.0234C58.8425 54.0234 59.663 54.8046 59.7412 56.0546C59.7803 56.6405 59.7412 57.2265 59.7412 57.8124C59.7412 59.2577 58.9207 60.039 57.475 60.039C52.0049 60.039 46.4958 60.039 41.0257 60.039C31.1795 60.039 21.3724 60.039 11.5263 60.039C7.61909 60.039 4.57147 57.4609 3.94631 53.5937C3.59467 51.3671 4.21982 49.3359 5.70456 47.6171C5.86084 47.4609 5.97806 47.3046 6.21249 47.0312C4.88404 47.0312 3.63374 46.9921 2.4225 47.0312C1.21127 47.1093 0.312615 46.6405 -0.15625 45.5077C-0.15625 44.4921 -0.15625 43.5155 -0.15625 42.4999C0.468903 40.8202 1.91457 40.9374 3.32116 40.9765C3.32116 39.9218 3.32116 38.9843 3.32116 38.0468C2.73508 38.0077 2.07086 38.0077 1.40663 37.8905C0.664263 37.7734 0.312614 37.1093 3.81619e-05 36.5234C3.81619e-05 35.5077 3.81619e-05 34.4921 3.81619e-05 33.5155ZM57.8267 46.9921C57.5532 46.9921 57.3187 46.9921 57.0843 46.9921C51.8486 46.9921 46.5739 46.9921 41.3383 46.9921C31.4921 46.9921 21.6459 46.9921 11.7607 46.9921C10.276 46.9921 8.98661 47.3827 7.85352 48.3593C6.13435 49.8437 5.5092 52.2655 6.29064 54.3749C7.11115 56.5624 9.10382 57.9687 11.5654 57.9687C26.8035 57.9687 42.0415 57.9687 57.2406 57.9687C57.4359 57.9687 57.5922 57.9296 57.7876 57.9296C57.7876 57.2655 57.7876 56.6405 57.7876 55.9765C57.475 55.9765 57.2406 55.9765 56.9671 55.9765C42.1588 55.9765 27.3505 55.9765 12.5422 55.9765C12.3077 55.9765 12.0342 55.9765 11.7998 55.9765C9.57269 55.8593 8.00981 53.7109 8.59589 51.5624C9.02568 49.9609 10.3932 48.9843 12.2296 48.9843C27.1551 48.9843 42.1197 48.9843 57.0452 48.9843C57.3187 48.9843 57.5532 48.9843 57.8267 48.9843C57.8267 48.3202 57.8267 47.6952 57.8267 46.9921ZM54.3492 51.0155C54.0757 51.0155 53.8413 51.0155 53.6069 51.0155C39.9317 51.0155 26.2564 51.0155 12.5422 51.0155C12.3077 51.0155 12.0733 51.0155 11.8389 51.0155C11.0184 51.0937 10.4323 51.7577 10.5104 52.6171C10.5495 53.5155 11.2137 54.0234 12.3077 54.0234C26.1002 54.0234 39.9317 54.0234 53.7241 54.0234C53.9194 54.0234 54.1148 53.9843 54.3492 53.9843C54.3492 52.9687 54.3492 52.0312 54.3492 51.0155ZM5.54827 38.0077C5.54827 39.0234 5.54827 39.9999 5.54827 41.0155C5.7827 41.0155 6.01713 41.0155 6.21249 41.0155C19.9268 41.0155 33.6801 41.0155 47.3944 41.0155C47.5507 41.0155 47.6679 41.0155 47.8242 41.0155C48.7229 40.9765 49.348 40.3515 49.348 39.5312C49.348 38.7109 48.7229 38.0859 47.8242 38.0077C47.6679 38.0077 47.4726 38.0077 47.3163 38.0077C33.6411 38.0077 19.9268 38.0077 6.25156 38.0077C6.0562 38.0077 5.82177 38.0077 5.54827 38.0077Z" fill="#3D3D3D"/>
<path d="M0 36.4844C0.312576 37.1094 0.664225 37.7344 1.40659 37.8906C2.07082 38.0078 2.77411 38.0078 3.47741 38.0469C3.47741 38.9844 3.47741 39.9219 3.47741 40.9766C2.10989 40.9375 0.625153 40.8203 0 42.5C0 40.5078 0 38.5156 0 36.4844Z" fill="white"/>
<path d="M4.10272 22.5782C4.29808 23.711 4.45436 24.7657 4.64972 25.7813C4.6888 25.9766 4.9623 26.1719 5.19673 26.25C7.42384 26.9922 8.36157 29.5704 7.07219 31.5235C6.29075 32.6953 4.88416 33.2813 3.47756 33.0079C2.14911 32.7344 1.0551 31.6407 0.781592 30.3516C0.469015 28.9454 1.01602 27.5 2.22726 26.7579C2.65705 26.4844 2.73519 26.211 2.65705 25.7422C2.53983 25.1954 2.46169 24.6875 2.38355 24.1407C2.3054 23.6329 2.18819 23.125 2.11004 22.5391C1.83654 22.5 1.6021 22.5 1.3286 22.461C0.820664 22.4219 0.390871 22.2266 0.273655 21.6797C0.156439 21.1329 0.429943 20.7813 0.898808 20.5079C3.51663 18.8672 6.17353 17.1875 8.8695 15.5469C12.4251 13.3594 15.9806 11.211 19.4971 9.02348C20.005 8.71098 20.4739 8.55473 21.0991 8.59379C28.3274 8.98441 35.5948 9.33598 42.8231 9.68754C43.3701 9.7266 43.8781 9.84379 44.0343 10.4688C44.1906 11.0938 43.839 11.4454 43.331 11.7188C40.7132 13.3204 38.0954 14.9219 35.4385 16.5235C35.0868 16.7579 34.9696 16.9141 35.0868 17.3438C35.9074 20.4297 36.6497 23.5547 37.4312 26.6407C37.7047 27.6563 37.5484 27.9688 36.5716 28.3985C32.0783 30.3516 27.3897 31.6797 22.6229 32.6563C19.7315 33.2422 16.8011 33.5547 13.8707 33.9844C13.0111 34.1016 12.6595 33.8282 12.4251 32.9688C11.6045 29.7657 10.784 26.5625 10.0026 23.3594C9.88538 22.9297 9.72909 22.8125 9.2993 22.7735C7.6192 22.8125 5.90003 22.6954 4.10272 22.5782ZM39.5801 11.6797C39.5411 11.6407 39.5411 11.6016 39.502 11.5235C38.8378 11.4844 38.1735 11.4454 37.5093 11.4454C32.1174 11.1719 26.6864 10.8985 21.2944 10.625C20.9818 10.625 20.5911 10.7032 20.3176 10.8985C15.2382 13.9844 10.1589 17.1094 5.07952 20.1954C4.92323 20.3125 4.76694 20.4297 4.49344 20.586C10.784 20.8985 16.9183 21.211 23.0527 21.4844C23.3262 21.4844 23.6387 21.3672 23.8732 21.25C28.7962 18.2422 33.7193 15.2344 38.6424 12.2266C38.955 12.0704 39.2676 11.875 39.5801 11.6797ZM14.2614 32.0704C21.607 31.2891 28.6009 29.5704 35.3994 26.836C34.6571 23.8672 33.9147 20.9375 33.1723 17.9688C32.9379 18.125 32.7425 18.2032 32.5472 18.3204C29.8903 19.961 27.2334 21.6016 24.5374 23.2032C24.2248 23.3985 23.795 23.5938 23.4434 23.5547C20.8255 23.4375 18.2468 23.2813 15.629 23.1641C14.4177 23.086 13.2065 23.0469 11.9171 23.0079C12.7767 26.0547 13.5191 29.0235 14.2614 32.0704ZM5.6656 29.5704C5.6656 28.75 5.04044 28.125 4.21993 28.086C3.36035 28.086 2.69612 28.75 2.69612 29.5704C2.69612 30.3907 3.36035 31.0547 4.18086 31.0547C4.9623 31.0938 5.6656 30.4297 5.6656 29.5704Z" fill="#3D3D3D"/>
<path d="M55.5604 33.2812C55.0916 32.8515 54.6618 32.4999 54.271 32.0702C54.1538 31.953 54.1929 31.5624 54.3101 31.3671C55.5604 28.5937 56.8107 25.8202 58.1001 23.0858C59.2332 20.6249 60.3272 18.164 61.4603 15.703C61.5384 15.5468 61.6166 15.3515 61.6947 15.1171C60.8351 14.6874 59.9756 14.2577 59.0769 13.828C56.5372 19.414 53.9975 24.9218 51.4579 30.4687C50.7936 30.3124 50.1685 30.1562 49.4652 29.9999C52.0439 24.3358 54.6227 18.6718 57.2405 12.9296C56.3809 12.4999 55.5213 12.1093 54.6227 11.6405C54.5055 11.914 54.3883 12.1483 54.271 12.3827C51.6923 18.0468 49.1135 23.7108 46.5348 29.3749C46.3394 29.8046 46.105 30.039 45.597 29.9608C45.1282 29.9218 44.6593 29.9608 44.0732 29.9608C44.1514 29.7265 44.1905 29.5702 44.2686 29.414C47.199 23.0077 50.0903 16.6405 53.0207 10.2343C53.177 9.84366 53.4896 9.4921 53.8413 9.25772C56.2246 7.6171 58.6471 6.01553 61.0305 4.41397C62.0464 3.71085 62.7887 4.06241 62.906 5.31241C63.2185 8.28116 63.5702 11.2108 63.8828 14.1796C63.9218 14.4921 63.8828 14.8827 63.7655 15.1562C61.0696 21.1327 58.3345 27.1093 55.5995 33.0858C55.6776 33.164 55.6386 33.203 55.5604 33.2812ZM61.8119 12.9687C61.5775 10.8983 61.3822 8.90616 61.1477 6.83585C59.4286 7.96866 57.8266 9.06241 56.1465 10.1952C58.061 11.1327 59.8583 11.9921 61.8119 12.9687Z" fill="#3D3D3D"/>
<path d="M37.3921 7.38286C37.1968 7.38286 37.0405 7.38286 36.9233 7.38286C36.3372 7.30474 35.4385 7.42192 35.2432 7.10942C34.6962 6.28911 34.4227 5.27349 34.6962 4.25786C34.9697 3.2813 35.5557 2.57817 36.4935 2.22661C38.408 1.52349 40.3225 0.820362 42.2371 0.156299C43.839 -0.390575 45.441 0.351612 46.0271 1.91411C47.3164 5.31255 48.5277 8.71099 49.778 12.1094C49.817 12.2266 49.8952 12.4219 49.817 12.5391C49.4654 13.3204 49.1137 14.0625 48.723 15C48.0979 13.2422 47.4727 11.6407 46.8866 10.0391C46.0271 7.69536 45.1675 5.35161 44.3079 3.00786C43.9562 2.0313 43.5264 1.83599 42.5887 2.18755C40.8695 2.81255 39.1894 3.39849 37.4703 4.02349C36.6498 4.33599 36.4153 4.76567 36.7279 5.62505C36.9233 6.17192 37.1577 6.75786 37.3921 7.38286Z" fill="#3D3D3D"/>
<path d="M38.7593 16.875C39.3454 16.5234 39.8924 16.1719 40.4784 15.8203C40.5566 16.0156 40.6347 16.2109 40.7129 16.3672C41.7678 19.1797 42.7837 22.0312 43.7996 24.8437C43.8777 25.1172 43.8777 25.5078 43.7605 25.7812C43.487 26.4453 43.1744 27.1094 42.8228 27.8906C41.4552 24.1797 40.0877 20.5859 38.7593 16.875Z" fill="#3D3D3D"/>
<path d="M10.6277 33.9844C9.57273 33.9844 8.59593 33.9844 7.6582 33.9844C8.088 33.3984 8.51779 32.7734 9.02572 32.2266C9.18201 32.0312 9.6118 32.0312 9.92438 32.0312C10.0416 32.0312 10.237 32.2656 10.276 32.4219C10.3932 32.8906 10.5105 33.3984 10.6277 33.9844Z" fill="#3D3D3D"/>
<path d="M57.8267 46.9922C57.8267 47.6953 57.8267 48.2812 57.8267 48.9844C57.5532 48.9844 57.2796 48.9844 57.0452 48.9844C42.1197 48.9844 27.1551 48.9844 12.2296 48.9844C10.3932 48.9844 9.06475 49.9609 8.59589 51.5625C8.00981 53.7109 9.57269 55.8594 11.7998 55.9766C12.0342 55.9766 12.3077 55.9766 12.5422 55.9766C27.3505 55.9766 42.1588 55.9766 56.9671 55.9766C57.2406 55.9766 57.5141 55.9766 57.7876 55.9766C57.7876 56.6406 57.7876 57.2656 57.7876 57.9297C57.5922 57.9297 57.4359 57.9687 57.2406 57.9687C42.0025 57.9687 26.7644 57.9687 11.5654 57.9687C9.1429 57.9687 7.11115 56.5625 6.29064 54.375C5.5092 52.2266 6.13435 49.8438 7.85352 48.3594C8.98661 47.3828 10.276 46.9922 11.7607 46.9922C21.6069 46.9922 31.453 46.9922 41.3383 46.9922C46.5739 46.9922 51.8486 46.9922 57.0843 46.9922C57.3187 46.9922 57.5532 46.9922 57.8267 46.9922Z" fill="white"/>
<path d="M54.3491 51.0157C54.3491 52.0313 54.3491 52.9688 54.3491 53.9844C54.1147 53.9844 53.9193 54.0235 53.7239 54.0235C39.9315 54.0235 26.1 54.0235 12.3076 54.0235C11.2136 54.0235 10.5493 53.5156 10.5103 52.6172C10.4712 51.7969 11.0182 51.1328 11.8387 51.0157C12.0731 50.9766 12.3076 51.0157 12.542 51.0157C26.2172 51.0157 39.8924 51.0157 53.6067 51.0157C53.8021 51.0157 54.0756 51.0157 54.3491 51.0157Z" fill="white"/>
<path d="M5.54834 38.0078C5.82184 38.0078 6.05628 38.0078 6.29071 38.0078C19.9659 38.0078 33.6802 38.0078 47.3554 38.0078C47.5117 38.0078 47.7071 38.0078 47.8634 38.0078C48.7229 38.0469 49.3872 38.7109 49.3872 39.5312C49.3872 40.3516 48.7229 40.9766 47.8634 41.0156C47.7071 41.0156 47.5899 41.0156 47.4336 41.0156C33.7193 41.0156 19.9659 41.0156 6.25164 41.0156C6.05628 41.0156 5.82184 41.0156 5.58741 41.0156C5.54834 40 5.54834 39.0234 5.54834 38.0078Z" fill="white"/>
<path d="M39.5799 11.6797C39.2673 11.875 38.9547 12.0703 38.6421 12.2656C33.719 15.2734 28.796 18.2812 23.8729 21.2891C23.6385 21.4453 23.3259 21.5625 23.0524 21.5234C16.9181 21.25 10.7838 20.9375 4.49316 20.625C4.76667 20.4297 4.92296 20.3125 5.07924 20.2344C10.1586 17.1094 15.238 14.0234 20.3173 10.9375C20.5908 10.7813 20.9816 10.6641 21.2941 10.6641C26.6861 10.9375 32.1171 11.2109 37.509 11.4844C38.1733 11.5234 38.8375 11.5625 39.5017 11.5625C39.5408 11.6016 39.5799 11.6406 39.5799 11.6797Z" fill="white"/>
<path d="M14.2613 32.0703C13.4799 29.0234 12.7375 26.0547 11.9951 23.0078C13.2454 23.0859 14.4957 23.125 15.707 23.1641C18.3248 23.2812 20.9035 23.4375 23.5214 23.5547C23.873 23.5547 24.3028 23.3984 24.6154 23.2031C27.2723 21.6016 29.9292 19.9609 32.6252 18.3203C32.7814 18.2031 32.9768 18.125 33.2503 17.9688C33.9927 20.9375 34.735 23.8281 35.4774 26.8359C28.6007 29.5703 21.6068 31.2891 14.2613 32.0703Z" fill="white"/>
<path d="M5.66529 29.5703C5.66529 30.4297 5.00106 31.0937 4.14148 31.0937C3.32096 31.0937 2.65674 30.3906 2.65674 29.6094C2.65674 28.7891 3.32096 28.125 4.18055 28.125C5.04013 28.125 5.66529 28.75 5.66529 29.5703Z" fill="white"/>
<path d="M61.8119 12.9688C59.8583 12.0312 58.0219 11.1328 56.1465 10.2344C57.8266 9.10156 59.4285 8.00781 61.1477 6.875C61.3821 8.90625 61.5775 10.8594 61.8119 12.9688Z" fill="white"/>
</g>
<defs>
<clipPath id="clip0_275_732">
<rect width="64" height="60" fill="white"/>
</clipPath>
</defs>
</svg>
