<svg width="126" height="139" viewBox="0 0 126 139" fill="none" xmlns="http://www.w3.org/2000/svg">
<g clip-path="url(#clip0_243_243)">
<path d="M43.7415 68.695C44.1776 88.9604 61.6071 105.193 90.1426 112.257C87.9845 107.476 80.5581 106.525 81.5329 100.198C82.3161 99.8109 82.8921 99.1542 83.1316 99.1849C90.3068 102.904 97.6179 106.519 104.625 110.582C106.995 111.981 107.566 114.976 105.12 116.854C100.091 120.715 95.0297 124.814 87.527 127.14C88.4901 123.611 89.1883 121.144 89.6537 119.499C81.4948 116.75 73.2392 114.719 65.7922 111.208C47.8806 103.07 36.6935 89.341 34.8913 69.2658C34.5921 66.0622 33.0765 64.6506 30.7385 63.012C20.5644 56.2303 14.9146 46.6193 14.5078 34.271C14.3699 29.8706 14.4325 24.8871 20.4909 21.5238C17.9242 29.7171 18.6977 36.6339 21.6918 43.3481C24.7181 49.8229 28.8318 55.4631 35.4887 58.5071C39.928 53.5973 43.6808 48.356 48.5737 44.5999C53.363 40.7088 59.1497 37.5542 64.9109 35.492C70.944 33.2212 76.539 36.0075 79.3444 40.5061C82.1497 45.0047 81.3753 50.7493 77.072 55.5548C70.1931 63.1958 61.1308 67.1483 50.986 68.2838C48.4936 68.695 46.0657 68.6275 43.7415 68.695ZM44.6772 61.7537C55.4507 62.2814 63.5939 58.82 70.551 52.4064C72.7901 50.2583 74.7184 47.7052 72.574 44.6304C70.7406 41.9607 67.7691 42.3106 65.1798 43.4398C56.6934 46.7356 50.0727 52.4618 44.6772 61.7537Z" fill="#CCA8D2"/>
</g>
<defs>
<clipPath id="clip0_243_243">
<rect width="127.662" height="60.8271" fill="white" transform="translate(48.2499) rotate(52.4884)"/>
</clipPath>
</defs>
</svg>
