<svg width="32" height="32" viewBox="0 0 32 32" fill="none" xmlns="http://www.w3.org/2000/svg">
<path d="M21.3334 26.6665V5.33317C21.3334 4.62593 21.0525 3.94765 20.5524 3.44755C20.0523 2.94746 19.374 2.6665 18.6667 2.6665H13.3334C12.6262 2.6665 11.9479 2.94746 11.4478 3.44755C10.9477 3.94765 10.6667 4.62593 10.6667 5.33317V26.6665" stroke="white" stroke-width="3.33333" stroke-linecap="round" stroke-linejoin="round"/>
<path d="M26.6667 8H5.33341C3.86066 8 2.66675 9.19391 2.66675 10.6667V24C2.66675 25.4728 3.86066 26.6667 5.33341 26.6667H26.6667C28.1395 26.6667 29.3334 25.4728 29.3334 24V10.6667C29.3334 9.19391 28.1395 8 26.6667 8Z" stroke="white" stroke-width="3.33333" stroke-linecap="round" stroke-linejoin="round"/>
</svg>
