<svg width="59" height="50" viewBox="0 0 59 50" fill="none" xmlns="http://www.w3.org/2000/svg">
<g clip-path="url(#clip0_245_302)">
<path d="M20.9721 50C17.4346 50 13.8971 50 10.486 50C8.59093 50 8.33825 49.875 8.46459 47.875C8.59093 42.625 11.1177 38.75 15.9186 36.5C24.1305 32.625 33.7323 38.75 33.7323 47.75C33.7323 49.875 33.7323 50 31.4582 50C28.047 50 24.5096 50 20.9721 50ZM10.6123 47.875C17.6873 47.875 24.6359 47.875 31.5845 47.875C31.7108 42.75 27.4153 37.625 21.2248 37.5C14.9078 37.5 10.486 42.5 10.6123 47.875Z" fill="#FF7C80"/>
<path d="M24.257 8.375C24.257 13 20.4668 16.75 15.7923 16.75C11.1178 16.75 7.32764 13 7.32764 8.375C7.45398 3.75 11.2441 0 15.7923 0C20.4668 0 24.257 3.75 24.257 8.375ZM15.7923 2.125C12.2548 2.125 9.47539 4.875 9.47539 8.375C9.47539 11.875 12.2548 14.625 15.7923 14.625C19.3298 14.625 22.1092 11.875 22.1092 8.375C22.1092 4.875 19.3298 2.125 15.7923 2.125Z" fill="#FF7C80"/>
<path d="M51.5459 8.25C51.5459 12.875 47.7558 16.625 43.2076 16.625C38.5331 16.625 34.7429 12.875 34.7429 8.25C34.7429 3.625 38.5331 -0.125 43.2076 -0.125C47.7558 0 51.5459 3.75 51.5459 8.25ZM43.2076 2.125C39.6701 2.125 36.8907 4.875 36.8907 8.375C36.8907 11.875 39.6701 14.625 43.2076 14.625C46.7451 14.625 49.5245 11.875 49.5245 8.375C49.5245 4.875 46.7451 2.125 43.2076 2.125Z" fill="#FF7C80"/>
<path d="M48.6402 47.875C48.3875 46.625 48.2612 45.5 47.8822 44.5C45.9871 38.875 39.5438 36 33.9849 38.25C33.7323 38.375 33.6059 38.375 33.3532 38.5C32.7216 38.625 32.2162 38.375 31.9635 37.875C31.7108 37.375 31.9635 36.75 32.5952 36.5C33.7323 36.125 34.8693 35.625 36.0064 35.5C42.955 34.5 49.0192 38.875 50.4089 45.625C50.6616 46.625 50.5353 47.75 50.6616 48.75C50.6616 49.5 50.1562 49.875 49.3982 49.875C46.8714 49.875 44.3447 49.875 41.8179 49.875C40.3019 49.875 38.7858 49.875 37.3961 49.875C36.5117 49.875 36.0064 49.5 36.0064 48.75C36.0064 48.125 36.5117 47.75 37.3961 47.75C40.9335 47.75 44.3447 47.75 47.8822 47.75C47.8822 47.875 48.1348 47.875 48.6402 47.875Z" fill="#FF7C80"/>
<path d="M2.14765 37.5C4.16907 37.5 6.19048 37.5 8.08556 37.5C8.33823 37.5 8.71725 37.5 8.96992 37.625C9.47528 37.875 9.60161 38.25 9.47528 38.75C9.34894 39.25 8.96992 39.5 8.33823 39.5C6.56949 39.5 4.9271 39.5 3.15836 39.5C2.40033 39.5 1.76864 39.5 1.01061 39.5C0.378916 39.5 -9.90704e-05 39.125 -9.90704e-05 38.5C-9.90704e-05 35.75 -0.252776 33 0.505254 30.25C2.27399 23.75 7.95922 19.125 14.7815 18.625C15.5395 18.625 16.1712 19 16.1712 19.625C16.1712 20.25 15.7922 20.625 14.9078 20.75C8.46457 21.25 3.53737 25.625 2.27399 31.875C2.14765 32.375 2.14765 32.875 2.14765 33.375C2.14765 34.75 2.14765 36.125 2.14765 37.5Z" fill="#FF7C80"/>
<path d="M56.8521 37.5C56.9784 34.5 56.9784 31.75 55.8414 29C53.5673 24 49.6508 21.375 44.0919 20.875C43.4602 20.875 43.0812 20.625 42.8285 20C42.7022 19.25 43.2076 18.75 44.0919 18.75C47.6294 19 50.9142 20.25 53.5673 22.625C57.1048 25.75 58.8735 29.75 58.8735 34.375C58.8735 35.625 58.8735 37 58.8735 38.25C58.8735 39.125 58.4945 39.5 57.6101 39.5C55.336 39.5 53.0619 39.5 50.6615 39.5C49.7771 39.5 49.3981 39.125 49.3981 38.375C49.3981 37.75 49.9035 37.375 50.6615 37.375C52.8093 37.5 54.8307 37.5 56.8521 37.5Z" fill="#FF7C80"/>
<path d="M31.5845 27.125C31.5845 23.75 34.4903 20.875 37.9014 20.875C41.3125 20.875 44.2183 23.75 44.2183 27.125C44.2183 30.5 41.3125 33.375 37.9014 33.375C34.4903 33.375 31.5845 30.5 31.5845 27.125ZM42.0706 27.125C42.0706 24.75 40.1755 23 37.9014 22.875C35.501 22.875 33.7322 24.75 33.7322 27C33.7322 29.25 35.6273 31.125 37.9014 31.125C40.1755 31.25 42.0706 29.375 42.0706 27.125Z" fill="#FF7C80"/>
<path d="M27.4153 27.125C27.4153 30.5 24.5095 33.375 21.0984 33.375C17.6873 33.375 14.7815 30.5 14.7815 27.125C14.7815 23.75 17.6873 20.875 21.0984 20.875C24.5095 20.875 27.4153 23.625 27.4153 27.125ZM21.0984 31.25C23.4988 31.25 25.2676 29.375 25.2676 27.125C25.2676 24.875 23.3725 23 21.0984 23C18.698 23 16.8029 24.875 16.8029 27.125C16.8029 29.375 18.698 31.25 21.0984 31.25Z" fill="#FF7C80"/>
</g>
<defs>
<clipPath id="clip0_245_302">
<rect width="59" height="50" fill="white"/>
</clipPath>
</defs>
</svg>
