<svg width="50" height="50" viewBox="0 0 50 50" fill="none" xmlns="http://www.w3.org/2000/svg">
<g clip-path="url(#clip0_245_296)">
<path d="M50.0001 34.75C49.8751 35.625 49.7501 36.375 49.5001 37.125C48.3751 41.25 45.6251 43.625 41.6251 44.5C40.5001 44.75 39.3751 44.875 38.2501 44.875C34.5001 44.875 30.7501 44.875 27.1251 44.875C26.8751 44.875 26.7501 44.875 26.5001 44.75C26.1251 44.625 25.8751 44.25 26.0001 43.875C26.0001 43.5 26.2501 43.25 26.7501 43.125C26.8751 43.125 27.1251 43.125 27.2501 43.125C31.0001 43.125 34.6251 43.125 38.3751 43.125C40.3751 43.125 42.2501 42.75 43.8751 41.875C46.3751 40.5 47.7501 38.375 48.2501 35.625C48.7501 33 48.2501 30.375 47.6251 27.75C46.3751 22.625 44.0001 18 40.1251 14.375C38.8751 13.125 37.5001 12.125 36.1251 11.25C35.7501 11.25 35.3751 11.125 35.0001 11.375C34.7501 11.5 34.5001 11.5 34.2501 11.625C35.0001 12.25 35.6251 12.875 36.2501 13.5C36.6251 13.875 36.6251 14.375 36.2501 14.75C35.8751 15.125 35.5001 15 35.0001 14.625C34.0001 13.75 33.0001 12.75 32.1251 11.875C32.0001 11.75 31.8751 11.625 31.5001 11.5C31.5001 12.125 31.5001 12.625 31.5001 13.125C31.5001 13.375 31.5001 13.75 31.5001 14C31.5001 14.5 31.1251 14.875 30.7501 14.875C30.2501 14.875 29.8751 14.625 29.8751 14.125C29.8751 13.5 29.8751 12.875 29.8751 12.375C29.8751 12.125 29.8751 11.875 29.8751 11.625C29.6251 11.75 29.5001 11.875 29.3751 12C28.3751 12.875 27.5001 13.75 26.5001 14.75C26.0001 15.25 25.5001 15.25 25.1251 14.875C24.7501 14.5 24.8751 14 25.3751 13.5C26.0001 12.875 26.6251 12.25 27.3751 11.625C27.0001 11.5 26.6251 11.375 26.3751 11.25C26.2501 11.25 26.0001 11.25 25.8751 11.375C23.2501 12.875 21.1251 14.875 19.2501 17.375C19.1251 17.5 19.0001 17.625 18.8751 17.75C18.5001 18.125 18.1251 18.125 17.7501 17.875C17.3751 17.625 17.2501 17.125 17.6251 16.75C18.1251 16.125 18.5001 15.625 19.0001 15C19.1251 14.875 19.2501 14.625 19.2501 14.5C19.2501 12.75 19.2501 11 19.2501 9.375C19.2501 9.375 19.2501 9.25 19.2501 9.125C16.2501 10.375 13.2501 10.5 10.1251 9.125C10.1251 11.125 10.1251 13.125 10.1251 15C10.8751 15.125 11.7501 15.125 12.3751 15.375C13.2501 15.625 14.0001 16 14.7501 16.5C15.5001 17 15.8751 17.75 15.8751 18.625C15.8751 22.5 15.8751 26.375 15.8751 30.25C15.8751 30.5 15.8751 30.625 15.8751 30.875C16.1251 30.875 16.2501 30.875 16.3751 30.875C17.8751 30.875 19.3751 30.875 20.7501 31.5C21.2501 31.75 21.8751 32 22.3751 32.375C23.1251 32.875 23.3751 33.625 23.3751 34.5C23.3751 37.875 23.3751 41.25 23.3751 44.75C23.3751 45.75 23.0001 46.5 22.1251 47.125C21.0001 47.875 19.8751 48.25 18.5001 48.375C16.3751 48.625 14.3751 48.375 12.3751 47.375C11.5001 49.125 10.0001 49.5 8.3751 49.875C8.0001 50 7.6251 50 7.2501 50.125C6.5001 50.125 5.8751 50.125 5.1251 50.125C5.0001 50.125 4.7501 50 4.6251 50C3.3751 49.875 2.1251 49.5 1.1251 48.75C0.3751 48.25 -0.1249 47.5 9.9998e-05 46.5C9.9998e-05 45.375 0.1251 44.375 9.9998e-05 43.25C-0.1249 41.75 0.6251 40.875 1.7501 40.25C2.2501 40 2.7501 39.875 3.2501 39.625C3.2501 39.5 3.2501 39.25 3.2501 39C3.2501 32.25 3.2501 25.625 3.2501 18.875C3.2501 17.625 3.7501 16.875 4.7501 16.25C5.6251 15.625 6.7501 15.375 7.7501 15.25C8.1251 15.25 8.2501 15 8.2501 14.625C8.2501 12.125 8.2501 9.5 8.2501 7C8.2501 6.125 8.5001 5.5 9.1251 5C9.6251 4.625 10.1251 4.375 10.6251 4.125C12.5001 3.375 14.3751 3.25 16.2501 3.625C17.3751 3.75 18.5001 4.125 19.5001 4.875C20.2501 5.5 20.6251 6.125 20.6251 7.125C20.6251 8.875 20.6251 10.75 20.6251 12.5C20.6251 12.625 20.6251 12.875 20.6251 13C21.8751 12 23.1251 11.125 24.3751 10.125C24.3751 10.125 24.3751 10.125 24.3751 10C22.1251 7.75 21.5001 4.875 21.5001 1.875C21.5001 0.625 22.7501 -0.125 23.8751 0.375C24.2501 0.625 24.6251 0.875 25.0001 1.125C25.8751 1.875 27.0001 1.875 28.0001 1.125C29.7501 -0.375 31.6251 -0.375 33.3751 1.125C34.2501 1.875 35.3751 1.875 36.3751 1.125C36.7501 0.875 37.0001 0.625 37.3751 0.375C38.6251 -0.25 39.8751 0.625 39.8751 1.875C39.8751 2.25 39.8751 2.625 39.7501 3C39.6251 3.5 39.7501 3.625 40.2501 3.875C42.5001 4.75 44.0001 7.875 41.6251 10.25C41.6251 10.25 41.6251 10.375 41.5001 10.375C41.7501 10.5 41.8751 10.5 42.1251 10.5C43.5001 10.875 44.8751 11.5 45.8751 12.625C46.2501 13 46.2501 13.625 45.8751 13.875C45.5001 14.125 45.0001 14.125 44.6251 13.75C43.1251 12.25 41.2501 11.875 39.1251 11.625C39.5001 11.875 39.6251 12.125 39.8751 12.25C40.1251 12.5 40.3751 12.625 40.6251 12.875C45.2501 17.25 48.0001 22.75 49.2501 29C49.5001 30 49.6251 31.125 49.7501 32.125C50.0001 33.125 50.0001 34 50.0001 34.75ZM14.1251 20.625C11.0001 22 8.0001 22 5.0001 20.625C5.0001 26.875 5.0001 33 5.0001 39.125C7.0001 38.875 9.0001 39.125 10.7501 40.125C10.7501 38.125 10.7501 36.25 10.7501 34.375C10.7501 33.5 11.0001 32.875 11.7501 32.375C12.3751 32 13.0001 31.625 13.6251 31.375C14.0001 31.25 14.1251 31.125 14.1251 30.75C14.1251 29.25 14.1251 27.75 14.1251 26.25C14.1251 24.375 14.1251 22.625 14.1251 20.625ZM12.5001 36.5C12.5001 36.625 12.5001 36.875 12.5001 37C12.5001 39.5 12.5001 42.125 12.5001 44.625C12.5001 45.125 12.6251 45.5 13.1251 45.625C13.3751 45.75 13.6251 45.875 13.8751 46C15.2501 46.5 16.6251 46.625 18.0001 46.5C19.0001 46.375 20.0001 46.25 21.0001 45.75C21.5001 45.5 21.7501 45.125 21.7501 44.375C21.7501 41.875 21.7501 39.375 21.7501 36.875C21.7501 36.75 21.7501 36.5 21.7501 36.375C17.7501 37.875 16.3751 37.875 12.5001 36.5ZM28.3751 10C28.2501 9.75 28.1251 9.625 28.1251 9.5C27.6251 8.375 27.1251 7.25 26.7501 6.125C26.6251 5.625 26.8751 5.25 27.2501 5.125C27.6251 5 28.1251 5.25 28.2501 5.625C28.2501 5.75 28.3751 5.875 28.3751 6C29.0001 7.25 29.5001 8.5 30.1251 9.75C30.3751 10.25 31.1251 10.25 31.3751 9.75C31.7501 9.125 32.1251 8.375 32.5001 7.75C32.7501 7.125 33.0001 6.375 33.2501 5.75C33.5001 5.25 33.8751 5 34.2501 5.125C34.7501 5.25 35.0001 5.625 34.8751 6.25C34.8751 6.375 34.7501 6.625 34.7501 6.75C34.2501 7.875 33.8751 9 33.3751 10.125C34.2501 10.125 34.8751 9.75 35.5001 9.25C36.8751 8.125 37.5001 6.625 37.8751 5C38.1251 4 38.1251 3.125 38.2501 2.125H38.1251C37.8751 2.25 37.6251 2.375 37.5001 2.625C35.8751 4 33.8751 4 32.2501 2.625C31.2501 1.75 30.1251 1.75 29.1251 2.625C27.5001 4 25.5001 4 23.8751 2.625C23.6251 2.5 23.3751 2.25 23.1251 2.125C23.1251 2.125 23.0001 2.125 23.0001 2.25C23.1251 3 23.1251 3.875 23.2501 4.625C23.6251 6.375 24.2501 8 25.6251 9.25C26.6251 9.625 27.3751 10 28.3751 10ZM16.8751 35.875C18.3751 35.875 19.7501 35.625 20.6251 35.25C21.1251 35 21.6251 34.875 21.6251 34.25C21.6251 33.625 21.0001 33.375 20.6251 33.25C18.2501 32.375 16.0001 32.375 13.6251 33.25C13.1251 33.375 12.6251 33.625 12.6251 34.25C12.6251 34.875 13.2501 35 13.6251 35.25C14.7501 35.625 15.8751 35.875 16.8751 35.875ZM9.6251 16.625C8.3751 16.625 7.2501 16.75 6.1251 17.375C5.6251 17.625 5.0001 17.75 5.0001 18.375C5.0001 18.875 5.5001 19.125 6.0001 19.25C8.3751 20.25 10.7501 20.25 13.1251 19.25C13.6251 19.125 14.1251 18.875 14.1251 18.25C14.1251 17.75 13.6251 17.5 13.1251 17.25C12.0001 16.875 10.8751 16.625 9.6251 16.625ZM6.2501 44.125C7.6251 44.125 8.8751 43.875 9.8751 43.375C10.2501 43.125 10.8751 43 10.8751 42.375C10.8751 41.875 10.3751 41.625 9.8751 41.5C7.5001 40.5 5.1251 40.5 2.6251 41.5C2.2501 41.625 1.6251 41.875 1.6251 42.5C1.6251 43 2.1251 43.25 2.6251 43.5C3.7501 44 5.0001 44.125 6.2501 44.125ZM14.5001 8.375C15.8751 8.375 17.2501 8.125 18.1251 7.625C18.5001 7.375 19.1251 7.25 19.1251 6.625C19.1251 6.125 18.6251 5.875 18.1251 5.625C15.7501 4.625 13.3751 4.625 10.8751 5.625C10.6251 5.875 10.0001 6.125 10.0001 6.625C10.0001 7.125 10.5001 7.375 11.0001 7.625C12.1251 8.125 13.3751 8.375 14.5001 8.375ZM1.6251 44.875C1.6251 45.375 1.6251 45.875 1.6251 46.375C1.6251 46.875 1.7501 47.125 2.1251 47.375C2.5001 47.5 2.8751 47.75 3.2501 47.875C4.5001 48.375 5.8751 48.5 7.2501 48.375C8.2501 48.25 9.2501 48.125 10.1251 47.5C10.3751 47.375 10.7501 47 10.7501 46.75C10.8751 46.125 10.7501 45.625 10.7501 44.875C7.7501 46.125 4.7501 46.25 1.6251 44.875ZM39.6251 5.375C39.2501 7.125 38.3751 8.625 37.2501 9.875C38.5001 10.25 40.1251 9.75 41.0001 8.875C41.8751 7.625 41.2501 5.625 39.6251 5.375Z" fill="#BF92C7"/>
<path d="M27.5 26.625C27 26.625 26.625 26.625 26.125 26.625C25.625 26.625 25.25 26.25 25.25 25.875C25.25 25.375 25.625 25 26.125 25C26.5 25 27 25 27.5 25C27.5 23.875 27.5 22.875 27.5 21.875C27.5 21.125 27.75 20.5 28.25 19.875C28.75 19.375 29.375 19.125 30.125 19.125C30.875 19.125 31.5 19.125 32.25 19.125C33.875 19.125 34.875 20.25 35 21.75C35 22 35 22.375 35 22.625C35 23.125 34.625 23.375 34.25 23.375C33.875 23.375 33.5 23.125 33.375 22.625C33.375 22.375 33.375 22 33.375 21.75C33.375 21.125 33 20.75 32.375 20.625C31.625 20.625 31 20.625 30.25 20.625C29.625 20.625 29.25 21 29.25 21.5C29.25 22.375 29.25 23.375 29.25 24.25C29.25 24.375 29.25 24.625 29.25 24.75C30.25 24.75 31.125 24.75 32 24.75C32.875 24.75 33.25 25 33.25 25.625C33.25 26.125 32.875 26.5 32 26.5C31.125 26.5 30.125 26.5 29.25 26.5C29.25 28 29.125 29.375 28.375 30.625C28.625 30.625 28.875 30.625 29 30.625C30.75 30.625 32.375 30.625 34.125 30.625C34.75 30.625 35.125 31 35.125 31.5C35.125 32 34.75 32.375 34.125 32.375C31.25 32.375 28.375 32.375 25.5 32.375C24.875 32.375 24.5 32.125 24.5 31.625C24.5 31.125 24.75 30.75 25.375 30.75C26.25 30.625 26.75 30.25 27.125 29.5C27.5 28.75 27.5 27.75 27.5 26.625Z" fill="#BF92C7"/>
<path d="M39 41.7501C38.125 41.7501 37.625 41.5001 37.625 41.0001C37.625 40.5001 38 40.1251 38.625 40.1251C39.75 40.1251 40.75 39.8751 41.875 39.5001C43.875 38.6251 44.75 37.0001 45 35.0001C45 34.7501 45 34.6251 45 34.3751C45.125 33.8751 45.5 33.5001 45.875 33.6251C46.375 33.6251 46.625 34.0001 46.625 34.6251C46.625 36.1251 46.25 37.5001 45.375 38.8751C44.25 40.5001 42.625 41.3751 40.75 41.8751C40.125 41.5001 39.375 41.6251 39 41.7501Z" fill="#BF92C7"/>
</g>
<defs>
<clipPath id="clip0_245_296">
<rect width="50" height="50" fill="white"/>
</clipPath>
</defs>
</svg>
