<svg width="556" height="474" viewBox="0 0 556 474" fill="none" xmlns="http://www.w3.org/2000/svg">
<g clip-path="url(#clip0_220_2072)">
<path d="M171.175 100.847C160.789 99.9483 149.126 96.6114 141.379 92.4616C130.27 86.4722 123.204 79.5844 118.777 70.3865C116.351 65.3383 115.457 62.0014 115.116 56.5681C114.307 44.9744 117.713 35.0492 125.587 26.0651C127.928 23.3699 131.249 20.3325 133.845 18.4929C134.611 17.9367 135.59 17.2522 136.016 16.91C137.591 15.7121 144.061 12.2468 147.296 10.8778C152.361 8.78153 159.342 6.81359 165.344 5.82962C171.984 4.76009 184.498 4.71731 191.224 5.74406C206.76 8.09703 220.041 14.172 229.618 23.2416C230.384 23.9261 231.959 25.6801 233.108 27.0919C241.111 36.7177 244.175 47.2418 242.6 59.7767C242.175 63.1565 240.685 67.7768 238.642 71.7555C234.641 79.7128 225.915 87.7129 215.699 92.8894C213.571 93.9589 207.484 96.4402 204.972 97.2103C201.312 98.3654 195.012 99.6488 189.521 100.333C185.477 100.932 174.751 101.189 171.175 100.847ZM183.817 97.4242C193.778 96.7825 202.887 94.6006 211.825 90.5792C223.914 85.1888 233.96 75.2208 237.578 65.1244C240.728 56.3542 240.132 47.0279 235.79 38.3433C232.044 30.8139 226.17 24.4822 218.21 19.3913C210.336 14.3431 199.354 10.45 189.478 9.16656C174.538 7.2414 160.321 9.16656 147.764 14.8565C143.848 16.6105 142.869 17.1239 139.336 19.4768C132.653 23.8405 127.886 28.5464 123.97 34.6642C121.799 38.0439 119.713 43.2632 118.905 47.413C116.861 57.8088 120.309 68.6752 128.439 77.916C132.228 82.2369 139.421 87.499 145.295 90.237C151.893 93.36 159.682 95.7557 166.28 96.6969C172.495 97.5526 177.815 97.8092 183.817 97.4242Z" fill="black"/>
<path d="M173.995 97.9021C161.923 97.3484 149.089 93.6005 139.855 87.8935C131.553 82.7827 125.92 77.0331 122.235 69.9633C120.498 66.5987 119.651 64.384 118.931 61.3602C116.008 48.8388 120.032 36.062 130.113 26.0534C132.824 23.3277 135.238 21.4111 138.923 19.0261C142.439 16.7263 143.413 16.1726 147.31 14.4265C156.374 10.2527 165.184 8.33614 176.197 8.03802C186.956 7.73989 196.232 9.18794 205.762 12.6377C214.445 15.7893 222.027 20.4316 227.788 26.2238C231.6 30.0568 233.929 33.2511 236.174 37.7656C239.944 45.3039 240.918 53.4385 239.139 61.6583C237.826 67.706 234.734 73.2853 229.948 78.4812C221.773 87.2972 210.548 93.2172 196.062 96.3262C189.539 97.6891 181.746 98.2428 173.995 97.9021Z" fill="white"/>
<path d="M138.529 78.5196C138.106 77.882 138.063 76.6491 138.486 76.0539C138.74 75.6713 139.121 75.5863 140.347 75.4588C142.166 75.2887 147.072 74.396 148.764 73.9283C149.399 73.7583 151.64 73.0781 153.755 72.4404C162.383 69.8471 164.963 69.6771 177.271 70.9099C183.32 71.5051 187.253 71.5476 189.157 71.08C190.848 70.6549 194.655 68.7418 196.939 67.2114C207.64 60.0268 210.051 58.0287 212.461 54.5002C213.73 52.5446 213.942 52.0344 213.392 51.5668C212.969 51.1842 211.954 51.5668 209.755 53.0122C206.329 55.1804 201.761 57.5185 198.588 58.7514C195.501 59.9417 195.374 59.9843 193.302 59.9843C192.117 59.9843 189.579 59.8567 187.592 59.7292C185.012 59.5591 183.531 59.5591 182.305 59.6867C178.921 60.1543 177.356 60.1968 177.018 59.8992C176.595 59.5166 176.595 57.306 177.018 56.9234C177.694 56.3282 182.093 56.0306 187.507 56.1581C192.456 56.2857 192.709 56.2857 193.386 55.8605C194.19 55.3504 194.232 55.1804 193.598 54.5427C192.879 53.8625 191.863 53.3523 189.833 52.7571C186.703 51.8219 184.969 51.4818 180.613 51.0141C174.945 50.419 172.238 50.6315 169.574 51.8644C168.516 52.3745 164.625 54.9678 162.003 56.9234C159.042 59.1765 153.544 61.1746 148.257 61.9398C146.523 62.1949 139.628 62.705 134.764 62.9176C131.381 63.0877 131 62.9176 131 61.3446C131 59.7292 131.127 59.7292 135.864 59.4316C144.408 58.9214 147.453 58.5388 151.217 57.561C155.447 56.4557 158.069 55.0953 162.003 52.0769C163.906 50.589 166.401 49.0586 167.924 48.4209C170.42 47.4006 171.265 47.2305 175.918 47.273C180.782 47.273 182.897 47.4856 187.465 48.4634C192.244 49.4412 194.909 50.419 196.347 51.7794L196.897 52.2895L199.434 51.0567C200.83 50.3765 203.03 49.2286 204.341 48.4634L205.017 48.0808C206.159 47.4006 207.471 47.0605 208.782 47.018C210.6 46.9755 210.854 46.9755 211.277 47.4006C211.658 47.7832 212.038 47.8682 213.18 47.8682C214.365 47.8682 214.788 47.9958 215.338 48.3359C216.606 49.2286 216.945 49.7813 216.987 51.8644C217.029 53.4373 216.987 53.905 216.564 55.0103C215.591 57.4335 213.73 59.6867 210.22 62.62C207.555 64.8732 197.277 71.7602 194.401 73.2056C190.891 74.9486 189.96 75.1187 183.827 74.9486C181.078 74.9061 178.117 74.736 177.271 74.6085C174.099 74.1834 168.77 73.7583 166.655 73.7583C163.948 73.7583 159.254 74.6935 154.77 76.0964C149.695 77.7119 144.661 78.7747 141.024 78.9873C138.909 79.0298 138.825 78.9873 138.529 78.5196Z" fill="black"/>
<path d="M18.5276 471.449C17.9765 470.829 17.9077 469.037 17.9077 445.612V394.395H9.84922H1.65302L0.826508 393.499L0 392.673V379.444C0 366.698 0.0688757 366.147 0.688757 365.596C1.30864 365.044 2.41065 364.975 17.9077 365.044L34.4378 365.113L33.7491 363.942C32.7848 362.219 32.2338 359.464 30.3742 345.891C29.4099 339.07 28.4456 332.249 28.239 330.733C26.6549 319.709 26.5171 316.953 27.4125 316.609C27.688 316.471 30.994 316.402 34.7133 316.402H41.532L39.1214 315.231C34.5756 313.164 30.443 308.341 28.9278 303.656C28.3079 301.796 28.1701 300.211 28.0324 295.319C27.8258 289.256 27.8258 289.256 28.6523 288.636C29.7543 287.878 31.6828 287.947 35.0577 288.843C41.4632 290.496 43.8049 291.667 47.7308 295.181C51.7945 298.833 53.5164 303.242 53.3098 309.719C53.2409 312.337 53.3786 313.37 53.723 313.715C54.1363 314.059 54.1363 313.646 53.9985 310.959C53.9296 309.168 53.7919 305.929 53.7919 303.794V299.866L51.4501 297.248C47.4553 292.908 45.8712 288.98 45.8712 283.124C45.8712 279.679 46.4911 276.992 48.1441 273.961C49.4527 271.549 54.5495 264.453 55.4449 263.626C55.7204 263.419 56.7535 263.212 57.7178 263.212C59.7841 263.212 60.4039 263.764 63.3656 268.449C65.914 272.514 67.4293 276.372 67.7737 279.472C67.9114 280.782 68.118 281.884 68.2558 281.884C68.3247 281.884 69.5644 281.402 70.8731 280.85C74.5235 279.335 78.656 278.577 80.309 278.99C81.2044 279.266 81.7554 279.679 81.8932 280.23C81.962 280.644 82.0998 283.4 82.0998 286.293V291.667L84.8548 291.53C88.8496 291.323 88.7807 291.254 88.5741 296.973C88.4364 300.349 88.1609 302.278 87.6787 303.862C85.888 309.65 83.8217 312.819 80.6534 314.886L78.5871 316.264H82.8574C85.7502 316.264 87.2655 316.402 87.6098 316.678C88.1608 317.229 88.1609 320.743 87.6787 323.843C86.5767 331.077 85.7502 336.934 84.5793 347.131C83.2707 358.499 82.6508 361.324 81.411 363.322C81.0667 363.873 80.7912 364.493 80.7912 364.562C80.7912 364.631 88.2986 364.769 97.5279 364.769L114.265 364.907L113.783 363.942C113.232 362.977 111.785 358.223 109.65 350.369C108.961 347.958 107.171 341.757 105.655 336.589C104.071 331.422 101.592 323.016 100.214 317.987C98.7677 312.957 95.4617 301.933 92.8444 293.528C90.296 285.053 87.2655 275.27 86.2323 271.618C85.1303 268.035 83.5462 262.592 82.5819 259.561C81.1355 254.738 80.9289 253.704 80.9289 250.811C80.9289 247.09 81.411 245.643 83.2707 243.714C85.6813 241.234 80.9289 241.44 150.907 241.44C201.048 241.44 213.859 241.303 213.859 241.027C213.859 240.82 213.101 238.478 212.137 235.929C210.346 230.968 209.726 227.592 210.346 226.283C210.622 225.938 211.93 224.974 213.308 224.216L215.856 222.907L215.305 221.598C214.892 220.564 214.617 220.289 213.583 220.151C212.895 220.082 209.933 219.186 207.04 218.428C195.262 214.984 185.827 210.781 180.523 206.578C175.426 202.513 169.847 195.899 166.748 190.18C166.059 188.871 164.682 186.597 163.649 185.15C162.684 183.772 161.651 181.843 161.307 181.017C160.962 180.19 160.205 178.536 159.585 177.365C158.69 175.642 158.552 174.747 158.345 172.542C158.276 170.131 158.345 169.648 159.034 168.546C160.136 166.823 162.409 165.79 164.888 165.79C165.99 165.79 166.886 165.652 166.886 165.445C166.886 164.757 169.71 164.068 172.878 164.068C176.873 164.068 179.352 164.757 184.793 167.512C189.615 169.924 195.331 171.991 200.428 173.369C204.354 174.402 210.14 175.367 210.484 175.022C210.553 174.953 210.209 174.058 209.589 173.162C207.316 169.51 206.696 167.65 206.489 164.205C206.351 161.243 206.42 160.829 207.247 159.107C208.487 156.626 209.795 155.8 212.481 155.8C213.583 155.8 214.892 156.006 215.236 156.213C216.407 156.902 236.381 176.676 237.897 178.605C239.481 180.672 241.685 185.082 242.649 187.769C243.269 189.422 244.233 194.59 244.784 199.206C244.922 200.101 245.473 201.686 246.024 202.857L246.988 204.924L249.261 204.787L251.534 204.649L252.774 206.44C253.462 207.474 254.909 210.161 256.149 212.434C257.388 214.708 259.317 218.428 260.557 220.702C261.796 222.976 264.414 228.005 266.48 231.933C272.472 243.439 277.225 252.258 277.5 252.395C277.844 252.602 279.084 250.673 281.495 246.332C286.66 237.1 301.124 215.81 308.356 206.853C314.417 199.344 322.338 193.212 330.879 189.215C337.422 186.184 348.304 182.395 357.396 179.983C359.393 179.432 361.115 178.881 361.253 178.605C361.391 178.398 361.528 177.227 361.528 176.125V173.989H357.809C351.266 173.989 343.483 172.68 336.871 170.544C333.083 169.304 327.366 165.721 323.991 162.483L321.718 160.278L321.856 162.69C322.063 165.928 321.718 166.203 318.825 165.997C314.9 165.721 310.629 163.379 306.29 159.245C298.852 152.079 295.27 142.089 295.821 130.307C296.234 122.453 297.061 117.768 300.987 102.748C303.397 93.1021 304.293 88.1414 305.326 76.911C306.566 64.0958 308.012 55.6902 310.147 49.3516C311.662 44.8043 315.519 37.0876 318.412 32.8159C329.57 16.2114 348.098 4.98096 370.069 1.39824C374.408 0.64036 387.494 0.77816 392.04 1.53604C396.104 2.22503 402.716 4.15418 405.471 5.46325C408.502 6.91012 413.254 10.2172 414.631 11.8708C415.802 13.3177 415.871 13.3177 418.833 13.8C425.927 14.7645 431.093 16.7626 437.705 20.9654C443.904 25.0304 450.102 32.6092 454.166 41.2905C457.334 47.9736 459.401 55.139 464.842 77.9444C466.082 82.974 470.076 96.2714 472.625 103.575C476.069 113.496 477.239 119.284 477.446 127.276C477.79 139.402 475.173 148.152 468.837 155.386C465.944 158.625 459.332 162.69 456.439 162.965C454.717 163.172 453.34 162.483 453.202 161.38C453.064 160.691 452.857 160.76 450.791 162.758C444.455 168.822 434.261 171.991 420.968 171.991H416.491L416.698 173.3C416.835 173.989 417.111 174.747 417.318 175.022C417.524 175.229 420.279 175.987 423.379 176.676C435.432 179.363 451.962 184.186 460.503 187.562C467.321 190.318 473.796 194.107 478.273 198.172C485.505 204.649 492.254 217.05 499.142 236.549C500.313 239.856 501.415 242.612 501.553 242.75C501.69 242.887 507.407 243.163 514.295 243.301C527.519 243.645 528.896 243.783 534.131 245.574C537.988 246.883 539.847 247.917 542.258 250.259C546.597 254.324 547.906 258.527 547.561 267.691C547.424 270.722 547.217 274.925 547.01 276.992C546.804 279.059 546.459 282.642 546.322 284.915C546.115 287.189 545.633 292.701 545.289 297.179C544.944 301.658 544.393 307.032 544.255 309.237C544.118 311.441 543.773 314.748 543.567 316.678C543.36 318.607 543.016 321.983 542.878 324.256C542.671 326.53 542.327 331.284 541.983 334.798C541.638 338.312 541.294 343.272 541.087 345.822C540.398 354.572 539.71 362.219 539.503 363.253C539.296 364.286 539.365 364.355 540.605 364.562C541.294 364.7 544.393 364.769 547.493 364.769C550.592 364.769 553.416 364.907 553.76 365.113C555.069 365.802 555.138 367.18 554.931 380.271C554.725 390.812 554.587 392.948 554.174 393.499C553.691 394.051 552.796 394.051 545.357 394.051H537.023L536.817 395.911C536.679 396.875 536.61 428.244 536.61 441.197C536.61 458.972 536.473 464.76 536.197 465.035C535.99 465.242 535.026 465.449 534.2 465.449C531.238 465.449 531.445 467.378 531.445 440.439C531.445 427.348 531.307 396.118 531.238 395.429L531.031 394.119H277.156H23.4177V445.405C23.4177 473.791 23.4617 473.224 20.5 473.5C19.1914 473.844 18.9408 471.931 18.5276 471.449ZM549.559 379.789L549.421 370.694L547.493 370.487C546.046 370.281 5.92331 370.35 5.57893 370.487C5.51005 370.487 5.44118 374.621 5.44118 379.651V388.814H277.5H549.559V379.789ZM261.865 364.424C261.728 364.08 261.383 362.977 261.108 361.875C260.763 360.497 260.419 359.877 259.868 359.739C258.559 359.395 118.26 359.532 117.984 359.877C117.64 360.497 120.05 362.771 121.979 363.666C123.907 364.562 123.976 364.562 134.721 364.7C140.644 364.838 171.845 364.907 203.872 364.907C256.355 364.907 262.072 364.838 261.865 364.424ZM376.337 363.597C376.13 362.771 375.992 362.082 375.923 362.013C375.854 361.944 374.133 362.219 372.135 362.564C369.587 363.115 367.107 363.253 364.008 363.253H359.531L359.393 364.149L359.187 365.044H367.865H376.612L376.337 363.597ZM481.096 364.355C487.984 363.529 492.736 361.944 497.695 358.637C505.41 353.538 510.093 345.822 511.884 335.487C512.71 330.94 512.573 320.949 511.746 313.439C509.611 294.63 502.792 266.037 495.147 243.645C491.497 232.966 484.334 217.188 480.683 211.607C476.551 205.2 471.385 200.515 464.98 197.001C461.949 195.347 454.786 192.385 448.243 190.111C443.284 188.389 431.85 185.288 431.575 185.564C431.437 185.771 429.922 187.7 428.269 190.042C424.687 194.865 419.591 200.101 415.182 203.409C408.846 208.094 399.823 211.952 391.627 213.33C386.53 214.226 375.992 214.294 371.997 213.468C365.523 212.159 359.6 209.472 355.674 206.233C351.886 203.133 348.235 197.139 346.789 191.834C346.307 190.18 346.307 190.18 345.274 190.456C343.207 190.869 334.736 194.59 330.879 196.794C319.308 203.202 313.453 209.609 297.956 232.346C296.234 234.964 293.961 238.271 293.135 239.787C285.696 251.706 283.217 255.84 282.115 257.907L280.875 260.25L282.459 263.419C290.931 279.61 290.931 279.748 290.931 281.884C290.931 283.537 290.793 283.951 290.242 284.295C289.347 284.778 286.936 284.778 286.454 284.226C285.903 283.537 278.671 270.309 276.467 265.831C275.434 263.764 272.748 258.734 270.544 254.6C268.34 250.466 264.758 243.783 262.623 239.58C260.488 235.377 257.802 230.279 256.562 228.212C255.391 226.145 253.876 223.182 253.187 221.736C251.534 218.222 248.503 212.848 248.09 212.848C247.815 212.848 243.544 215.121 234.866 219.875C232.593 221.115 230.596 222.149 230.458 222.149C230.251 222.149 229.08 222.838 227.703 223.665C226.325 224.491 223.364 226.076 221.091 227.247C218.818 228.35 216.752 229.59 216.476 229.866C216.132 230.417 216.27 231.244 217.854 235.929L219.644 241.303L224.053 241.647C226.876 241.854 229.08 242.336 230.32 242.818C232.8 243.714 235.761 246.401 236.795 248.537C237.828 250.742 242.373 263.212 243.338 266.588C244.026 269 245.06 272.307 250.776 289.669C253.049 296.697 256.493 307.445 259.73 317.918C264.069 331.835 265.378 335.625 265.929 336.038C267.1 336.934 272.128 338.656 274.883 339.139C281.977 340.379 291.275 337.072 298.989 330.457C304.362 325.841 311.249 317.436 311.249 315.437C311.249 314.059 309.94 310.821 307.185 305.309C302.984 296.904 302.295 294.079 302.02 283.744C301.744 272.514 302.571 268.518 308.563 252.189C313.729 238.202 314.968 234.826 315.313 234.137C315.657 233.517 316.002 233.448 317.586 233.448C319.996 233.448 320.341 233.862 320.134 236.618C319.996 238.202 319.445 240.269 318.068 243.921C309.872 265.486 308.081 271.342 307.53 278.508C306.841 286.5 308.907 295.388 313.384 303.931C316.002 308.961 316.346 310.132 316.759 315.506C316.897 317.918 317.104 319.985 317.241 320.123C317.379 320.26 318.963 319.916 320.823 319.571C325.644 318.538 333.703 318.331 338.386 319.02C342.519 319.709 344.723 320.329 359.255 325.221C365.179 327.219 370.276 328.873 370.482 328.873C370.758 328.873 370.895 328.321 370.895 327.288C370.895 326.392 371.033 325.428 371.171 325.221C371.309 325.014 374.477 324.188 378.127 323.43C381.778 322.672 385.91 321.845 387.288 321.501C388.665 321.225 394.52 320.054 400.374 318.882C406.229 317.711 413.323 316.333 416.078 315.782C424.067 314.128 429.784 313.026 439.013 311.51L447.623 310.132L446.108 304.965C445.281 302.071 443.904 297.593 443.077 294.975C442.251 292.356 441.011 287.947 440.322 285.329C439.633 282.711 438.6 278.783 438.049 276.717C436.534 271.067 435.294 264.659 435.294 262.592C435.294 260.388 435.776 259.974 438.049 259.974C439.564 259.974 440.804 260.87 440.804 261.972C440.804 262.317 441.011 263.695 441.355 264.935C442.939 272.1 443.972 276.303 444.799 279.059C445.281 280.782 446.383 285.053 447.416 288.567C448.932 293.941 450.516 299.315 453.133 307.652L453.684 309.374L455.13 309.168C459.47 308.617 473.314 307.239 474.967 307.239C476.62 307.239 477.377 308.065 477.377 309.788C477.377 312.199 476.826 312.613 473.382 312.888C468.837 313.233 453.408 315.093 448.449 315.851C446.039 316.195 440.391 317.229 435.845 318.056C431.299 318.882 425.652 319.916 423.241 320.329C417.387 321.363 385.773 327.701 381.02 328.804C376.681 329.837 376.888 329.562 377.439 333.282C377.783 335.556 377.99 336.865 379.505 346.924C380.056 350.851 380.745 355.743 381.089 357.948C381.365 360.153 381.64 362.219 381.778 362.495C381.984 363.322 383.293 363.391 398.652 363.804C405.884 364.011 412.083 364.286 412.427 364.355C413.254 364.631 461.949 365.044 471.523 364.907C475.104 364.7 479.443 364.562 481.096 364.355ZM523.937 363.115C524.075 362.013 524.488 356.708 524.833 351.265C525.177 345.891 525.728 338.656 526.072 335.211C526.554 329.562 527.45 317.987 528.276 307.445C528.483 305.24 528.758 301.589 528.965 299.315C529.172 297.042 529.516 292.908 529.654 290.152C529.86 287.396 530.205 283.262 530.343 280.988C530.48 278.715 530.894 273.754 531.031 270.102C531.376 263.901 531.376 263.006 530.825 260.801C529.792 256.667 528.552 254.6 525.935 252.671C523.593 251.017 520.976 250.122 516.499 249.571C512.71 249.088 503.068 248.882 503.068 249.226C503.068 249.295 503.412 250.466 503.894 251.844C510.713 272.376 515.328 293.941 517.532 315.437C518.083 320.812 518.014 333.696 517.325 337.209C516.636 340.861 515.397 345.27 514.088 348.509C512.022 353.469 506.649 359.877 501.966 362.977C500.037 364.286 499.968 364.355 500.864 364.493C501.415 364.562 506.718 364.7 512.779 364.7H523.662L523.937 363.115ZM534.131 361.462C534.337 359.532 534.682 355.743 534.819 352.849C535.715 340.103 535.853 338.036 537.919 314.266C538.263 309.926 538.952 303.105 539.296 299.109C540.536 285.811 540.949 280.988 541.707 269.964C542.051 264.866 542.051 264.453 541.363 261.834C540.33 257.838 538.47 255.358 535.646 253.842C534.957 253.498 534.957 253.567 535.853 255.909C536.679 258.321 536.748 258.665 536.679 265.624C536.679 269.62 536.472 275.132 536.266 277.888C536.059 280.644 535.715 285.053 535.439 287.74C535.233 290.358 534.751 296.353 534.406 301.038C534.062 305.723 533.511 311.579 533.373 314.128C533.167 316.678 532.822 320.398 532.684 322.396C532.478 324.394 532.133 328.39 531.996 331.215C531.445 338.381 530.343 353.194 529.929 357.741C529.723 359.808 529.585 362.219 529.585 363.115V364.7L531.582 364.838C532.615 364.907 533.58 364.975 533.649 364.975C533.717 364.975 533.924 363.322 534.131 361.462ZM71.6307 363.735C76.3831 361.324 77.2096 359.877 78.1739 351.471C78.3805 349.749 78.8626 346.097 79.2759 343.204C79.6203 340.379 80.0335 337.003 80.1713 335.625C80.309 334.316 80.5845 331.904 80.86 330.251C81.1355 328.666 81.4799 326.117 81.6177 324.739L81.8243 322.121L79.1381 321.914C77.6917 321.776 66.6716 321.707 54.825 321.707H33.0603V322.672C33.0603 323.223 33.4736 326.943 34.0935 330.871C35.2643 339.139 36.3663 347.406 37.0551 353.125C37.8127 359.395 39.0525 361.668 42.8407 363.529L45.3202 364.769H57.5112H69.7022L71.6307 363.735ZM351.404 364.355C352.643 363.666 354.021 362.219 354.021 361.599C354.021 361.255 353.47 360.704 352.919 360.29C351.817 359.601 351.059 359.601 308.976 359.601H266.204L266.411 360.428C267.031 362.357 268.202 363.46 270.612 364.355C272.334 364.838 350.233 364.975 351.404 364.355ZM368.485 357.672C370.276 357.397 372.48 356.983 373.444 356.777L375.097 356.363L374.89 354.296C374.684 352.298 373.857 346.58 372.755 339.483C372.411 337.554 372.066 335.9 371.997 335.831C371.86 335.694 369.725 334.936 367.314 334.178C364.903 333.351 358.429 331.284 352.988 329.493C347.615 327.701 342.243 326.048 341.072 325.703C333.358 323.774 328.95 323.636 323.647 324.945L320.341 325.772H322.269C323.853 325.772 324.335 325.979 324.611 326.461C325.093 327.357 325.093 329.699 324.611 330.182C324.404 330.388 324.955 330.526 326.677 330.388C329.777 330.182 330.121 330.457 330.121 333.144C330.121 335.487 330.259 335.418 325.988 336.383C322.751 337.072 317.861 339.483 315.175 341.688C312.902 343.548 304.844 352.574 305.326 352.712C305.877 352.918 308.356 350.989 311.869 347.751C316.553 343.41 319.445 341.343 323.922 339.07C330.397 335.762 334.598 334.729 336.044 336.107C336.526 336.52 336.664 337.14 336.664 338.656C336.664 340.861 336.458 341.205 334.598 341.619C329.432 342.652 321.512 347.131 316.621 351.747C312.764 355.399 313.453 355.399 320.616 352.091C328.468 348.44 329.983 347.958 334.667 347.751C340.039 347.544 341.003 347.82 350.508 352.78C358.636 357.052 360.702 357.81 364.628 358.223C364.972 358.154 366.694 357.948 368.485 357.672ZM338.386 354.089L340.108 353.883L338.524 353.4C336.458 352.849 335.287 352.849 333.014 353.4C331.292 353.745 331.292 353.814 332.187 354.089C333.496 354.365 336.182 354.365 338.386 354.089ZM257.388 350.369C256.7 348.302 255.047 342.79 253.6 338.036C252.223 333.351 249.123 323.705 246.919 316.678C244.646 309.65 242.442 302.622 241.891 300.969C241.34 299.315 240.101 295.25 238.93 291.805C237.828 288.36 235.761 281.884 234.315 277.337C225.843 250.742 225.637 250.122 222.468 248.33L220.815 247.366L210.14 247.159C204.285 247.021 174.944 247.021 144.846 247.021C94.704 247.021 90.1582 247.159 88.8496 247.641C87.1966 248.33 86.0257 249.364 85.8191 250.466C85.6813 251.017 86.2323 253.084 87.1966 256.185C88.7118 260.801 90.3649 266.175 93.602 277.268C94.3596 279.886 96.2193 286.018 97.6657 290.703C99.1121 295.457 101.798 304.207 103.52 310.201C105.242 316.195 107.584 323.912 108.686 327.426C110.477 333.075 113.438 343.272 114.54 347.751C114.747 348.646 115.229 350.369 115.573 351.678L116.262 353.952H187.342H258.353L257.388 350.369ZM264.827 353.125C264.62 352.574 263.38 348.509 262.003 344.03C260.625 339.552 258.559 333.351 257.595 330.182C256.562 326.943 255.735 324.463 255.666 324.532C255.598 324.601 256.286 326.943 257.113 329.768C258.008 332.593 259.73 338.174 260.901 342.17C262.141 346.166 263.312 350.024 263.587 350.782C264.551 353.332 264.827 354.089 264.965 354.089C265.102 354.021 265.034 353.607 264.827 353.125ZM289.967 352.849C289.967 351.471 291.137 346.511 292.033 343.893L292.653 342.17L290.035 342.997C282.803 345.27 275.778 345.615 268.753 343.893C267.995 343.686 267.995 343.755 268.477 345.202C268.753 346.028 269.373 347.958 269.855 349.542C270.337 351.058 270.888 352.78 271.095 353.194L271.439 354.089H280.737H289.967V352.849ZM298.92 350.989C299.816 350.093 302.02 347.544 303.811 345.27C306.91 341.343 310.56 337.692 312.902 335.831L313.935 335.005L312.558 335.831C309.114 337.761 307.599 339.139 298.438 348.853C295.752 351.747 295.477 352.16 296.028 352.367C297.13 352.78 297.267 352.712 298.92 350.989ZM310.285 330.733C310.974 330.388 313.384 329.217 315.657 328.184C319.721 326.392 321.374 325.428 319.652 325.91C316.07 326.943 307.599 331.629 306.703 333.075C306.566 333.282 307.048 333.007 307.805 332.386C308.425 331.904 309.596 331.077 310.285 330.733ZM61.0238 315.575C61.9192 314.748 61.9881 314.404 61.9881 312.268V309.857L60.955 311.579C59.9907 313.302 59.1642 316.54 59.7841 316.54C59.9218 316.471 60.5417 316.058 61.0238 315.575ZM250.156 306.687C248.71 302.002 247.401 298.282 247.332 298.351C247.264 298.42 248.366 302.347 249.881 306.963C251.327 311.648 252.636 315.369 252.636 315.3C252.774 315.231 251.603 311.372 250.156 306.687ZM73.8347 311.924C76.452 310.683 79.6203 307.652 80.9289 305.034C81.8932 303.105 83.2707 298.006 82.9263 297.662C82.6508 297.386 77.554 298.902 75.8321 299.729C73.2148 301.038 70.1843 303.725 69.1512 305.654C68.1869 307.514 67.2226 311.51 67.6359 312.544C67.9803 313.439 71.2863 313.095 73.8347 311.924ZM47.9375 310.477C48.6262 307.928 46.6288 303.105 43.736 300.142C42.0142 298.42 37.6061 295.732 35.2643 295.043L33.4736 294.492V295.801C33.4736 302.691 37.675 308.41 44.4937 310.89C47.1798 311.855 47.5931 311.786 47.9375 310.477ZM65.0875 300.211C66.9471 297.799 68.3935 296.766 72.3883 294.768C74.1791 293.872 75.8321 292.839 75.9699 292.494C76.3831 291.53 76.5897 285.467 76.2454 285.467C76.0387 285.467 74.3168 286.225 72.4572 287.189C69.4267 288.636 68.6002 289.256 66.5339 291.53C65.2252 292.977 63.6411 294.975 63.0212 295.939C62.1258 297.524 60.8861 300.9 60.8861 301.796C60.8861 301.933 61.506 302.071 62.1947 302.071C63.5034 302.002 63.7789 301.864 65.0875 300.211ZM247.057 296.697C246.988 296.146 246.781 295.801 246.713 295.87C246.644 296.008 246.713 296.421 246.781 296.904C246.85 297.455 247.057 297.799 247.126 297.731C247.264 297.662 247.195 297.179 247.057 296.697ZM58.1999 291.667C60.4728 289.532 62.4013 285.673 62.4013 283.4C62.4013 280.575 60.8861 276.51 58.5443 273.134C57.3046 271.342 57.2357 271.411 54.6873 275.27C50.4859 281.608 50.4859 286.156 54.5495 291.599C55.3072 292.632 55.9959 293.459 56.2025 293.459C56.2714 293.39 57.1668 292.632 58.1999 291.667ZM238.861 271.205C238.31 269.62 237.828 268.311 237.828 268.38C237.759 268.449 238.103 269.896 238.585 271.48C239.067 273.134 239.55 274.443 239.618 274.374C239.687 274.236 239.343 272.858 238.861 271.205ZM233.144 213.812C235.899 212.365 238.93 210.712 239.894 210.161L241.616 209.127L240.514 206.509C239.894 205.131 239.274 203.202 239.136 202.375C238.172 195.072 237.346 191.558 235.555 187.7C233.833 184.048 231.422 181.154 224.121 174.264C220.815 171.164 216.889 167.306 215.236 165.652C212.826 163.172 212.275 162.758 212.068 163.241C211.242 164.688 213.928 169.579 218.336 174.747C221.091 178.054 221.16 178.261 221.022 184.393C220.815 190.456 220.678 190.593 218.129 190.593C215.856 190.593 215.581 190.111 215.581 185.908V182.395L214.134 182.119C210.14 181.499 201.53 179.707 198.224 178.812C191.337 177.02 189.27 176.331 185.138 174.471C182.865 173.438 181.005 172.68 180.936 172.749C180.661 173.024 186.86 176.4 189.959 177.641C196.847 180.465 198.637 181.017 202.012 181.017H205.112L205.181 182.808C205.249 184.461 205.112 184.944 203.183 188.526C201.255 192.178 200.704 193.901 199.464 199.619L199.12 200.997L197.329 201.066C195.056 201.204 191.199 200.101 187.48 198.31C184.311 196.725 180.592 193.625 177.148 189.629C175.84 188.182 174.531 186.804 174.187 186.597C173.429 186.184 171.845 186.184 171.638 186.597C171.363 187.011 173.567 190.456 175.84 193.349C180.041 198.517 186.378 203.891 191.543 206.509C195.607 208.576 205.594 212.021 212.757 213.881C218.474 215.259 218.887 215.604 219.989 218.015L220.884 220.082L224.535 218.084C226.463 217.326 230.389 215.259 233.144 213.812ZM390.732 207.611C397.068 206.302 404.231 203.202 410.361 198.999C414.149 196.45 417.111 193.763 420.555 189.698C424.136 185.564 425.376 183.772 424.894 183.497C424.687 183.428 422.277 182.808 419.591 182.188C413.736 180.879 413.047 180.672 412.427 179.639C410.981 177.365 409.466 164.274 409.121 151.39C409.121 151.183 408.777 151.115 408.433 151.115C406.849 151.115 406.504 147.739 407.882 145.672C408.364 144.983 409.672 143.26 410.843 141.813C413.392 138.851 416.147 134.648 417.662 131.616C418.833 129.343 421.863 120.179 421.863 119.077C421.863 117.492 423.792 117.285 427.442 118.388C428.958 118.87 430.266 119.077 431.093 118.939C437.154 117.906 443.008 109.224 442.457 102.059C441.975 96.6159 438.118 92.6198 434.123 93.3777C432.608 93.7222 430.128 95.858 428.269 98.614C427.029 100.405 426.891 100.474 425.376 100.474C424.481 100.474 423.654 100.268 423.379 100.061C423.172 99.7852 422.965 98.6829 422.965 97.4427V95.3068H421.588C420.348 95.3068 411.394 96.4781 409.672 96.8915C409.053 97.0293 408.846 97.5116 408.502 100.405C406.573 115.839 401.407 120.455 386.943 120.041C375.786 119.697 371.446 116.941 367.865 108.053C367.314 106.606 366.625 104.47 366.35 103.23C366.005 101.508 365.799 101.025 365.041 100.75C364.146 100.405 359.875 100.681 359.531 101.094C359.393 101.232 359.187 101.921 359.118 102.61L358.911 103.919L360.84 103.988L362.768 104.057L362.906 106.331C363.044 109.293 362.561 110.878 360.495 115.356C358.773 119.077 358.773 119.077 359.393 119.835C360.22 120.73 362.493 121.833 363.595 121.902C364.008 121.902 364.628 122.246 365.041 122.591C366.005 123.555 366.005 126.38 365.041 127.207C363.457 128.654 357.12 126.793 354.71 124.106C353.47 122.66 352.781 120.455 353.126 118.457L353.332 117.01L352.368 117.63C348.442 120.248 345.962 120.868 339.557 120.799C337.009 120.799 333.84 120.593 332.532 120.386L330.259 119.972L330.465 121.213C330.603 121.902 331.016 124.313 331.499 126.587C333.909 138.851 338.868 147.532 347.547 154.766C351.886 158.418 354.021 159.796 358.36 162.001C365.661 165.652 371.791 165.997 379.711 163.31C382.26 162.414 390.387 158.762 391.627 157.867C393.624 156.489 395.484 155.8 396.93 155.869L398.377 155.937L398.515 158.004L398.652 160.071L396.448 162.621C387.977 172.611 379.367 177.641 369.587 178.398C367.52 178.605 366.832 178.743 366.763 179.156C366.694 179.501 366.556 181.223 366.419 183.152C366.143 187.493 365.73 188.182 363.663 188.182C362.148 188.182 361.046 187.493 360.702 186.46C360.564 186.115 359.462 186.391 356.569 187.148C354.365 187.769 352.506 188.32 352.368 188.389C352.023 188.595 353.47 192.729 354.641 195.072C355.192 196.312 356.845 198.172 358.911 200.239C361.804 203.064 362.699 203.753 365.454 205.131C372.686 208.507 381.502 209.403 390.732 207.611ZM194.918 195.072C194.918 194.796 194.987 194.383 195.125 194.038C195.262 193.694 194.849 193.349 193.678 192.936C191.543 192.178 187.548 190.593 185.827 189.836L184.449 189.215L186.102 190.8C187.824 192.454 189.959 193.763 192.576 194.796C194.436 195.692 194.918 195.692 194.918 195.072ZM197.398 187.148L197.949 185.977L196.64 185.702C192.507 184.944 182.589 180.396 175.908 176.125C170.605 172.818 168.263 171.715 166.266 171.715C164.337 171.715 163.373 172.335 163.649 173.369C163.855 174.058 164.062 174.058 166.748 173.92C171.225 173.644 172.947 174.402 181.832 180.879C186.033 183.979 188.375 185.219 193.058 186.942C194.987 187.631 196.571 188.251 196.709 188.251C196.778 188.32 197.122 187.837 197.398 187.148ZM171.569 181.43H172.947L171.776 180.534C169.985 179.156 167.712 178.467 167.092 178.95C166.748 179.294 166.679 179.57 166.955 180.121C167.781 181.637 168.332 182.05 169.227 181.706C169.779 181.568 170.812 181.43 171.569 181.43ZM359.875 168.89C359.875 168.822 358.153 167.995 356.018 167.168C349.406 164.343 344.447 160.898 339.35 155.593C333.703 149.737 330.052 143.122 327.297 134.234C326.126 130.445 325.92 129.136 325.024 122.728L324.198 116.872L322.476 114.805C321.58 113.703 320.41 111.98 319.996 111.016C317.93 106.468 316.277 96.547 317.035 93.171C317.241 92.1375 317.586 90.3462 317.723 89.106C318.068 86.4189 318.757 84.9721 321.443 81.3205C325.093 76.4287 329.914 72.6393 336.526 69.4699C341.417 67.1274 342.863 66.5762 349.475 64.4403C359.118 61.3399 368.623 57.6883 373.582 55.2079C382.88 50.6606 390.318 44.5976 395.622 37.3632C397.068 35.3652 397.137 35.3652 398.79 35.3652C400.994 35.3652 401.201 35.7786 401.201 39.7747C401.201 52.5898 406.16 65.8872 414.976 76.911C418.213 80.976 421.863 84.5587 425.032 86.9012L428.062 89.1749L429.991 88.4859C431.437 87.9347 432.746 87.7969 435.294 87.7969C439.496 87.7969 441.424 88.417 443.835 90.6218C446.934 93.4466 448.105 96.8915 448.105 103.23C448.105 109.431 446.865 113.427 443.835 117.354C439.84 122.522 435.088 124.795 429.164 124.589L426.685 124.52L425.652 127.965C424.136 133.132 420.899 139.195 416.491 144.914C415.114 146.705 415.114 146.912 414.907 150.081C414.7 153.457 415.458 166.479 415.871 166.961C416.216 167.306 424.343 167.237 427.236 166.755C434.674 165.721 440.184 163.654 444.661 160.209C447.554 158.073 449.689 155.386 451.618 151.597C455.75 143.605 456.99 136.095 455.612 126.862C454.442 118.87 454.717 117.492 457.334 117.492C459.745 117.492 460.021 118.181 460.985 124.727C461.88 131.203 461.398 144.914 459.952 153.182L459.538 155.662L461.605 153.871C469.663 146.774 473.176 135.475 471.247 123.349C470.49 118.801 468.286 110.602 466.426 105.228C462.707 94.6868 459.676 84.0764 456.783 70.9168C455.199 63.8203 452.926 55.828 450.929 50.5229C444.73 33.5738 432.884 22.6879 418.075 20.0697C416.491 19.7941 414.494 19.5185 413.667 19.5185C412.221 19.5185 412.014 19.3807 409.19 16.487C405.746 13.0421 402.923 11.3885 397.068 9.39046C391.352 7.46131 387.908 6.97902 380.194 6.97902C374.133 6.97902 373.031 7.04792 368.967 7.9436C357.12 10.4239 346.513 15.109 338.042 21.5166C327.366 29.5777 319.308 40.5326 315.313 52.5898C313.04 59.4108 311.731 66.714 310.423 80.0114C309.045 93.9289 309.045 94.1356 305.257 109.224C302.846 119.077 300.987 128.929 300.987 132.305C300.987 137.197 302.777 144.363 305.119 148.703C306.979 152.148 311.249 156.833 314.211 158.487C314.417 158.556 314.211 157.247 313.798 155.524C312.558 150.495 311.938 146.154 311.869 140.849C311.8 136.784 311.869 135.888 312.351 135.612C313.04 135.13 315.244 135.199 315.933 135.681C316.277 135.888 316.897 137.473 317.31 139.195C319.239 146.567 322.338 152.079 327.573 158.004C329.295 160.003 333.427 162.827 336.595 164.343C341.279 166.548 344.516 167.444 352.299 168.615C354.228 168.959 359.875 169.166 359.875 168.89ZM344.723 114.736C349.544 113.289 352.161 109.707 353.332 102.748C353.814 99.992 353.608 96.4781 352.919 95.3757C351.679 93.3777 345.687 92.482 335.7 92.6198C331.774 92.6887 328.468 92.8265 328.33 92.9643C328.124 93.2399 328.675 106.331 329.157 110.602L329.363 112.945L331.085 113.634C334.185 114.943 335.907 115.218 339.35 115.287C341.623 115.287 343.552 115.081 344.723 114.736ZM392.316 114.254C398.79 112.876 401.407 109.569 402.785 101.163C403.611 96.1336 403.474 94.2045 402.44 93.171C400.719 91.4485 395.691 90.8973 386.599 91.5174C377.301 92.1375 373.444 93.2399 372.204 95.6513C370.482 98.9585 373.513 108.466 377.232 111.222C378.816 112.463 381.02 113.565 382.949 114.047C384.877 114.667 389.905 114.736 392.316 114.254ZM323.027 96.4781C323.027 95.238 322.889 94.6868 322.682 94.8246C322.338 95.1002 322.545 98.4073 322.889 98.4073C322.958 98.4073 323.027 97.5116 323.027 96.4781ZM366.212 94.8935C366.281 94.6179 366.556 93.7911 366.763 92.9643C367.314 90.8284 369.587 88.6237 371.929 87.9347C375.992 86.6945 381.089 86.2122 391.42 86.2122C400.925 86.2122 401.545 86.2123 403.887 86.9701C406.298 87.728 407.055 88.3481 408.502 90.4151L409.053 91.1729L413.392 90.5528C415.802 90.2084 417.869 89.9328 418.213 89.8639C418.557 89.795 418.213 89.3127 417.249 88.4859C414.356 86.0745 409.121 79.8736 406.711 76.0842C401.338 67.8164 398.17 59.8241 396.724 50.8673L396.104 47.009L395.209 47.7669C394.726 48.1803 393.487 49.3516 392.453 50.3162C385.428 56.7237 374.89 62.0978 358.498 67.6786C352.988 69.5388 346.927 71.6747 345.067 72.3637C340.384 74.0861 334.736 77.3932 331.43 80.2181C328.744 82.5606 328.675 82.5606 328.675 84.2831C328.675 85.1788 328.537 86.2123 328.468 86.4879C328.261 86.9012 328.468 87.039 329.157 87.039C329.983 87.039 330.052 86.9701 329.708 86.1434C329.019 84.4898 329.295 83.0429 330.259 82.2161C333.496 79.7358 338.73 78.22 343.965 78.4956C349.957 78.8401 352.299 80.2181 351.955 83.1807C351.61 85.8678 350.37 86.2123 346.376 84.7654C345.067 84.352 343.276 83.8697 342.381 83.8697C340.659 83.8697 336.802 85.1099 335.149 86.2122L334.116 86.9012L341.141 87.1079C349.957 87.3835 354.778 88.3481 356.845 90.2084C357.809 91.104 358.911 93.3777 358.911 94.549C358.911 95.238 359.049 95.3068 362.561 95.3068C365.041 95.3068 366.143 95.1691 366.212 94.8935Z" fill="black"/>
<path d="M164.957 317.573C162.202 316.678 160.067 315.3 158.001 313.095C155.728 310.683 154.832 308.823 154.144 305.654C153.179 301.107 153.799 296.215 155.728 293.321C157.036 291.392 160.893 288.843 163.373 288.291C166.128 287.671 171.914 288.085 174.393 288.98C177.355 290.152 180.454 292.632 182.107 295.181C184.173 298.282 184.793 300.486 184.793 304.896C184.793 308.203 184.724 308.685 183.76 310.752C183.14 311.992 182.314 313.508 181.763 314.059C180.592 315.437 177.837 317.022 175.357 317.711C172.74 318.4 167.437 318.331 164.957 317.573ZM174.6 311.51C177.492 309.994 179.765 306.205 179.214 303.862C178.319 300.142 175.495 296.284 172.465 294.768C169.296 293.114 166.266 293.045 163.648 294.423C161.582 295.526 159.103 299.66 159.103 301.933C159.103 304.689 161.995 308.892 165.301 311.097C168.676 313.164 171.087 313.302 174.6 311.51Z" fill="black"/>
<path d="M225.086 204.855C220.264 201.686 216.27 200.997 207.729 201.755C205.043 202.031 202.494 202.099 202.012 201.962C201.186 201.755 201.117 201.617 201.117 200.033C201.117 199.068 201.324 198.241 201.53 197.966C202.288 197.345 208.418 196.725 214.203 196.725C220.402 196.725 222.468 197.07 226.463 198.93C229.7 200.515 230.389 201.273 230.389 203.477C230.389 204.511 230.182 205.476 229.976 205.751C229.149 206.647 227.221 206.302 225.086 204.855Z" fill="black"/>
<path d="M361.115 148.359C355.261 146.912 349.82 140.918 349.268 135.337C348.924 132.03 348.855 132.03 356.363 132.305C363.457 132.581 367.452 132.305 375.304 130.927C378.059 130.445 381.158 130.101 382.191 130.169C384.12 130.238 384.12 130.238 384.464 131.547C385.359 135.337 381.227 142.571 376.199 145.947C373.237 147.945 371.171 148.496 366.625 148.634C364.283 148.634 361.873 148.565 361.115 148.359ZM369.38 142.709C371.791 142.02 373.719 140.573 375.579 138.368C376.405 137.335 377.094 136.439 377.025 136.439C377.025 136.439 374.959 136.715 372.48 137.059C369.587 137.473 365.936 137.748 362.079 137.748C358.773 137.748 356.087 137.817 356.087 137.955C356.087 138.368 358.153 140.711 359.393 141.469C362.286 143.536 365.454 143.88 369.38 142.709Z" fill="black"/>
<path d="M426.547 112.6C424.894 110.809 427.304 101.99 430.404 98.614C431.919 96.8915 433.572 96.2714 436.396 96.2714C439.771 96.2714 440.46 96.7537 440.46 99.0274C440.46 100.474 440.322 100.819 439.564 101.301C439.013 101.646 438.256 101.852 437.498 101.714C436.396 101.577 436.121 101.714 434.881 103.023C432.952 105.09 431.781 107.777 431.575 110.189C431.437 111.36 431.23 112.531 431.024 112.738C430.542 113.496 427.236 113.358 426.547 112.6Z" fill="black"/>
<path d="M428.131 163.447C427.924 163.172 427.718 162.276 427.718 161.38C427.718 160.002 428.062 159.038 429.577 156.213C432.539 150.632 434.743 143.26 435.225 137.335C435.501 133.821 435.638 133.545 437.843 133.545C438.876 133.545 439.84 133.752 440.115 133.959C441.217 135.061 440.115 144.983 438.187 150.908C436.809 155.386 434.123 161.105 432.815 162.69C431.988 163.654 431.644 163.792 430.197 163.792C429.302 163.861 428.407 163.723 428.131 163.447Z" fill="black"/>
<path d="M319.307 65.6116C318.619 64.9226 318.825 61.96 319.79 58.4462C321.374 52.5898 326.333 43.5641 331.361 37.501C334.804 33.2982 343.621 26.2017 348.442 23.7213C350.026 22.9635 352.574 22.7568 353.263 23.4457C353.745 23.8591 353.814 26.7529 353.401 27.373C353.263 27.5797 352.161 28.3375 350.921 29.1643C343.483 33.7116 335.769 41.0838 331.154 48.1803C329.57 50.5917 327.848 53.6233 327.228 55.0012C325.851 57.9639 324.06 63.2002 324.06 64.0958C324.06 64.4403 323.853 65.0604 323.509 65.4738C323.096 66.0939 322.613 66.2317 321.305 66.2317C320.478 66.025 319.583 65.8872 319.307 65.6116Z" fill="black"/>
<path d="M440.666 62.8557C440.46 62.4423 440.115 61.4777 439.978 60.7198C439.564 58.1706 437.36 52.1764 435.501 48.3181C431.575 40.257 425.789 34.4695 418.144 30.8179C415.045 29.3021 414.7 29.0265 414.7 27.7175C414.7 24.7548 417.386 24.2036 422.001 26.2706C427.649 28.7509 433.228 33.7805 437.498 40.3259C440.597 45.011 441.493 46.7334 442.87 50.7295C445.005 56.8615 445.832 62.2356 444.868 63.2691C444.661 63.5447 443.697 63.6825 442.801 63.6825C441.493 63.6136 441.08 63.4758 440.666 62.8557Z" fill="black"/>
<path d="M399.341 23.308C397.963 22.3434 393.349 20.7587 390.043 20.0008C388.527 19.6563 386.737 19.243 386.048 19.0363L384.739 18.7607V16.9693C384.739 14.3512 385.084 14.2134 389.01 14.489C393.9 14.7646 400.856 17.0382 403.336 19.0363C404.231 19.7941 404.713 22.1367 404.162 23.2391C403.473 24.2725 400.787 24.2725 399.341 23.308Z" fill="black"/>
<path d="M340.452 110.74C337.973 109.569 337.146 107.64 337.146 102.679C337.146 98.5451 337.697 96.7537 339.419 95.4446C341.348 93.9978 344.929 94.0667 346.858 95.6513C348.717 97.1671 349.268 98.8207 349.268 103.023C349.268 109.155 348.097 110.878 343.758 111.153C342.243 111.153 341.072 111.016 340.452 110.74Z" fill="black"/>
<path d="M382.811 110.327C381.433 109.707 379.987 107.984 379.505 106.4C379.023 104.677 379.023 99.5786 379.505 97.8561C379.712 97.0982 380.469 95.9269 381.227 95.1691C382.467 93.86 382.604 93.86 385.015 93.86C388.045 93.86 389.216 94.4112 390.387 96.3403C391.214 97.7183 391.283 98.2006 391.283 101.783C391.283 105.366 391.214 105.917 390.387 107.571C389.698 109.018 389.148 109.569 388.046 110.051C386.324 110.947 384.257 111.016 382.811 110.327Z" fill="black"/>
<path d="M395.346 84.9721C390.387 82.6295 386.392 82.0094 382.398 82.8362C377.714 83.8008 375.992 83.8697 375.441 83.1118C374.89 82.3539 374.89 79.4602 375.441 78.7023C376.13 77.6688 380.607 76.9799 385.979 76.9799C390.594 76.9799 391.214 77.0488 393.9 77.9444C397.55 79.1846 399.961 80.3559 400.443 81.2516C400.994 82.285 400.856 84.6276 400.236 85.2477C399.548 85.8678 397.206 85.7989 395.346 84.9721Z" fill="black"/>
<path d="M271.37 131.961C269.924 131.685 266.893 129.687 265.86 128.24C263.381 124.726 263.863 117.148 266.893 115.012C269.166 113.427 270.75 112.945 273.987 112.945C277.293 112.945 278.946 113.565 280.875 115.356C282.804 117.148 283.286 118.663 283.355 122.591C283.355 125.691 283.217 126.38 282.597 127.62C280.6 131.134 276.536 132.719 271.37 131.961ZM276.26 125.622C277.018 125.209 277.913 123.555 277.913 122.66C277.913 120.524 274.952 117.768 273.23 118.181C272.059 118.526 270.13 120.455 269.786 121.557C269.442 123.004 270.75 125.209 272.472 125.967C273.85 126.587 274.47 126.587 276.26 125.622Z" fill="black"/>
<path d="M246.23 118.801C242.442 117.974 238.654 115.012 237.07 111.429C236.175 109.5 236.106 108.949 236.106 105.504C236.106 101.99 236.106 101.577 237.139 99.4407C238.447 96.7537 241.271 93.9289 243.682 92.8265C245.128 92.1375 245.955 92.0686 250.156 92.0686C254.702 92.0686 255.047 92.0686 257.113 93.1021C259.592 94.2045 262.141 96.8226 263.38 99.3718C264.069 100.819 264.207 101.508 264.207 105.297C264.207 109.224 264.138 109.776 263.312 111.498C261.934 114.461 260.143 116.252 257.113 117.63C254.702 118.732 254.289 118.87 250.914 118.939C249.054 119.008 246.919 118.939 246.23 118.801ZM253.807 112.531C258.146 110.327 260.074 106.055 258.353 102.61C256.906 99.7852 253.325 97.3738 250.501 97.3738C248.917 97.3738 246.299 98.4073 244.646 99.6474C243.2 100.75 241.754 103.712 241.754 105.573C241.754 108.398 243.82 111.085 247.264 112.738C249.468 113.772 251.465 113.703 253.807 112.531Z" fill="black"/>
<path d="M4.27026 379.168V369.04L5.92328 368.834C8.47168 368.558 546.253 368.627 548.388 368.834L550.316 369.04L550.454 379.168L550.523 389.228H277.362H4.27026V379.168Z" fill="#CCCCCC"/>
<path d="M133.412 365.182C122.668 364.975 122.53 364.975 120.67 364.149C119.637 363.666 118.259 362.702 117.64 362.013C116.4 360.566 115.849 358.706 116.538 358.292C117.089 357.948 259.523 357.879 260.763 358.154C261.176 358.292 261.521 358.637 261.521 358.843C261.521 359.739 262.898 363.528 263.587 364.493L264.276 365.389H204.285C171.294 365.389 139.404 365.32 133.412 365.182Z" fill="#D7EFEF"/>
<path d="M356.914 365.389C356.914 365.32 357.258 364.7 357.602 364.149C357.947 363.529 358.291 362.702 358.291 362.288C358.291 361.599 358.429 361.599 362.561 361.737C366.143 361.875 367.589 361.737 371.515 360.979C374.064 360.497 376.337 360.084 376.543 360.084C376.75 360.084 377.094 361.048 377.301 362.288C377.507 363.46 377.783 364.7 377.852 365.044C378.058 365.596 377.37 365.595 367.52 365.595C361.666 365.527 356.914 365.458 356.914 365.389Z" fill="white" fill-opacity="0.9"/>
<path d="M437.016 365.182C423.379 365.044 411.739 364.838 411.188 364.7C410.637 364.562 404.3 364.355 397.206 364.149C382.053 363.735 380.813 363.597 380.538 362.84C380.4 362.495 380.125 360.428 379.849 358.292C379.298 354.021 377.783 343.617 377.232 340.172C376.199 333.833 375.854 331.353 375.785 329.837L375.717 328.115L378.816 327.357C382.604 326.392 416.147 319.64 422.07 318.607C424.481 318.193 430.128 317.229 434.674 316.333C447.76 313.922 459.952 312.199 472.418 311.097C475.104 310.89 475.38 310.752 475.862 309.857C476.344 308.961 476.344 308.823 475.655 308.203C474.966 307.514 474.897 307.514 469.456 307.996C461.88 308.685 454.51 309.581 453.408 309.719C452.582 309.857 452.513 309.719 451.893 307.859C451.549 306.756 450.516 303.449 449.62 300.486C448.725 297.524 447.141 292.288 446.176 288.774C445.212 285.26 444.11 280.988 443.559 279.266C442.526 275.545 440.804 268.173 439.427 261.559C439.082 259.767 436.189 259.836 436.189 261.697C436.189 262.868 437.774 270.378 438.944 274.787C439.495 276.854 440.529 280.781 441.217 283.4C441.906 286.018 443.49 291.392 444.661 295.319C447.209 303.656 449.069 310.132 448.931 310.27C448.863 310.27 444.868 310.959 440.046 311.786C430.748 313.302 425.1 314.335 416.973 316.057C414.218 316.609 407.193 317.987 401.269 319.158C395.415 320.329 389.561 321.432 388.183 321.776C386.874 322.052 382.742 322.947 379.023 323.705C375.303 324.463 372.204 325.29 371.997 325.497C371.86 325.703 371.791 326.737 371.997 327.839L372.204 329.768L370 329.286C368.829 329.01 363.25 327.219 357.671 325.359C340.177 319.502 337.491 318.813 330.879 318.813C327.435 318.813 321.58 319.709 318.137 320.743C317.103 321.087 316.208 321.294 316.139 321.156C316.07 321.087 315.864 318.882 315.657 316.195C315.313 310.477 314.968 309.305 312.282 304.207C307.599 295.388 305.532 286.156 306.359 277.13C307.048 269.551 308.632 264.246 316.897 242.336C319.514 235.24 319.652 233.724 317.517 233.724C316.346 233.724 316.966 232.346 309.596 252.533C303.742 268.518 302.777 272.996 303.053 283.055C303.328 292.219 304.086 295.457 308.218 303.587C311.456 309.994 312.282 312.268 312.282 314.748C312.282 316.609 312.144 316.884 310.078 319.778C304.361 327.839 297.474 333.902 290.449 337.003C285.076 339.414 279.428 340.31 274.607 339.621C271.783 339.207 267.031 337.692 265.378 336.589C264.345 335.969 263.931 334.867 258.766 318.262C255.46 307.79 252.085 297.042 249.812 290.014C244.164 272.583 243.062 269.344 242.373 266.933C241.409 263.626 236.863 251.086 235.83 248.882C234.797 246.677 231.835 244.059 229.356 243.163C228.047 242.681 225.912 242.267 223.088 241.992L218.749 241.647L217.44 237.996C216.752 235.997 215.787 233.104 215.374 231.519L214.616 228.763L215.581 228.074C216.132 227.73 218.267 226.49 220.402 225.387C222.537 224.354 225.292 222.838 226.463 222.08C227.634 221.391 229.562 220.358 230.596 219.875C231.698 219.324 234.453 217.877 236.726 216.568C240.169 214.57 247.815 210.436 248.71 210.023C249.054 209.885 252.498 215.879 254.22 219.531C254.978 221.184 256.631 224.285 257.733 226.352C258.903 228.419 261.59 233.586 263.794 237.72C265.929 241.854 269.51 248.606 271.714 252.74C273.918 256.874 276.605 261.903 277.638 263.97C280.462 269.551 287.143 281.815 287.762 282.366C288.107 282.78 288.451 282.78 289.14 282.504C290.862 281.677 290.38 280.575 281.77 264.177L279.36 259.492L280.875 256.529C282.183 253.98 283.974 250.88 292.102 237.858C293.823 235.033 298.645 227.936 302.64 222.287C315.382 204.166 323.027 197.277 337.697 191.076C341.692 189.422 347.202 187.493 347.34 187.7C347.34 187.7 347.615 188.664 347.891 189.698C349.131 194.865 352.919 201.066 356.845 204.373C360.771 207.68 366.694 210.298 373.168 211.607C377.094 212.365 385.704 212.296 390.731 211.47C398.859 210.092 407.95 206.302 414.287 201.548C418.695 198.241 424.136 192.66 427.855 187.562C429.577 185.15 431.299 183.152 431.575 183.152C432.263 183.152 446.107 187.148 449.414 188.32C455.957 190.593 463.051 193.556 466.15 195.21C472.625 198.723 477.721 203.477 481.854 209.816C485.573 215.397 492.736 231.175 496.318 241.923C503.963 264.315 510.782 292.908 512.917 311.717C513.812 319.365 513.812 331.215 513.055 335.831C511.333 346.166 506.58 353.883 498.866 358.981C495.147 361.393 492.323 362.633 488.053 363.666C481.096 365.389 475.38 365.527 437.016 365.182Z" fill="#CCA8D2"/>
<path d="M497.351 365.251L494.734 365.113L497.351 363.735C502.31 361.186 506.512 357.397 509.955 352.505C512.917 348.371 514.983 342.652 516.223 335.831C516.843 332.386 516.912 321.432 516.43 316.126C514.157 294.079 509.887 274.443 502.379 251.224C501.828 249.502 501.484 247.986 501.484 247.917C501.69 247.435 513.193 247.641 517.463 248.124C526.279 249.157 530.067 252.12 531.789 259.354C532.34 261.766 532.34 262.454 531.996 269.896C531.789 274.236 531.445 279.61 531.307 281.815C531.169 284.02 530.825 288.016 530.618 290.772C530.412 293.528 530.067 297.662 529.929 299.935C529.723 302.209 529.378 305.861 529.241 308.065C528.414 318.607 527.519 330.182 527.037 335.831C526.692 339.276 526.141 346.442 525.797 351.885C525.452 357.328 525.039 362.564 524.901 363.735L524.695 365.664L512.435 365.595C505.547 365.458 498.798 365.32 497.351 365.251Z" fill="white" fill-opacity="0.9"/>
<path d="M530.205 365.32L528.001 365.182L528.207 363.253C528.345 362.219 528.552 359.188 528.758 356.639C528.965 354.089 529.447 348.164 529.792 343.341C530.136 338.656 530.618 332.455 530.825 329.562C531.031 326.737 531.307 322.81 531.513 320.743C531.72 318.745 531.996 315.024 532.202 312.475C532.409 309.926 532.891 304 533.235 299.384C533.58 294.699 534.062 288.705 534.268 286.087C534.475 283.331 534.819 278.99 535.026 276.234C535.233 273.478 535.37 268.586 535.439 265.279C535.439 259.974 535.37 258.941 534.751 256.805C533.924 254.256 532.684 251.982 531.1 250.259L530.205 249.226L531.169 249.502C532.478 249.846 535.095 251.155 537.368 252.671C539.778 254.256 541.363 256.667 542.327 260.181C543.016 262.868 543.085 263.144 542.671 269.689C542.12 278.163 541.569 285.398 540.261 299.522C539.916 303.518 539.227 310.408 538.883 314.817C536.886 338.105 536.472 342.583 535.784 353.263C535.577 356.294 535.233 360.084 535.095 361.737C534.888 363.322 534.751 364.838 534.751 365.113C534.751 365.32 534.337 365.458 533.649 365.458C532.891 365.458 531.445 365.389 530.205 365.32Z" fill="white" fill-opacity="0.9"/>
<path d="M41.4631 363.942C39.4657 362.908 38.7769 362.357 37.9504 361.048C36.7107 359.188 36.0219 356.845 35.7464 353.814C35.4709 351.265 35.1265 347.958 33.198 333.971C32.4404 328.459 31.7516 323.085 31.6139 321.983L31.3384 319.985L56.8224 320.123C70.873 320.191 82.3752 320.329 82.513 320.467C82.7196 320.674 81.7554 330.32 81.5487 330.802C81.4799 330.94 81.2732 332.731 80.9977 334.798C80.7911 336.865 80.309 340.861 79.9646 343.755C79.5513 346.648 79.0692 350.3 78.8626 352.023C77.8983 360.428 77.0718 361.875 72.3194 364.286L70.322 365.32H57.2356H44.0115L41.4631 363.942Z" fill="#AFE0DF"/>
<path d="M269.304 364.7C266.618 363.735 265.309 362.151 264.827 359.326L264.551 358.017H308.494C356.018 358.017 353.883 357.948 354.847 359.739C355.674 361.324 354.365 363.666 352.161 364.838C351.61 365.113 340.246 365.182 310.973 365.182C277.293 365.182 270.475 365.113 269.304 364.7Z" fill="#D7EFEF"/>
<path d="M361.942 358.43C359.324 358.086 356.569 356.914 349.337 353.125C340.177 348.302 338.662 347.751 334.529 348.095C330.879 348.302 328.606 349.129 321.167 352.574C318.068 354.021 315.175 355.192 314.762 355.192C314.28 355.192 313.453 354.847 312.902 354.296L311.938 353.4L314.9 350.507C320.203 345.339 327.986 340.861 333.496 339.759C334.185 339.621 334.873 339.345 335.149 339.207C335.769 338.656 335.631 337.003 334.942 336.383C334.116 335.694 333.083 335.831 329.432 337.278C323.302 339.69 318.688 342.721 312.833 348.095C308.701 351.885 307.254 352.918 304.913 353.607C302.502 354.296 302.158 353.952 303.26 352.091C304.637 349.818 311.042 342.446 313.66 340.31C316.621 337.829 321.443 335.349 324.887 334.591C328.675 333.764 329.019 333.558 329.019 332.386C329.019 331.835 328.812 331.146 328.468 330.94C327.091 329.768 318.481 332.869 313.729 336.314C311.111 338.243 307.461 342.032 302.915 347.682C300.987 350.093 298.989 352.367 298.507 352.643C297.474 353.332 294.306 353.125 293.824 352.367C293.273 351.54 294.994 349.473 301.056 343.066C304.981 339.001 307.874 336.314 309.321 335.28C313.109 332.869 317.241 330.802 320.203 329.768C323.509 328.735 323.991 328.253 323.509 327.012C322.958 325.91 321.994 325.91 319.583 327.012C318.55 327.564 316.346 328.528 314.624 329.286C312.902 329.975 310.767 331.146 309.803 331.835C307.048 333.695 301.4 338.518 298.645 341.412C297.267 342.928 296.096 344.03 296.096 343.961C296.096 343.755 298.714 339.483 300.229 337.416C304.155 331.766 307.53 328.941 313.522 326.186C322.751 322.052 330.19 321.225 339.901 323.567C342.794 324.256 369.311 332.662 372.066 333.764C372.893 334.109 372.824 333.902 374.133 342.721C375.648 352.918 376.061 356.294 375.717 356.501C375.303 356.845 372.617 357.534 369.036 358.086C366.212 358.637 364.146 358.706 361.942 358.43Z" fill="#FFF2F3"/>
<path d="M187.273 354.641L115.229 354.503L114.54 352.16C114.196 350.92 113.645 349.198 113.507 348.302C112.405 343.824 109.374 333.627 107.653 327.977C106.551 324.463 104.209 316.746 102.487 310.752C100.765 304.758 98.0789 296.077 96.6325 291.254C95.1861 286.569 93.2576 280.437 92.5688 277.819C89.3317 266.657 87.6786 261.352 86.1634 256.598C83.8216 249.502 84.166 247.779 87.7475 246.126C89.2628 245.437 89.9516 245.437 144.157 245.368C174.324 245.299 204.147 245.368 210.484 245.505L221.917 245.712L223.57 246.677C226.67 248.537 226.945 249.088 235.417 275.683C236.863 280.23 238.93 286.707 240.032 290.152C241.134 293.597 242.442 297.662 242.993 299.315C243.544 300.969 245.748 307.996 248.021 315.024C250.294 322.052 253.256 331.697 254.702 336.383C257.457 345.477 259.868 353.194 260.212 354.227C260.419 354.572 260.281 354.778 260.006 354.778C259.523 354.71 226.876 354.641 187.273 354.641ZM174.118 316.057C176.597 315.368 179.352 313.784 180.523 312.406C181.074 311.786 181.901 310.339 182.52 309.099C185.207 303.449 182.865 296.008 177.355 291.736C174.6 289.669 171.914 288.636 168.539 288.429C165.095 288.223 162.96 288.774 159.998 290.634C157.036 292.563 155.728 294.423 154.97 297.662C154.281 300.555 154.281 300.969 154.97 304C155.659 307.238 156.623 309.03 158.827 311.441C162.891 315.851 168.745 317.642 174.118 316.057Z" fill="#D7EFEF"/>
<path d="M167.506 313.095C163.855 312.061 159.86 308.41 158.621 305.034C157.725 302.76 157.656 300.073 158.414 297.937C159.034 296.215 161.238 293.459 162.615 292.77C168.401 289.876 175.977 292.977 178.939 299.315C180.867 303.449 180.592 306.687 178.25 309.65C175.908 312.544 171.087 314.059 167.506 313.095Z" fill="white" fill-opacity="0.9"/>
<path d="M263.725 354.434C263.105 353.745 262.003 350.3 259.661 342.583C254.771 326.392 253.807 323.292 251.189 315.369C249.743 310.821 247.47 303.794 246.23 299.66C243.682 291.185 240.445 281.195 238.31 274.65C237.483 272.238 235.624 266.52 234.177 262.041C231.078 252.258 229.769 248.882 228.392 247.228C227.221 245.712 227.496 245.643 229.425 246.608C231.009 247.366 232.455 249.019 233.213 250.742C233.971 252.602 239.412 269 242.236 277.819C243.613 282.159 245.473 288.016 246.368 290.772C247.264 293.528 249.468 300.624 251.327 306.481C253.118 312.337 255.666 320.191 256.837 323.912C262.278 340.585 266.48 354.227 266.204 354.434C265.86 354.778 264.069 354.916 263.725 354.434Z" fill="#C4E8E7"/>
<path d="M324.887 354.434C325.093 354.296 326.608 353.607 328.399 352.918C334.047 350.782 339.419 350.989 343.207 353.538L344.723 354.572L341.279 354.641C333.978 354.778 324.611 354.71 324.887 354.434Z" fill="white" fill-opacity="0.9"/>
<path d="M269.786 353.607C269.579 353.056 269.304 352.229 269.097 351.747C268.684 350.507 265.998 341.55 265.998 341.274C265.998 341.137 266.273 341.137 266.618 341.274C268.891 342.514 277.156 343.548 280.806 342.997C285.696 342.446 291.826 340.448 294.719 338.656C295.408 338.174 295.959 337.967 295.959 337.967C295.959 337.967 295.339 339.207 294.581 340.448C293.824 341.757 292.997 343.548 292.722 344.375C291.688 347.751 290.724 352.367 290.862 353.332L291.069 354.365H280.599H270.199L269.786 353.607Z" fill="white" fill-opacity="0.9"/>
<path d="M66.6717 313.439C65.6386 312.406 66.4651 306.481 68.1181 303.725C69.2201 301.796 72.3195 299.246 75.0746 297.937C76.8653 297.11 82.3754 295.664 83.7529 295.595C84.5105 295.595 83.3396 302.347 81.9621 305.172C80.4469 308.479 76.7964 311.717 73.3527 312.957C71.2864 313.646 67.2227 313.991 66.6717 313.439Z" fill="#BF92C7"/>
<path d="M46.0779 312.061C40.8433 311.235 35.9532 307.721 33.8869 303.311C32.6471 300.762 32.2339 298.351 32.2339 294.975V292.425L33.3359 292.632C37.5373 293.528 42.152 295.939 44.6315 298.557C46.6978 300.693 48.2819 303.587 48.6952 306.205C49.1084 308.685 48.9018 311.51 48.213 311.992C48.0064 312.199 47.111 312.268 46.0779 312.061Z" fill="#FF8A8D"/>
<path d="M58.8888 303.518C58.4067 304.345 57.9934 305.309 57.9934 305.585C57.9934 305.585 63.0001 304.5 64.2611 302.76C65.5221 301.02 65.8452 300.762 65.8452 300.762C67.9115 298.213 69.2201 297.248 73.2838 295.181C75.0746 294.286 76.7276 293.252 76.8653 292.908C77.2097 292.081 77.5541 283.124 77.2786 283.124C76.7276 283.124 72.2507 284.984 70.1155 286.087C67.3605 287.465 63.5723 291.254 61.9193 294.217C60.7484 296.284 59.7842 299.315 59.7842 300.9C59.7842 301.52 59.3709 302.691 58.8888 303.518Z" fill="#FF8A8D"/>
<path d="M53.9986 292.977C49.4528 288.154 48.8329 280.919 52.4144 275.201C53.9985 272.583 56.8225 269.138 57.2357 269.138C57.7178 269.138 59.9219 272.238 61.2305 274.856C62.5391 277.474 63.2279 280.23 63.2279 282.986C63.2279 285.122 63.0901 285.811 62.057 287.947C61.3682 289.325 60.4729 290.841 60.0596 291.392C58.9576 292.632 56.3403 294.768 55.8582 294.768C55.6516 294.561 54.8251 293.872 53.9986 292.977Z" fill="#BF92C7"/>
<path d="M219.644 220.978C218.611 218.222 217.785 216.775 216.889 216.224C216.338 215.948 213.928 215.19 211.655 214.639C204.423 212.848 194.436 209.334 190.441 207.267C183.209 203.477 174.049 194.727 170.949 188.526C169.71 186.046 169.847 185.426 171.638 184.875C173.704 184.255 175.151 185.082 178.043 188.389C183.209 194.314 187.548 197.345 193.816 199.068C197.329 200.101 197.949 200.032 198.293 198.241C199.533 192.454 200.084 190.731 202.081 187.148C203.252 184.944 204.078 182.946 204.01 182.463C203.941 181.774 203.734 181.705 200.841 181.705C198.362 181.705 197.191 181.499 194.987 180.672C187.066 177.847 183.829 176.194 175.357 170.682C172.051 168.546 171.707 168.27 172.533 168.133C174.049 167.926 176.941 168.959 183.829 171.991C190.234 174.816 192.094 175.436 199.188 177.365C202.839 178.329 211.93 180.121 215.236 180.672L216.889 180.948L216.683 184.461C216.476 187.493 216.614 188.044 217.027 188.595C217.716 189.284 218.267 189.284 219.093 188.733C219.575 188.389 219.713 187.493 219.851 183.979C220.127 179.018 219.92 178.536 217.165 175.367C212.688 170.131 210.622 166.41 210.622 163.585C210.622 162.069 211.379 160.554 212.137 160.554C212.344 160.554 213.997 162.001 215.787 163.861C217.578 165.652 221.711 169.717 225.017 172.818C231.766 179.087 234.659 182.394 236.037 185.288C237.828 188.94 239.136 193.487 239.825 199.412C240.1 201.479 240.583 203.202 241.547 205.407C242.304 207.129 242.924 208.714 242.924 208.92C242.924 209.127 240.927 210.436 238.516 211.745C227.083 217.946 220.402 221.46 219.989 221.46C219.92 221.529 219.782 221.253 219.644 220.978ZM228.943 203.891C230.32 201.824 225.774 198.861 219.093 197.552C215.994 196.932 211.586 197.001 205.731 197.828C202.632 198.241 201.943 198.517 201.943 199.55C201.943 200.515 202.839 200.584 206.833 200.239C208.9 199.964 212.619 199.895 214.961 200.032C219.851 200.239 222.193 200.928 225.912 203.409C228.047 204.718 228.392 204.786 228.943 203.891Z" fill="#FFF2F3"/>
<path d="M375.717 208.783C371.584 208.3 367.796 207.198 364.146 205.407C361.322 204.029 360.426 203.34 357.602 200.515C355.329 198.241 353.952 196.519 353.263 195.141C352.092 192.798 350.233 187.148 350.508 186.804C350.646 186.735 352.781 186.046 355.329 185.357C357.878 184.668 360.22 183.979 360.633 183.841C361.253 183.635 361.391 183.841 361.528 184.668C361.666 185.357 362.079 185.839 362.699 186.115C364.214 186.804 364.765 185.702 365.11 181.499C365.248 179.501 365.385 177.709 365.454 177.365C365.592 176.951 366.281 176.745 368.278 176.607C376.199 175.987 383.293 172.542 390.181 165.997C394.451 161.932 397.275 158.487 397.275 157.315C397.275 155.869 396.517 155.8 394.313 157.04C391.076 158.831 384.533 162.001 381.984 162.965C372.617 166.41 365.316 166.272 357.189 162.207C352.85 160.14 350.715 158.693 346.376 155.042C338.042 148.083 333.083 139.54 330.534 127.896C329.708 124.106 328.675 117.699 328.881 117.492C328.95 117.423 329.432 117.492 330.052 117.768C333.703 119.146 341.761 119.49 345.756 118.457C350.095 117.354 353.814 114.461 355.398 111.153C356.294 109.224 357.533 104.608 358.016 101.163C358.291 99.3029 358.36 99.2341 359.669 99.0274C361.597 98.6829 365.179 98.6829 366.074 99.0274C366.763 99.3029 366.969 99.7163 367.314 101.439C367.865 104.195 369.518 108.329 371.033 110.74C373.995 115.632 378.678 117.837 386.875 118.181C391.351 118.388 394.106 117.906 397.757 116.528C403.129 114.53 406.091 108.949 407.399 98.5451C407.744 95.5824 407.95 95.1001 408.57 95.0312C410.912 94.4801 419.522 93.4466 421.657 93.4466H424.205L423.998 95.5135C423.654 99.0962 425.1 99.6474 427.098 96.7537C428.958 93.9978 431.437 91.8619 432.952 91.5174C437.911 90.5528 442.113 93.3777 443.146 98.3384C443.697 100.75 443.628 104.746 443.008 107.02C441.768 111.774 438.187 116.596 434.674 118.319C432.401 119.421 429.164 119.628 426.34 118.663C423.93 117.906 422.896 118.112 422.896 119.352C422.896 120.455 419.797 129.618 418.695 131.892C417.111 134.992 414.356 139.126 411.601 142.364C408.433 146.154 407.813 147.256 408.295 148.428C408.639 149.185 408.846 149.254 409.397 148.979C409.948 148.703 410.086 148.703 410.086 149.254C410.086 149.599 410.292 152.906 410.43 156.626C410.981 167.512 412.152 175.918 413.392 177.916C414.08 178.95 414.631 179.156 421.243 180.603C424.274 181.292 426.96 181.981 427.098 182.119C427.718 182.739 421.519 190.456 416.973 194.796C410.774 200.721 400.236 206.164 391.627 207.887C387.494 208.92 379.711 209.265 375.717 208.783ZM371.446 146.154C375.441 144.638 378.816 141.675 381.089 137.817C383.637 133.614 383.913 130.652 381.847 130.652C381.296 130.652 378.747 130.996 376.061 131.547C368.347 132.925 364.008 133.201 357.051 132.925C349.682 132.65 349.682 132.65 350.37 135.406C350.921 137.542 352.712 140.642 354.572 142.571C356.156 144.156 359.806 146.292 361.942 146.774C364.214 147.325 369.242 146.981 371.446 146.154ZM364.008 125.415C364.421 125.002 364.559 124.451 364.352 123.831C364.146 122.866 363.663 122.591 361.115 121.971C359.393 121.488 357.258 119.697 357.258 118.732C357.258 118.388 358.085 116.252 359.118 114.047C361.184 109.638 361.873 107.502 361.666 105.711C361.597 104.746 361.459 104.47 360.633 104.401C359.806 104.333 359.669 104.47 358.773 106.813C358.222 108.191 357.051 110.878 356.156 112.669C354.227 116.596 353.745 118.388 354.159 119.972C354.847 122.246 357.465 124.451 360.771 125.484C362.837 126.242 363.25 126.242 364.008 125.415ZM429.853 111.222C430.06 110.947 430.335 109.844 430.404 108.673C430.611 106.193 431.781 103.575 433.848 101.439C435.156 100.061 435.432 99.8541 436.74 99.9919C438.325 100.061 439.289 99.5785 439.289 98.5451C439.289 96.8915 435.845 96.2714 433.434 97.5116C430.817 98.8896 428.82 102.059 427.442 107.226C426.685 110.189 426.685 110.258 427.305 110.947C428.062 111.705 429.302 111.911 429.853 111.222Z" fill="#FFF2F3"/>
<path d="M361.184 143.398C358.567 142.571 356.569 140.987 354.985 138.506C354.158 137.335 353.539 136.233 353.539 136.095C353.539 135.957 353.952 135.888 354.503 136.026C356.707 136.646 366.349 136.301 372.273 135.337C375.51 134.855 378.472 134.303 378.954 134.234C379.642 134.028 379.642 134.234 378.334 136.233C376.612 138.988 374.339 141.4 372.617 142.364C369.104 144.018 364.421 144.5 361.184 143.398Z" fill="#FFA4A7"/>
<path d="M192.301 195.761C187.273 193.832 186.378 193.143 180.041 186.391C178.526 184.737 176.597 183.083 175.84 182.67C174.118 181.774 171.707 181.705 169.434 182.463C168.057 182.877 167.712 182.946 167.23 182.532C166.335 181.843 165.095 179.57 165.095 178.812C165.095 178.054 166.61 176.745 167.506 176.745C168.883 176.745 172.189 178.536 174.944 180.741C176.597 182.05 178.732 183.704 179.765 184.461C181.901 186.115 188.031 189.078 192.163 190.525C196.433 191.971 196.64 192.178 196.365 193.28C195.745 195.899 195.469 196.794 195.263 196.794C194.987 196.725 193.747 196.243 192.301 195.761Z" fill="#FFF2F3"/>
<path d="M196.433 189.215C196.158 189.009 194.367 188.32 192.439 187.7C187.686 186.046 184.862 184.599 180.592 181.43C174.875 177.296 172.396 175.711 170.398 175.022C168.125 174.264 167.023 174.196 165.026 174.885C163.304 175.505 162.891 175.229 162.133 173.162C161.72 171.853 161.72 171.784 162.478 171.095C163.511 170.131 165.921 169.786 167.988 170.268C170.054 170.682 172.258 171.853 176.459 174.471C183.003 178.605 191.75 182.739 197.329 184.117C198.362 184.393 199.395 184.668 199.395 184.806C199.602 185.013 197.466 189.56 197.191 189.56C197.053 189.491 196.709 189.353 196.433 189.215Z" fill="#FFF2F3"/>
<path d="M351.059 169.166C343.276 167.995 340.039 167.099 335.356 164.894C332.187 163.447 328.055 160.485 326.333 158.556C320.823 152.355 317.723 146.43 315.588 137.955C315.037 135.612 313.109 135.13 312.695 137.197C312.489 138.299 312.971 145.741 313.522 148.565C313.935 150.908 315.037 155.455 315.933 158.625C316.277 159.934 316.484 160.967 316.346 160.967C316.208 160.967 314.624 160.003 312.902 158.9C309.321 156.489 305.739 152.699 303.948 149.254C301.4 144.431 299.816 137.679 299.816 131.754C299.816 127.345 301.4 118.457 304.086 107.64C307.874 92.5509 307.874 92.4131 309.252 78.4267C310.285 67.6786 310.836 63.958 312.213 58.1017C313.935 50.6606 315.726 45.9755 318.756 40.5326C323.44 32.3337 329.294 25.6505 336.871 19.9319C345.342 13.5244 355.949 8.90819 367.796 6.35894C371.928 5.46326 372.824 5.39436 380.056 5.39436C388.872 5.39436 392.04 5.80775 397.963 7.80581C403.818 9.80386 406.642 11.4574 410.086 14.9712C412.978 17.7961 413.185 18.0028 414.563 18.0028C415.389 18.0028 417.386 18.2784 418.971 18.554C433.779 21.1721 445.625 32.0581 451.824 49.0071C453.822 54.3123 456.095 62.3045 457.679 69.3321C460.64 82.4228 463.602 93.1021 467.321 103.644C469.25 108.949 471.385 117.148 472.143 121.764C472.418 123.555 472.694 126.862 472.694 129.136C472.694 139.333 469.87 146.981 463.946 152.906C461.673 155.18 457.954 158.073 457.61 157.729C457.472 157.66 457.61 157.04 457.816 156.351C458.987 152.837 460.296 139.884 460.296 132.994C460.296 126.449 459.125 119.146 458.023 118.319C457.197 117.699 457.059 117.699 456.301 118.595C455.681 119.284 455.75 119.49 456.508 125.071C458.023 135.888 456.783 143.88 452.375 152.286C447.967 160.76 440.46 165.377 428.269 167.168C426.891 167.375 423.172 167.581 420.141 167.65L414.631 167.719L414.425 166.066C413.874 161.725 413.529 151.735 413.736 148.565C413.943 145.12 414.012 145.052 415.32 143.191C419.866 137.197 423.034 131.272 424.618 125.76C425.238 123.624 425.858 121.971 425.996 122.039C426.822 122.591 431.093 122.797 432.677 122.453C439.082 121.144 444.937 114.736 446.452 107.433C447.416 102.886 447.003 97.8561 445.35 94.3423C444.317 91.9997 441.424 89.4505 439.151 88.5548C436.534 87.5902 432.608 87.8658 429.991 89.1749L428.062 90.2084L425.238 88.1414C413.874 80.0114 404.231 65.1293 401.407 51.5563C400.581 47.698 400.168 43.4952 400.168 40.1192C400.168 35.1585 399.134 34.4006 396.655 37.7766C391.351 45.011 383.913 51.074 374.615 55.6213C369.724 58.1017 360.22 61.6844 350.508 64.8537C343.689 67.0585 342.381 67.6097 337.215 70.0211C332.256 72.4326 327.917 75.533 324.955 78.7712C322.545 81.3894 319.652 85.6611 319.101 87.3835C318.756 88.6237 318.756 88.8304 319.307 89.4505C319.652 89.795 319.79 90.1395 319.583 90.1395C319.17 90.1395 318.205 92.2064 317.93 93.6533C317.448 96.2714 319.514 106.468 321.236 109.776C321.58 110.465 322.614 111.98 323.509 113.083L325.162 115.081L325.988 120.937C326.884 127.414 327.159 128.654 328.261 132.443C331.016 141.331 334.667 147.876 340.315 153.802C345.342 159.107 350.302 162.552 356.982 165.377C361.115 167.168 361.804 167.65 361.804 168.684C361.804 169.304 361.528 169.373 357.465 169.304C354.916 169.442 352.092 169.304 351.059 169.166ZM431.506 161.174C434.054 158.142 437.705 148.152 438.669 141.676C439.564 135.337 439.358 134.028 437.636 134.028C436.603 134.028 436.258 134.786 436.052 137.817C435.57 143.742 433.434 151.115 430.404 156.695C428.475 160.347 428.2 161.174 428.958 161.863C429.646 162.552 430.542 162.345 431.506 161.174ZM322.269 63.6825C322.614 63.2691 322.82 62.649 322.82 62.3045C322.82 61.4088 324.68 56.1725 325.988 53.2788C326.608 51.9697 328.399 48.8693 329.914 46.4578C334.598 39.2924 342.794 31.438 349.957 27.3041C352.299 25.9261 352.919 24.8237 352.023 23.928C351.335 23.1702 350.439 23.5147 346.858 25.6505C341.141 29.0954 334.391 35.1585 330.672 39.9814C327.71 43.9775 324.818 48.7315 322.889 52.9343C321.58 55.7591 319.79 61.6155 319.79 62.9935C319.721 64.5092 321.374 64.9915 322.269 63.6825ZM443.697 61.5466C444.248 60.8576 443.766 57.8261 442.251 53.141C440.735 48.387 439.289 45.4244 436.258 40.8082C431.919 34.1939 426.271 29.1643 420.624 26.684C417.524 25.306 416.629 25.2371 415.94 26.2706C415.251 27.2352 415.596 27.5797 418.695 29.0954C426.478 32.7471 432.264 38.6034 436.258 46.7334C438.187 50.5917 440.391 56.5859 440.735 59.1352C441.217 61.6844 442.664 62.8557 443.697 61.5466ZM402.716 21.7922C403.336 20.6209 402.372 19.5185 399.479 18.0717C395.002 15.798 387.219 14.1445 386.048 15.109C385.772 15.3846 385.497 15.8669 385.497 16.3492C385.497 17.2449 385.359 17.176 390.869 18.3473C394.175 19.1052 398.79 20.6898 400.168 21.6544C401.407 22.619 402.234 22.619 402.716 21.7922Z" fill="#3D3D3D"/>
<path d="M333.152 115.287C332.256 115.012 330.879 114.598 329.845 114.185L328.124 113.496L327.917 111.36C327.435 107.088 326.815 91.7241 327.022 91.4485C327.159 91.3107 330.948 91.1729 335.493 91.104C346.72 90.9662 352.506 91.793 353.745 93.86C354.434 94.8934 354.641 100.336 354.09 103.299C352.85 110.258 350.302 113.841 345.48 115.287C343.276 115.907 335.493 115.976 333.152 115.287ZM345.894 108.535C346.445 108.191 347.133 107.226 347.409 106.468C348.098 104.677 348.098 100.336 347.409 98.6139C345.894 95.0312 342.381 93.86 339.901 96.0647C337.422 98.2695 337.284 105.297 339.626 107.984C341.141 109.638 343.965 109.913 345.894 108.535Z" fill="white" fill-opacity="0.9"/>
<path d="M381.64 114.598C376.405 113.152 373.375 110.189 371.515 104.608C370.275 100.888 370 95.858 370.964 94.0667C372.204 91.7241 375.992 90.5528 384.533 89.9328C396.241 89.0371 402.371 89.7261 403.749 91.9997C404.644 93.4466 403.956 102.334 402.509 106.606C401.063 111.085 398.101 113.565 393.211 114.667C390.731 115.218 383.706 115.15 381.64 114.598ZM386.737 108.604C388.941 107.571 389.974 105.228 389.974 101.37C389.974 98.8896 389.836 98.2695 389.078 96.9604C388.045 95.2379 386.737 94.4801 384.739 94.4801C383.499 94.4801 383.086 94.6868 381.984 95.7891C380.469 97.236 379.918 98.9585 379.918 101.714C379.918 105.228 381.227 107.846 383.568 108.811C384.946 109.362 385.084 109.362 386.737 108.604Z" fill="white" fill-opacity="0.9"/>
<path d="M323.096 104.884C322.063 101.646 321.167 96.4781 321.167 94.549C321.167 93.5844 321.374 93.2399 322.269 92.6887C322.889 92.3442 323.509 92.1375 323.647 92.2753C323.853 92.5509 324.404 107.846 324.198 107.846C324.06 107.846 323.578 106.537 323.096 104.884Z" fill="white" fill-opacity="0.9"/>
<path d="M357.809 95.7891C357.74 95.5135 357.465 94.6868 357.258 93.7911C356.638 91.5174 355.192 90.0706 352.643 89.3127C348.58 88.0036 346.582 87.7969 336.802 87.6591C331.499 87.6591 327.159 87.4524 327.022 87.3835C326.884 87.3146 326.953 85.7989 327.09 84.0075L327.297 80.8382L329.914 78.5645C333.152 75.8086 338.868 72.4326 343.552 70.7101C345.48 70.0211 351.472 67.9542 356.983 66.025C367.865 62.3045 375.786 58.8596 381.64 55.2768C386.392 52.452 388.321 50.9362 392.66 46.9401C394.726 45.0799 396.379 43.633 396.379 43.8397C396.379 45.1488 398.239 54.5879 398.928 56.8615C402.44 68.4365 409.604 79.6669 418.557 87.4524C419.797 88.5548 420.83 89.5883 420.83 89.7261C420.83 90.1395 407.606 91.8619 407.4 91.4485C407.4 91.2418 406.849 90.4151 406.16 89.6572C405.264 88.4859 404.576 88.0036 402.716 87.3146C400.374 86.4878 400.099 86.4189 391.145 86.4878C381.709 86.4878 376.474 87.039 372.548 88.2103C370.138 88.8993 367.934 91.0351 367.383 93.2399C367.176 94.0667 366.901 94.9623 366.832 95.169C366.763 95.4446 365.73 95.5824 363.319 95.5824C361.391 95.5824 359.393 95.6513 358.842 95.7891C358.291 96.2025 357.947 96.0647 357.809 95.7891ZM333.978 84.6276C338.111 82.2161 342.932 81.7339 347.064 83.1807C348.786 83.8008 349.475 83.8697 349.819 83.5941C351.266 82.4228 350.302 80.6315 347.753 79.8047C343.621 78.3578 338.317 78.8401 333.703 81.1827C330.534 82.7673 329.914 83.3185 330.397 84.6276C330.81 85.73 332.05 85.73 333.978 84.6276ZM399.066 83.5252C400.65 81.9405 398.583 80.2181 392.798 78.4267C388.114 76.9799 384.533 76.911 378.334 78.22C376.13 78.6334 375.441 79.598 376.13 81.1827C376.474 81.9405 376.681 82.0783 377.507 81.8716C382.811 80.7693 384.188 80.5626 386.599 80.7693C389.836 81.0449 392.522 81.7339 395.484 83.0429C398.101 84.2142 398.377 84.2831 399.066 83.5252Z" fill="#FFF2F3"/>
<path d="M321.787 88.8304C321.787 88.6926 322.2 88.0725 322.682 87.3146C323.578 86.0056 323.578 86.0056 323.44 86.9701C323.371 87.5213 322.958 88.2103 322.545 88.4859C322.131 88.7615 321.787 88.8993 321.787 88.8304Z" fill="white" fill-opacity="0.9"/>
<path d="M271.301 126.518C269.579 125.691 268.477 123.831 268.477 121.557C268.477 119.559 269.579 117.906 271.646 116.872C273.023 116.183 273.367 116.114 274.676 116.459C276.605 116.941 278.258 118.732 278.809 120.73C279.222 122.177 279.153 122.522 278.602 123.969C278.051 125.278 277.638 125.76 276.398 126.38C274.469 127.345 273.161 127.345 271.301 126.518Z" fill="white"/>
<path d="M246.024 113.22C241.478 111.085 239.412 106.951 240.651 102.61C241.478 99.7853 242.924 98.1317 245.473 96.8226C252.291 93.5844 259.868 97.7872 259.868 104.746C259.868 109.913 256.08 113.703 250.501 113.978C248.297 114.116 247.677 113.978 246.024 113.22Z" fill="white"/>
<path d="M197.12 55.6878C197.41 55.1951 197.493 55.1572 199.735 54.2097C200.773 53.7928 202.227 53.1106 203.015 52.6558C205.091 51.4808 208.579 49.9269 208.953 50.0027C209.492 50.1164 205.299 52.5041 202.351 53.7928C200.898 54.3992 199.32 55.1572 198.822 55.3467C198.282 55.5741 197.659 55.8394 197.41 55.9153C196.954 56.0669 196.912 56.029 197.12 55.6878Z" fill="white" fill-opacity="0.9"/>
<path d="M196.629 40.9536C188.175 35.317 185.037 29.4299 188.217 25.2964C188.677 24.7119 189.473 24.0021 190.142 23.668C191.188 23.0835 191.44 23 193.072 23C194.536 23 195.039 23.0835 195.876 23.501C197.173 24.1691 198.387 25.4216 198.763 26.3819C199.098 27.384 199.349 27.6763 199.81 27.6763C200.228 27.6763 200.354 27.5093 201.693 25.4216C202.781 23.7515 203.869 23.0835 205.459 23.0835C207.384 23.1253 209.017 24.1691 209.686 25.8392C210.105 26.8412 210.105 29.1376 209.686 30.5572C209.309 31.7263 207.761 34.1479 206.506 35.5257C204.706 37.4463 199.642 41.6216 198.596 41.9974C198.47 42.0391 197.55 41.5798 196.629 40.9536Z" fill="#FFA4A7"/>
<path d="M196.549 45.3763C195.996 45.0712 194.72 44.1124 193.657 43.3279C186.595 37.8802 184 33.9578 184 28.7716C184 25.3722 185.191 23.0624 187.786 21.4062C190.679 19.4886 195.528 19.5322 198.336 21.537C198.847 21.9292 199.4 22.365 199.57 22.5394C199.825 22.8444 199.953 22.8009 200.633 22.1471C201.059 21.7113 201.867 21.1012 202.462 20.8397C203.356 20.3603 203.824 20.2731 205.568 20.2731C208.163 20.2731 209.269 20.6653 210.758 22.06C212.374 23.5853 212.885 24.8056 212.97 27.7692C213.055 29.7304 212.97 30.3405 212.587 31.6044C211.396 35.3525 209.694 37.6623 205.185 41.6282C199.782 46.1608 198.719 46.6838 196.549 45.3763ZM200.038 40.713C207.057 35.5268 210.63 30.0355 209.184 26.6361C208.588 25.1543 206.844 23.7597 205.525 23.7597C204.547 23.7597 203.228 24.8056 202.335 26.2003C200.803 28.6844 200.888 28.5537 199.782 28.5537C198.676 28.5537 198.464 28.3793 198.081 27.2026C197.485 25.3722 195.06 23.6725 192.976 23.6725C190.636 23.6725 188.169 25.808 187.658 28.2922C187.446 29.2074 187.446 29.5996 187.786 30.602C188.594 33.1298 190.764 36.0062 193.954 38.6647C195.443 39.9286 198.208 41.9333 198.464 41.9333C198.464 41.8026 199.187 41.3232 200.038 40.713Z" fill="black"/>
</g>
<defs>
<clipPath id="clip0_220_2072">
<rect width="556" height="474" fill="white"/>
</clipPath>
</defs>
</svg>
