<svg width="46" height="50" viewBox="0 0 46 50" fill="none" xmlns="http://www.w3.org/2000/svg">
<g clip-path="url(#clip0_245_290)">
<path d="M3.33877 48.25C3.33877 46 3.33877 43.75 3.33877 41.375V39.625C3.33877 39.375 3.33877 39.25 3.33877 39.125C3.33877 34.125 3.33877 29.25 3.33877 24.25C3.33877 23.875 3.21511 23.625 2.9678 23.375C2.10221 22.75 1.36028 22.125 0.494684 21.5C-0.247251 21 -0.247251 20.375 0.494684 19.875C7.79038 14.5 15.0861 9.125 22.3818 3.75C22.8764 3.375 23.2474 3.375 23.742 3.75C25.5968 5.125 27.4517 6.5 29.1829 7.875C29.3065 8 29.5538 8.125 29.8011 8.375C29.8011 7.375 29.8011 6.375 29.8011 5.375C29.0592 5.25 28.9355 4.75 28.9355 4C28.9355 3.125 28.9355 2.125 28.9355 1.25C28.9355 0.5 29.1829 0.25 29.9248 0.25C32.6452 0.25 35.3657 0.25 38.0861 0.25C38.828 0.25 39.0753 0.5 39.0753 1.25C39.0753 2.25 39.0753 3.25 39.0753 4.25C39.0753 5 38.9517 5.125 38.2097 5.5C38.2097 6 38.2097 6.5 38.2097 6.875C38.2097 9.375 38.2097 11.875 38.2097 14.25C38.2097 14.625 38.3334 14.875 38.5807 15C40.8065 16.625 43.0323 18.25 45.2581 19.875C46.1237 20.5 46.1237 21 45.2581 21.625C44.3925 22.25 43.5269 22.875 42.785 23.5C42.6613 23.625 42.5377 23.875 42.5377 24.125C42.5377 29.25 42.5377 34.25 42.5377 39.375V41.5C42.5377 43.75 42.5377 46 42.5377 48.375V50.125H3.33877V48.25ZM40.9302 48.25C40.9302 48.125 40.9302 48 40.9302 47.875C40.9302 40 40.9302 32.125 40.9302 24.125C40.9302 23.75 40.8065 23.625 40.5592 23.375C36.1076 20.125 31.5323 16.75 27.0807 13.375C25.7205 12.375 24.4839 11.5 23.1237 10.5C23.0001 10.625 22.8764 10.625 22.8764 10.75C17.0646 15 11.3764 19.25 5.56458 23.5C5.31727 23.75 5.19361 23.875 5.19361 24.25C5.19361 32.125 5.19361 40 5.19361 47.75C5.19361 47.875 5.19361 48.125 5.19361 48.25C11.5001 48.25 17.6829 48.25 23.9893 48.25C23.9893 48 23.9893 47.75 23.9893 47.625C23.9893 41.375 23.9893 35.125 23.9893 28.875C23.9893 27.875 24.2366 27.625 25.2259 27.625C28.9355 27.625 32.6452 27.625 36.3549 27.625C37.3441 27.625 37.5915 27.875 37.5915 28.875C37.5915 35.125 37.5915 41.375 37.5915 47.625C37.5915 47.875 37.5915 48 37.5915 48.25C38.7044 48.25 39.8173 48.25 40.9302 48.25ZM25.5968 29.375C25.5968 35.75 25.5968 42 25.5968 48.25C29.0592 48.25 32.3979 48.25 35.7366 48.25C35.7366 41.875 35.7366 35.625 35.7366 29.375C32.3979 29.375 29.0592 29.375 25.5968 29.375ZM23.0001 5.375C16.0753 10.5 9.27425 15.625 2.34952 20.75C3.09146 21.25 3.70974 21.75 4.32802 22.25C4.57533 22 4.82264 21.875 5.06995 21.75C10.7581 17.5 16.4463 13.375 22.1345 9.125C23.0001 8.5 23.1237 8.5 23.9893 9.125C28.5646 12.5 33.1398 15.875 37.5915 19.125C38.9517 20.125 40.3119 21.125 41.7958 22.25C42.414 21.75 43.0323 21.25 43.7743 20.75C36.8495 15.625 29.9248 10.5 23.0001 5.375ZM31.5323 5.25C31.5323 6.625 31.5323 8 31.5323 9.375C31.5323 9.5 31.656 9.75 31.7796 9.875C33.2635 11 34.7474 12.125 36.2312 13.125C36.3549 13.25 36.4786 13.25 36.6022 13.375C36.6022 10.625 36.6022 8 36.6022 5.375C34.9947 5.25 33.2635 5.25 31.5323 5.25ZM30.6667 3.375C32.8925 3.375 35.242 3.375 37.4678 3.375C37.4678 2.75 37.4678 2.25 37.4678 1.75C35.242 1.75 33.0162 1.75 30.6667 1.75C30.6667 2.25 30.6667 2.875 30.6667 3.375Z" fill="#FF7C80"/>
<path d="M8.53223 34.5C8.53223 32.625 8.53223 30.625 8.53223 28.75C8.53223 27.875 8.77954 27.625 9.64513 27.625C12.8602 27.625 16.0752 27.625 19.2903 27.625C20.1559 27.625 20.4032 27.875 20.4032 28.75C20.4032 32.625 20.4032 36.375 20.4032 40.25C20.4032 41.125 20.1559 41.375 19.2903 41.375C16.0752 41.375 12.8602 41.375 9.64513 41.375C8.77954 41.375 8.53223 41.125 8.53223 40.25C8.53223 38.375 8.53223 36.375 8.53223 34.5ZM13.6021 29.375C12.4892 29.375 11.3763 29.375 10.2634 29.375C10.2634 30.875 10.2634 32.25 10.2634 33.625C11.3763 33.625 12.4892 33.625 13.6021 33.625C13.6021 32.125 13.6021 30.75 13.6021 29.375ZM18.7957 29.375C17.6828 29.375 16.5699 29.375 15.457 29.375C15.457 30.875 15.457 32.25 15.457 33.625C16.5699 33.625 17.6828 33.625 18.7957 33.625C18.7957 32.125 18.7957 30.75 18.7957 29.375ZM10.2634 35.375C10.2634 36.875 10.2634 38.25 10.2634 39.625C11.3763 39.625 12.4892 39.625 13.6021 39.625C13.6021 38.25 13.6021 36.75 13.6021 35.375C12.4892 35.375 11.3763 35.375 10.2634 35.375ZM18.672 39.625C18.672 38.125 18.672 36.75 18.672 35.375C17.5591 35.375 16.4462 35.375 15.3333 35.375C15.3333 36.75 15.3333 38.25 15.3333 39.625C16.4462 39.625 17.5591 39.625 18.672 39.625Z" fill="#FF7C80"/>
<path d="M28.0699 37.125C28.5646 37.125 28.9355 37.5 28.9355 38C28.9355 38.5 28.5646 38.875 28.0699 38.875C27.5753 38.875 27.2043 38.5 27.2043 38C27.328 37.5 27.699 37.125 28.0699 37.125Z" fill="#FF7C80"/>
</g>
<defs>
<clipPath id="clip0_245_290">
<rect width="46" height="50" fill="white"/>
</clipPath>
</defs>
</svg>
