<svg width="60" height="60" viewBox="0 0 60 60" fill="none" xmlns="http://www.w3.org/2000/svg">
<g clip-path="url(#clip0_275_333)">
<path d="M0 52.6374C0.32967 51.5934 0.494506 50.4945 0.934066 49.5055C2.41758 46.1538 5.10989 44.2857 8.62637 43.4615C10.2747 43.0769 11.978 42.6374 13.6264 42.2527C14.0659 42.1428 14.2308 41.9231 14.1758 41.4835C14.1209 40.9341 14.1758 40.3846 14.1758 39.8352C13.7363 39.8352 13.2967 39.8901 12.967 39.8352C11.8132 39.6154 11.0989 38.956 10.7692 37.8022C10.7143 37.5824 10.4945 37.3077 10.3297 37.1978C9.01099 36.3736 8.46154 34.945 8.84615 33.4615C8.9011 33.2967 8.9011 33.022 8.84615 32.8571C8.46154 31.978 8.02198 31.0989 7.74725 30.2198C7.47253 29.3406 7.36264 28.4066 7.14286 27.4176C6.75824 27.3626 6.31868 27.3626 5.93407 27.2527C4.12088 26.8132 2.96703 25.6593 2.58242 23.8461C2.1978 21.978 2.85714 20.4396 4.3956 19.3406C4.72528 19.0659 4.89011 18.8461 4.89011 18.4615C4.89011 17.1428 4.89011 15.7692 4.89011 14.3406C4.61538 14.3956 4.3956 14.4505 4.12088 14.4505C3.57143 14.5055 3.13187 14.2308 3.07692 13.7363C2.96703 13.2417 3.24176 12.8022 3.79121 12.6923C4.3956 12.6923 4.94506 12.3077 5.10989 11.5934C5.65934 9.45054 6.59341 7.47252 8.02198 5.65933C7.41758 5.60438 6.86813 5.54944 6.31868 5.49449C5.65934 5.43955 5.27473 5.05493 5.32967 4.50548C5.38462 3.95603 5.76923 3.68131 6.42857 3.73625C8.35165 4.01098 10 3.46153 11.5934 2.41757C18.5165 -2.08792 27.9121 -0.109902 32.4176 6.75823C32.5275 6.92307 32.6374 7.0879 32.7473 7.25274C33.9011 5.3846 35.2747 3.84614 37.033 2.58241C45.6593 -3.5165 58.0769 1.64834 59.7802 12.1428C60.2747 15.3297 59.8352 18.2967 58.4615 21.2088C58.2967 21.5934 58.022 21.9231 57.5275 21.9231C56.8681 21.9231 56.5385 21.2637 56.8132 20.5494C57.2528 19.3406 57.8022 18.1319 58.022 16.8681C59.3407 9.72526 54.1209 2.74724 46.8681 1.97801C39.6703 1.20878 33.2418 6.26373 32.5824 13.4066C32.0879 18.6264 34.1758 22.7472 38.5714 25.6044C39.1758 25.989 39.5604 26.3736 39.3956 27.1978C39.2308 28.1319 40.2198 28.9011 41.2088 28.6813C42.1429 28.5165 42.3077 28.5714 42.6374 29.5055C43.0769 30.6044 44.1209 31.3736 45.3297 31.3736C46.5385 31.3736 47.5824 30.6593 48.0769 29.5055C48.4615 28.6264 48.5714 28.5165 49.5055 28.6813C50.6044 28.9011 51.4286 28.1319 51.3187 27.033C51.2637 26.3736 51.4835 25.989 52.033 25.6593C52.8571 25.1099 53.5714 24.5055 54.3407 23.9011C54.8901 23.4615 55.3846 23.4066 55.7143 23.7912C56.0989 24.2308 56.044 24.7253 55.4945 25.2198C54.8352 25.7692 54.1758 26.2637 53.5165 26.8681C53.2967 27.033 53.1319 27.3626 53.0769 27.5824C52.9121 29.1758 51.6484 30.3846 50.0549 30.4945C49.6703 30.4945 49.4506 30.6044 49.2857 30.9341C48.5714 32.0879 47.7473 32.6374 45.8242 33.1319C46.044 34.1758 45.8791 35.1099 45.2198 35.989C44.7253 36.5934 44.1209 36.978 43.3517 37.1428C41.7582 37.4725 40.2198 36.6483 39.6703 35.1648C39.011 33.5714 39.6154 32.0879 41.3736 30.9341C41.3736 30.4945 41.0989 30.4945 40.7692 30.4396C39.1209 30.3297 37.9121 29.2308 37.6923 27.5824C37.6374 27.1428 37.5275 26.8681 37.1429 26.6483C36.8132 26.4835 36.5385 26.2088 36.2088 25.989C35.2198 27.033 34.011 27.5275 32.5824 27.4725C32.4725 28.0769 32.4725 28.6264 32.3077 29.1758C31.9231 30.3846 31.4286 31.5934 30.989 32.8022C30.8791 33.022 30.8242 33.2967 30.8791 33.5714C31.2637 35.0549 30.6593 36.4835 29.3407 37.3077C29.1758 37.4176 29.011 37.5824 28.956 37.7472C28.4066 39.3956 27.4725 40.0549 25.7692 39.945C25.7143 39.945 25.6044 39.945 25.4945 39.945C25.4945 40.6044 25.4945 41.2637 25.4945 41.9231C25.4945 42.033 25.7692 42.1978 25.9341 42.2527C28.0769 42.8022 30.2198 43.2967 32.3626 43.9011C36.3187 45 39.3407 48.6813 39.6703 52.8022C39.6703 52.8571 39.6703 52.967 39.6703 53.022C39.7253 53.7363 39.3956 54.1758 38.8462 54.1758C38.2967 54.1758 37.967 53.8461 37.9121 53.1319C37.6374 50 36.0989 47.5824 33.2418 46.1538C32.033 45.5494 30.6044 45.2747 29.2308 44.8901C27.967 44.5604 26.7033 44.2308 25.3846 43.9011C24.5055 46.7582 22.6374 48.5165 19.5604 48.3516C16.7582 48.2417 15.1099 46.5934 14.2857 43.9011C13.2418 44.1758 12.1978 44.3956 11.044 44.6703C11.4286 45.0549 11.7033 45.3846 12.033 45.6593C12.5824 46.2088 12.7473 46.8132 12.6374 47.5824C12.6374 47.8022 12.6923 48.022 12.8022 48.1868C13.3516 48.8461 13.4615 49.2308 13.0769 49.6703C12.8022 50 12.033 50.1099 11.5385 49.4505C11.4835 49.3956 11.4286 49.3956 11.3736 49.3407C10.989 49.7802 10.5495 50.1648 10.2198 50.4945C10.3846 50.9341 10.6044 51.3187 10.7143 51.7033C10.7692 51.8681 10.5495 52.0879 10.4396 52.2527C10.0549 52.6374 9.61539 52.5275 8.9011 51.9231C8.51648 52.3077 8.07692 52.7472 7.63736 53.1868C7.74725 53.2967 7.85714 53.4066 8.02198 53.6264C8.2967 54.011 8.2967 54.4505 7.96703 54.7802C7.63736 55.1099 7.1978 55.1648 6.86813 54.8352C6.42857 54.3407 5.87912 54.2308 5.21978 54.1758C4.83517 54.1209 4.3956 53.8461 4.06593 53.5714C3.35165 52.967 2.74725 52.2527 1.97802 51.5385C1.53846 53.8461 1.86813 56.0439 1.75824 58.2418C3.9011 58.2418 6.04396 58.2418 8.13187 58.2418C8.24176 57.5275 7.91209 56.5385 9.12088 56.5385C9.72528 56.5385 9.89011 56.8681 10 58.2418C12.967 58.2418 15.9341 58.2418 19.011 58.2418C19.011 57.6923 19.011 57.1978 19.011 56.6483C19.011 55.8242 19.3407 55.2198 20.0549 54.7253C20.2198 54.6154 20.3297 54.3956 20.3297 54.2308C20.3846 53.4066 20.6593 53.022 21.2088 53.022C21.7582 53.022 22.033 53.4066 22.0879 54.2308C22.0879 54.2857 22.0879 54.3407 22.1429 54.4505C22.6923 54.4505 23.2967 54.4505 23.9011 54.4505C23.9011 54.2308 23.9011 54.0659 23.956 53.9011C24.011 53.4066 24.3956 53.022 24.8352 53.0769C25.3297 53.1319 25.7143 53.4066 25.6593 53.9011C25.6593 54.4505 25.8791 54.7253 26.3187 55C26.8681 55.3297 27.0879 55.8791 27.1429 56.5385C27.1429 57.0879 27.1429 57.6923 27.1429 58.2967C28.022 58.2967 28.8462 58.2967 29.7253 58.2967C29.8352 57.6374 29.5055 56.5385 30.7143 56.5934C31.7582 56.6483 31.4835 57.5824 31.5934 58.2967C33.6813 58.2967 35.7692 58.2967 37.967 58.2967C37.967 58.022 37.967 57.7472 37.967 57.4725C38.022 56.9231 38.4066 56.5385 38.8462 56.5934C39.3407 56.5934 39.6703 56.978 39.6703 57.5275C39.6703 58.022 39.6703 58.4615 39.6703 58.956C39.7253 59.5055 39.5055 59.8901 39.0659 60.1099C26.044 60.1099 13.022 60.1099 0.0549451 60.1099C0 57.5275 0 55.1099 0 52.6374ZM6.53846 18.6264C6.92308 18.6264 7.25275 18.6264 7.58242 18.6264C8.62637 18.6264 8.84615 18.8461 8.84615 19.8901C8.84615 22.033 8.84615 24.1758 8.84615 26.2637C8.84615 28.5165 9.34066 30.5494 10.5495 32.4176C10.8242 32.8571 10.8242 33.2417 10.6044 33.6813C10.1099 34.6154 10.5495 35.5494 11.5385 35.8242C12.2527 36.0439 12.3626 36.2088 12.3626 36.978C12.3626 37.8571 13.0769 38.3516 13.9011 37.967C14.6703 37.5824 14.8352 37.6374 15.3846 38.2967C15.7692 38.7912 16.2088 38.8461 16.7582 38.6264C17.5275 38.2418 17.6923 38.2967 18.2418 38.956C19.1209 40 20.4945 40 21.3736 38.9011C21.8681 38.2967 22.1429 38.2417 22.8022 38.5714C23.4066 38.9011 23.7912 38.7912 24.2308 38.2417C24.7253 37.6374 24.9451 37.5824 25.6044 37.9121C26.4286 38.2967 27.1429 37.8571 27.1429 36.978C27.1429 36.2088 27.2527 36.0439 28.022 35.8242C29.011 35.5494 29.4506 34.6154 28.956 33.6813C28.7363 33.2417 28.7363 32.8571 29.011 32.4176C30.2198 30.4945 30.7692 28.4066 30.7143 26.1538C30.7143 24.011 30.7143 21.8681 30.7143 19.7802C30.7143 19.5055 30.7692 19.1209 30.9341 18.9011C31.2088 18.6264 31.2088 18.4066 31.0989 18.0769C30.4396 15.2747 30.5495 12.4725 31.5385 9.78021C31.6484 9.39559 31.6484 9.12087 31.4835 8.73625C28.4066 2.96702 21.5385 0.219769 15.3846 2.58241C8.02198 5.32966 5.87912 11.5385 6.53846 18.6264ZM15.989 40.6044C15.989 41.4286 15.9341 42.2527 15.989 43.022C16.1538 44.945 17.5275 46.3736 19.3956 46.5934C21.1538 46.8132 23.022 45.7143 23.4615 43.956C23.7363 42.8571 23.6813 41.7033 23.7363 40.6593C22.8571 40.2747 22.2527 40.6044 21.5934 40.989C20.3846 41.7033 19.0659 41.7033 17.9121 40.9341C17.3077 40.5494 16.7033 40.4396 15.989 40.6044ZM2.69231 49.7802C3.57143 50.6593 4.3956 51.4835 5.27473 52.3077C5.54945 52.5824 5.71429 52.5275 5.98901 52.2527C7.58242 50.6593 9.12088 49.1209 10.7143 47.5275C10.989 47.2527 10.989 47.033 10.7143 46.8132C10.2198 46.3187 9.78022 45.8242 9.23077 45.3846C9.12088 45.2747 8.9011 45.2198 8.79121 45.2198C6.0989 45.8791 4.06593 47.3077 2.69231 49.7802ZM7.08791 25.6593C7.08791 23.8461 7.08791 22.1428 7.08791 20.3846C5.98901 20.2747 5.16483 20.6593 4.61538 21.5385C4.01099 22.4725 3.95604 23.4615 4.56044 24.3956C5.10989 25.3297 5.93407 25.7692 7.08791 25.6593ZM25.3297 58.2418C25.3297 57.6923 25.3297 57.1978 25.3297 56.7033C25.3297 56.3736 25.2198 56.2088 24.8901 56.2088C23.6264 56.2088 22.4176 56.2088 21.1538 56.2088C20.989 56.2088 20.7692 56.4286 20.7143 56.5934C20.6593 57.0879 20.7143 57.6374 20.7143 58.1868C22.2527 58.2418 23.7912 58.2418 25.3297 58.2418ZM44.1758 33.9011C44.1758 33.0769 43.5165 32.4176 42.6923 32.4176C41.8681 32.4176 41.2637 33.0769 41.2088 33.8461C41.2088 34.6703 41.8132 35.3846 42.6374 35.3846C43.4615 35.3846 44.1758 34.7253 44.1758 33.9011ZM32.5824 21.8132C32.5824 23.1319 32.5824 24.3956 32.5824 25.6593C33.5714 25.7692 34.2857 25.4945 34.7802 24.7802C34.0659 23.7912 33.3517 22.8022 32.5824 21.8132Z" fill="#3D3D3D"/>
<path d="M37.1977 15.1099C36.5933 15.2747 36.1537 15.2197 35.879 14.7252C35.6043 14.1758 35.879 13.8461 36.2636 13.5164C39.0658 10.7692 41.8131 7.967 44.6153 5.1648C45.2746 4.5604 45.6043 4.50546 46.2636 5.1648C49.0658 7.967 51.868 10.7692 54.6153 13.5164C54.9449 13.8461 55.1647 14.2307 54.9449 14.7252C54.7252 15.2197 54.2307 15.2747 53.6812 15.1099C53.6812 15.3296 53.6263 15.4945 53.6263 15.6593C53.6263 16.8681 53.6263 18.0219 53.6263 19.2307C53.6263 19.4505 53.846 19.6703 53.901 19.8901C54.0109 20.1648 54.2307 20.5494 54.1757 20.7692C54.0658 21.0439 53.7362 21.2637 53.4614 21.4285C53.3515 21.4835 53.1867 21.4835 53.0768 21.4835C47.9669 21.4835 42.857 21.4835 37.7471 21.4835C37.6373 21.4835 37.4175 21.5384 37.3625 21.4835C37.0878 21.3186 36.7032 21.1538 36.6482 20.8791C36.5933 20.6044 36.7581 20.2747 36.923 19.945C36.9779 19.7802 37.1977 19.6703 37.1977 19.5055C37.1977 18.0219 37.1977 16.5934 37.1977 15.1099ZM48.1867 19.6153C49.4504 19.6153 50.6043 19.6153 51.8131 19.6153C51.8131 19.5055 51.868 19.4505 51.868 19.3956C51.868 17.4175 51.868 15.4395 51.868 13.4615C51.868 13.2967 51.7581 13.1318 51.6482 13.0219C49.6153 10.934 47.5274 8.84612 45.4395 6.75821C45.3296 6.8681 45.2197 6.92304 45.1647 6.97799C43.1867 8.95601 41.1537 10.989 39.1757 12.967C39.0109 13.1318 38.9559 13.4066 38.9559 13.6263C38.9559 15.4395 38.9559 17.2527 38.9559 19.0659C38.9559 19.2307 39.0109 19.3956 39.0109 19.5604C40.2746 19.5604 41.4285 19.5604 42.6922 19.5604C42.6922 18.7362 42.6922 18.0219 42.6922 17.2527C42.7471 15.6593 43.901 14.4505 45.4944 14.4505C47.0329 14.4505 48.2417 15.6593 48.2417 17.2527C48.1867 18.0769 48.1867 18.8461 48.1867 19.6153ZM46.4285 19.6703C46.4285 18.8461 46.4834 18.0219 46.4285 17.1978C46.4285 16.7033 45.934 16.3186 45.4395 16.3186C44.9449 16.3186 44.5054 16.6483 44.4504 17.1428C44.3955 17.967 44.4504 18.7912 44.4504 19.6703C45.1098 19.6703 45.7142 19.6703 46.4285 19.6703Z" fill="#3D3D3D"/>
<path d="M36.0988 35.3845C37.6373 35.3845 38.901 36.6483 38.901 38.1867C38.901 39.6702 37.6373 40.934 36.1538 40.934C34.6153 40.934 33.3516 39.7252 33.3516 38.1318C33.3516 36.5933 34.6153 35.3845 36.0988 35.3845ZM37.1428 38.1867C37.1428 37.6373 36.7032 37.1977 36.1538 37.1428C35.6043 37.1428 35.1647 37.5274 35.1098 38.0768C35.1098 38.6812 35.4944 39.1208 36.0988 39.1208C36.6483 39.1757 37.1428 38.7362 37.1428 38.1867Z" fill="#3D3D3D"/>
<path d="M16.1646 25.6838C15.429 25.6838 14.7393 25.4085 14.1876 24.9498C13.7738 24.5829 13.6819 24.1241 13.9577 23.7113C14.2336 23.2984 14.7393 23.2067 15.1991 23.5278C15.8888 24.0324 16.5324 24.0324 17.2221 23.5278C17.6819 23.2067 18.1876 23.2984 18.4635 23.7113C18.7393 24.0783 18.6934 24.5829 18.2336 24.9498C17.6359 25.4544 16.9462 25.6838 16.1646 25.6838Z" fill="#3D3D3D"/>
<path d="M23.3966 25.6838C22.6609 25.6838 21.9713 25.4085 21.4196 24.9498C21.0058 24.5829 20.9138 24.1241 21.1897 23.7113C21.4655 23.2984 21.9713 23.2067 22.431 23.5278C23.1207 24.0324 23.7644 24.0324 24.454 23.5278C24.9138 23.2067 25.4196 23.2984 25.6954 23.7113C25.9713 24.0783 25.9253 24.5829 25.4655 24.9498C24.8678 25.4544 24.1782 25.6838 23.3966 25.6838Z" fill="#3D3D3D"/>
<path d="M2.69238 49.7801C4.06601 47.3076 6.09898 45.8241 8.79128 45.2746C8.95612 45.2197 9.12095 45.3296 9.23084 45.4395C9.72535 45.879 10.2199 46.4285 10.7144 46.868C10.9891 47.1428 10.9341 47.3625 10.7144 47.5823C9.12095 49.1757 7.58249 50.7142 5.98909 52.3076C5.76931 52.5274 5.54953 52.5823 5.2748 52.3625C4.45062 51.5384 3.5715 50.6592 2.69238 49.7801Z" fill="white"/>
<path d="M25.3297 58.2417C23.7913 58.2417 22.2528 58.2417 20.7144 58.2417C20.7144 57.6922 20.6594 57.1977 20.7144 56.6483C20.7144 56.4835 20.9891 56.2637 21.1539 56.2637C22.4177 56.2087 23.6264 56.2637 24.8902 56.2637C25.2199 56.2637 25.3297 56.4285 25.3297 56.7582C25.3297 57.1977 25.3297 57.6922 25.3297 58.2417Z" fill="white"/>
<path d="M44.1758 33.901C44.1758 34.7252 43.4615 35.3845 42.6373 35.3845C41.8132 35.3845 41.1538 34.6702 41.2088 33.8461C41.2088 33.0219 41.8681 32.4175 42.6923 32.4175C43.5165 32.4175 44.1758 33.0768 44.1758 33.901Z" fill="white"/>
<path d="M48.1868 19.6154C48.1868 18.8462 48.1868 18.077 48.1868 17.3627C48.1868 15.7693 46.978 14.5605 45.4396 14.5605C43.9011 14.5605 42.6923 15.7143 42.6374 17.3627C42.6374 18.1319 42.6374 18.9011 42.6374 19.6704C41.4286 19.6704 40.2198 19.6704 38.9561 19.6704C38.9561 19.5055 38.9011 19.3407 38.9011 19.1759C38.9011 17.3627 38.9011 15.5495 38.9011 13.7363C38.9011 13.5165 39.011 13.2418 39.1209 13.077C41.0989 11.044 43.1319 9.06597 45.1099 7.08794C45.1649 7.033 45.2747 6.97805 45.3846 6.86816C47.4725 8.95608 49.5055 11.044 51.5934 13.1319C51.7033 13.2418 51.7583 13.4616 51.8132 13.5715C51.8132 15.5495 51.8132 17.5275 51.8132 19.5055C51.8132 19.5605 51.7583 19.6154 51.7583 19.7253C50.6044 19.6154 49.4506 19.6154 48.1868 19.6154ZM45.3846 12.5275C45.7693 12.5275 46.0989 12.5275 46.4835 12.5275C46.5385 12.5275 46.5385 12.5275 46.5934 12.5275C47.0879 12.4726 47.4176 12.0879 47.4726 11.6484C47.4726 11.1539 47.0879 10.7693 46.5934 10.7693C45.8242 10.7693 45.055 10.7693 44.3407 10.7693C43.7912 10.7693 43.4066 11.0989 43.4066 11.5934C43.4066 12.1429 43.7363 12.4726 44.3407 12.5275C44.6154 12.5275 45 12.5275 45.3846 12.5275Z" fill="white"/>
<path d="M46.4285 19.6703C45.7691 19.6703 45.1098 19.6703 44.4504 19.6703C44.4504 18.7911 44.3955 17.967 44.4504 17.1428C44.4504 16.6483 44.9449 16.3186 45.4395 16.3186C45.934 16.3186 46.4285 16.7032 46.4285 17.1977C46.4285 17.967 46.4285 18.7911 46.4285 19.6703Z" fill="white"/>
<path d="M37.1428 38.1868C37.1428 38.7362 36.6483 39.1758 36.0989 39.1758C35.4945 39.1758 35.0549 38.7362 35.1099 38.1318C35.1099 37.5824 35.5494 37.1428 36.1538 37.1978C36.7033 37.1978 37.1428 37.6373 37.1428 38.1868Z" fill="white"/>
<path d="M13.0769 29.6704C13.5714 29.5605 14.011 29.5055 14.4505 29.3957C14.6154 29.3407 14.7252 29.2308 14.8351 29.1209C16.0439 27.5275 17.6923 27.088 19.5055 27.8572C19.6703 27.9121 19.945 27.9121 20.1648 27.8572C21.8681 27.1429 23.6263 27.6374 24.7802 29.1209C24.8901 29.2858 25.1648 29.3957 25.3846 29.4506C25.7692 29.5605 26.1538 29.6154 26.6483 29.7803C26.8132 28.9561 27.1428 28.077 27.1978 27.1979C27.2527 24.8352 27.2527 22.4176 27.2527 20.055C27.2527 19.8352 27.1978 19.6154 27.0879 19.4506C26.8132 18.8462 26.5384 18.1869 26.2637 17.5825C25.8791 16.7583 25.8791 16.7583 25.0549 17.033C23.2417 17.6924 22.3626 19.011 22.0879 20.8242C22.0329 21.3187 21.923 21.7583 21.3736 21.9231C20.8241 22.088 20.5494 21.7034 20.2198 21.3737C19.5055 20.4946 19.011 19.5056 18.8461 18.3517C17.7472 19.011 17.0329 19.8902 16.6483 21.044C16.5934 21.1539 16.5934 21.3187 16.5384 21.4286C16.2637 22.2528 15.5494 22.4726 14.945 21.8132C14.1758 21.044 13.7912 20.055 13.5165 18.2968C12.8022 18.5165 12.4176 18.9012 12.4176 19.6154C12.4176 20.2748 12.4176 20.8792 12.4176 21.5385C12.4176 22.1429 12.0879 22.5825 11.5384 22.5825C10.989 22.5825 10.6593 22.1979 10.6593 21.5385C10.6593 20.9891 10.6593 20.4946 10.6593 19.9451C10.6593 17.9671 11.5384 16.8682 13.4615 16.4286C13.7912 16.3737 14.0659 16.3187 14.3956 16.2638C15.1648 16.2088 15.5494 16.7034 15.4395 17.4176C15.3846 17.9671 15.3846 18.5165 15.3296 19.066C15.3846 19.066 15.4395 19.066 15.4945 19.1209C15.7143 18.8462 15.8791 18.5715 16.0989 18.3517C16.978 17.3077 18.0769 16.5935 19.3406 16.1539C20.2198 15.8792 20.7143 16.3187 20.6593 17.2528C20.6044 17.7473 20.6593 18.1869 20.6593 18.6814C20.7143 18.6814 20.7692 18.6814 20.8241 18.7363C20.8791 18.6264 20.989 18.5165 21.0439 18.3517C22.1978 16.2088 24.011 15.2198 26.3187 15.0001C26.7582 14.9451 27.1428 15.1649 27.3077 15.5495C27.8571 16.7583 28.4066 18.022 28.9011 19.2308C28.956 19.3957 29.011 19.6154 29.011 19.7803C29.011 22.1979 29.011 24.6154 29.011 27.033C29.011 28.6264 28.4615 30.1099 27.5824 31.4836C27.1428 32.1979 26.5384 32.2528 25.989 31.6484C25.6593 31.2638 25.2747 31.099 24.7252 31.2088C24.1209 31.3737 23.7912 31.099 23.5714 30.6045C22.9121 29.1759 21.7033 28.8462 20.4395 29.7253C20 30.0001 19.6154 30.0001 19.1758 29.7253C17.9121 28.8462 16.6483 29.2308 16.0439 30.6594C15.8241 31.2088 15.4395 31.3737 14.8901 31.2638C14.3956 31.1539 14.011 31.2638 13.6813 31.6484C13.1318 32.3077 12.5274 32.2528 12.0879 31.5385C10.934 29.7803 10.5494 27.8572 10.6593 25.7693C10.6593 25.2748 11.0439 24.8902 11.5384 24.8902C12.0329 24.8902 12.4176 25.2748 12.4176 25.8242C12.4725 26.7034 12.5274 27.6374 12.6923 28.5165C12.7472 28.9012 12.967 29.3407 13.0769 29.6704Z" fill="#3D3D3D"/>
<path d="M19.8351 31.7583C20.6592 31.7583 21.3735 32.033 22.0329 32.5825C22.4724 32.9671 22.5274 33.4616 22.1977 33.8462C21.868 34.2308 21.4285 34.2308 20.934 33.9012C20.0548 33.2968 19.6702 33.2968 18.7911 33.9012C18.2966 34.2308 17.857 34.2308 17.5274 33.8462C17.1977 33.4616 17.2526 32.9671 17.6922 32.5275C18.1867 32.088 19.0109 31.7583 19.8351 31.7583Z" fill="#3D3D3D"/>
<path d="M45.3845 12.5275C44.9999 12.5275 44.6702 12.5275 44.2856 12.5275C43.6812 12.4726 43.3516 12.1429 43.3516 11.5935C43.3516 11.099 43.6812 10.7693 44.2856 10.7693C45.0549 10.7693 45.8241 10.7693 46.5384 10.7693C47.0878 10.7693 47.4724 11.1539 47.4175 11.6484C47.4175 12.088 47.0878 12.4726 46.5384 12.5275C46.4834 12.5275 46.4834 12.5275 46.4285 12.5275C46.0988 12.5275 45.7691 12.5275 45.3845 12.5275Z" fill="#3D3D3D"/>
</g>
<defs>
<clipPath id="clip0_275_333">
<rect width="60" height="60" fill="white"/>
</clipPath>
</defs>
</svg>
