<svg width="57" height="60" viewBox="0 0 57 60" fill="none" xmlns="http://www.w3.org/2000/svg">
<g clip-path="url(#clip0_275_748)">
<path d="M30.0258 0C32.0157 0.532939 33.9614 1.11029 35.9513 1.64323C41.8769 3.24204 47.7582 4.84086 53.6837 6.43967C56.3369 7.15026 57.4866 9.2376 56.7791 11.9023C52.7993 26.8246 48.8195 41.7469 44.8396 56.7135C44.2648 58.8009 42.6728 60.0888 40.6829 60C40.0638 59.9556 39.4447 59.7779 38.8699 59.6447C34.5805 58.49 30.3354 57.3353 26.046 56.1806C25.6922 56.0918 25.3385 56.0474 25.0289 56.0474C17.5115 56.0474 10.0382 56.0474 2.52077 56.0474C0.751959 56.0474 0.0444336 55.3368 0.0444336 53.5603C0.0444336 40.2369 0.0444336 26.869 0.0444336 13.5455C0.0444336 11.7691 0.796179 11.0141 2.56499 11.0141C9.28648 11.0141 16.008 11.0141 22.7295 11.0141C23.1717 11.0141 23.3485 10.8808 23.4812 10.4367C24.1003 8.03849 24.7636 5.68468 25.3827 3.33087C25.8249 1.64323 26.842 0.532939 28.5665 0.0888231C28.6108 0.0888231 28.655 0.0444115 28.6992 0C29.0972 0 29.5836 0 30.0258 0ZM2.03435 54.0044C2.29967 54.0044 2.52077 54.0044 2.69765 54.0044C12.5146 54.0044 22.2873 54.0044 32.1042 54.0044C33.873 54.0044 34.5805 53.2494 34.5805 51.5174C34.5805 39.5263 34.5805 27.5352 34.5805 15.544C34.5805 13.812 33.8288 13.057 32.1042 13.057C22.2873 13.057 12.4703 13.057 2.65343 13.057C2.43233 13.057 2.25545 13.057 2.03435 13.057C2.03435 26.7358 2.03435 40.3257 2.03435 54.0044ZM33.3423 55.9585C33.5634 56.0474 33.6519 56.0918 33.7403 56.0918C35.8187 56.6691 37.897 57.2021 39.9754 57.7794C41.4789 58.1791 42.4517 57.6018 42.8497 56.0918C44.8838 48.5418 46.8738 41.0363 48.9079 33.4863C50.8978 26.114 52.8435 18.7417 54.8334 11.3249C55.2756 9.72613 54.745 8.74907 53.153 8.34937C45.5029 6.30644 37.8086 4.2191 30.1585 2.17617C28.7434 1.77646 27.7706 2.35381 27.3726 3.77498C27.0631 4.84086 26.7977 5.86232 26.5324 6.9282C26.1786 8.26055 25.8249 9.59289 25.4711 10.9697C25.7364 10.9697 25.9575 10.9697 26.1786 10.9697C28.3012 10.9697 30.4238 10.9697 32.5464 10.9697C33.7403 10.9697 34.8458 11.2805 35.5534 12.2576C36.1724 13.1014 36.9684 13.3679 37.897 13.5899C38.2508 13.6788 38.6046 13.7676 38.9583 13.9008C39.3121 14.034 39.5332 13.9452 39.8427 13.6788C41.6115 11.9911 43.3804 10.3479 45.1492 8.70466C45.2818 8.57143 45.5472 8.39378 45.724 8.43819C46.2105 8.52702 46.6527 8.66025 47.1833 8.8379C45.9009 10.9252 44.707 12.9682 43.4246 15.0555C43.8668 15.1887 44.2205 15.2332 44.5743 15.3664C45.8567 15.9437 47.0064 15.8105 48.0677 14.8779C48.6426 14.3893 49.1732 14.567 49.7923 14.8335C49.3501 15.4996 48.9521 16.1658 48.4657 16.7876C48.1119 17.2761 47.9793 17.7202 48.0677 18.2976C48.1562 19.0526 48.1562 19.852 48.2004 20.607C47.1391 20.4737 47.1391 20.4737 46.6969 19.6743C46.4758 19.2302 46.2105 18.8305 45.9894 18.3864C45.9009 18.2531 45.8125 18.0755 45.724 18.0311C44.7954 17.7646 43.8226 17.4981 42.9382 17.2317C42.9382 19.7187 42.9382 22.0725 42.9382 24.4708C42.4517 24.5596 42.1422 24.4263 41.8326 24.4263C41.302 24.3819 41.0809 24.0711 40.904 23.5825C40.2407 21.3175 39.5332 19.0526 38.8699 16.832C38.8257 16.6543 38.693 16.3879 38.5603 16.3434C37.9855 16.1214 37.3664 15.9882 36.7031 15.8105C36.7031 21.1399 36.7031 26.336 36.7031 31.5322C37.3664 31.7098 38.0739 31.8875 38.7814 32.1096C38.4277 33.4863 38.0739 34.7742 37.7202 36.0622C37.3222 35.9734 37.0569 35.8845 36.7031 35.7957C36.7031 36.0622 36.7031 36.2842 36.7031 36.5507C36.7031 41.5692 36.7031 46.5433 36.7031 51.5618C36.6589 53.8712 35.6418 55.248 33.3423 55.9585Z" fill="#3D3D3D"/>
<path d="M2.03418 54.0043C2.03418 40.3256 2.03418 26.7356 2.03418 13.0569C2.25528 13.0569 2.47638 13.0569 2.65326 13.0569C12.4702 13.0569 22.2871 13.0569 32.104 13.0569C33.8728 13.0569 34.5803 13.8119 34.5803 15.5439C34.5803 27.535 34.5803 39.5262 34.5803 51.5173C34.5803 53.2493 33.8286 54.0043 32.104 54.0043C22.2871 54.0043 12.5144 54.0043 2.69748 54.0043C2.5206 54.0043 2.2995 54.0043 2.03418 54.0043ZM18.3073 17.1427C11.5416 17.1872 6.05823 22.6942 6.10245 29.4892C6.14667 36.2397 11.63 41.7467 18.3515 41.7023C25.1172 41.6579 30.6005 36.1065 30.5563 29.3559C30.4679 22.561 24.9845 17.0983 18.3073 17.1427ZM8.18081 49.8741C14.9907 49.8741 21.7564 49.8741 28.4779 49.8741C28.4779 49.2079 28.4779 48.5417 28.4779 47.8755C21.7122 47.8755 14.9465 47.8755 8.18081 47.8755C8.18081 48.5417 8.18081 49.1635 8.18081 49.8741Z" fill="white"/>
<path d="M33.342 55.9585C35.6857 55.2479 36.7028 53.8267 36.7028 51.4729C36.7028 46.4544 36.7028 41.4803 36.7028 36.4618C36.7028 36.2397 36.7028 36.0177 36.7028 35.7068C37.0566 35.7956 37.3661 35.8845 37.7199 35.9733C38.0736 34.6853 38.4274 33.3974 38.7811 32.0206C38.0736 31.843 37.4103 31.6654 36.7028 31.4433C36.7028 26.2472 36.7028 21.051 36.7028 15.7216C37.3661 15.8993 37.9852 16.0325 38.56 16.2546C38.6927 16.299 38.8254 16.5654 38.8696 16.7431C39.5771 19.0081 40.2846 21.2286 40.9037 23.4936C41.0364 24.0266 41.2575 24.293 41.8323 24.3375C42.1419 24.3819 42.4072 24.4707 42.761 24.5595C42.761 22.1613 42.761 19.7631 42.761 17.3204C43.6896 17.5869 44.6182 17.809 45.5469 18.1198C45.6795 18.1642 45.768 18.3419 45.8122 18.4751C46.0775 18.8748 46.2986 19.3189 46.5197 19.7631C46.9619 20.5625 46.9619 20.5625 48.0232 20.6957C47.979 19.8963 47.979 19.1413 47.8905 18.3863C47.8021 17.809 47.9348 17.3204 48.2885 16.8763C48.7307 16.2546 49.1287 15.5884 49.6151 14.9222C48.996 14.6113 48.4212 14.4781 47.8905 14.9666C46.8292 15.8993 45.6795 16.0325 44.3971 15.4551C44.0876 15.3219 43.6896 15.2331 43.2474 15.1443C44.4856 13.0569 45.7237 11.014 47.0061 8.92665C46.4755 8.79341 46.0333 8.61577 45.5469 8.52694C45.37 8.48253 45.1047 8.66018 44.972 8.79341C43.2032 10.4366 41.4344 12.0799 39.6656 13.7675C39.4002 14.034 39.1349 14.1228 38.7811 13.9896C38.4274 13.8563 38.0736 13.7675 37.7199 13.6787C36.7912 13.4566 35.9953 13.1902 35.3762 12.3463C34.7129 11.3693 33.5631 11.0584 32.3692 11.0584C30.2466 11.0584 28.124 11.0584 26.0015 11.0584C25.7804 11.0584 25.5593 11.0584 25.2939 11.0584C25.6477 9.68164 26.0015 8.3493 26.3552 7.01695C26.6206 5.95107 26.9301 4.8852 27.1954 3.86373C27.5934 2.44256 28.5663 1.86521 29.9813 2.26491C37.6314 4.30785 45.3258 6.39519 52.9759 8.43812C54.5678 8.88224 55.0984 9.81488 54.6562 11.4137C52.6663 18.786 50.7206 26.1583 48.7307 33.5751C46.7408 41.125 44.7067 48.6306 42.6725 56.1805C42.2746 57.7349 41.3017 58.2679 39.7982 57.8682C37.7199 57.3352 35.6415 56.7579 33.5631 56.1805C33.6516 56.0917 33.5189 56.0473 33.342 55.9585ZM38.8696 55.3811C40.1078 50.7623 41.3459 46.1879 42.5399 41.5691C41.8766 41.3915 41.2133 41.2138 40.55 41.0362C39.3118 45.655 38.0736 50.2294 36.8797 54.8482C37.5872 55.0258 38.2063 55.2035 38.8696 55.3811ZM42.7168 33.1309C42.363 34.5077 42.0092 35.7512 41.6555 37.0836C42.363 37.2612 42.9821 37.4389 43.6012 37.6165C43.9549 36.2842 44.3087 34.9962 44.6624 33.6639C43.9991 33.4418 43.3801 33.3086 42.7168 33.1309ZM46.0333 28.7342C45.8564 29.4004 45.6795 30.0221 45.5026 30.6883C46.1659 30.8659 46.785 31.0436 47.4483 31.1768C47.6252 30.4662 47.8021 29.8445 47.9348 29.1783C47.2714 29.0451 46.6966 28.9118 46.0333 28.7342ZM40.2404 27.1798C39.5771 27.0021 38.958 26.8245 38.2947 26.6469C38.1178 27.3574 37.941 27.9792 37.8083 28.601C38.4716 28.7786 39.0907 28.9563 39.7098 29.0895C39.8867 28.5121 40.0635 27.8904 40.2404 27.1798ZM41.6555 29.6668C42.363 29.8445 42.9379 29.9777 43.6012 30.1554C43.778 29.4448 43.9549 28.8674 44.0876 28.2013C43.4243 28.0236 42.8052 27.8904 42.1419 27.7127C42.0092 28.3789 41.8323 29.0007 41.6555 29.6668Z" fill="white"/>
<path d="M18.3071 17.1428C24.9844 17.0984 30.4677 22.5611 30.5562 29.356C30.6446 36.0622 25.1171 41.658 18.3513 41.7024C11.6299 41.7468 6.14654 36.2398 6.10232 29.4893C6.0581 22.7387 11.5414 17.1873 18.3071 17.1428ZM15.3886 31.9763C17.3785 31.9763 19.28 31.9763 21.2257 31.9763C21.491 30.3775 21.4468 28.7787 21.2699 27.1799C21.2699 27.0466 20.9603 26.9134 20.7835 26.869C19.3684 26.8246 17.9976 26.869 16.5825 26.869C16.2288 26.869 15.875 26.869 15.4328 26.869C15.3886 28.601 15.3886 30.2887 15.3886 31.9763ZM23.3482 26.9134C23.3482 28.6454 23.3482 30.2887 23.3482 31.9763C24.9402 31.9763 26.5321 31.9763 28.124 31.9763C28.6105 30.2887 28.6105 28.601 28.124 26.9134C26.5321 26.9134 24.9402 26.9134 23.3482 26.9134ZM13.3102 31.9763C13.3102 30.2887 13.3102 28.601 13.3102 26.869C11.8067 26.869 10.3032 26.869 8.79976 26.869C8.71132 26.869 8.53443 27.0022 8.49021 27.1354C8.09223 28.7343 8.09223 30.3775 8.53443 31.9763C10.1264 31.9763 11.7183 31.9763 13.3102 31.9763ZM20.8277 34.0636C19.1031 34.0636 17.4669 34.0636 15.7866 34.0636C16.2288 35.9733 16.8479 37.7054 17.8649 39.3486C18.086 39.7483 18.5282 39.7927 18.7493 39.393C19.7664 37.7942 20.4297 36.0178 20.8277 34.0636ZM20.8719 24.826C20.4739 22.8719 19.8106 21.0955 18.7493 19.4522C18.5282 19.097 18.1302 19.1414 17.9091 19.4967C17.5112 20.1628 17.1132 20.829 16.8479 21.584C16.4499 22.6499 16.0961 23.7158 15.7423 24.826C17.5112 24.826 19.1473 24.826 20.8719 24.826ZM9.37462 34.0636C10.3032 36.2842 13.1333 38.638 15.2559 39.0822C14.7253 37.4389 14.1504 35.7513 13.5756 34.0636C12.2489 34.0636 10.8339 34.0636 9.37462 34.0636ZM21.4026 39.0822C23.8789 38.3272 26.6205 36.0178 27.2396 34.0192C25.8688 34.0192 24.5422 34.0192 23.2156 34.0192C23.0829 34.0192 22.906 34.1969 22.8618 34.3301C22.4196 35.9289 21.9332 37.5277 21.4026 39.0822ZM21.3583 19.7187C21.9332 21.4508 22.5081 23.094 23.0387 24.7816C24.4095 24.7816 25.8246 24.7816 27.3281 24.7816C26.0015 22.2502 24.0115 20.6069 21.3583 19.7187ZM15.3001 19.7187C12.6469 20.6069 10.657 22.2502 9.3304 24.7816C10.8339 24.7816 12.2932 24.7816 13.6198 24.7816C14.1504 23.094 14.7253 21.4508 15.3001 19.7187Z" fill="#3D3D3D"/>
<path d="M8.18066 49.8743C8.18066 49.2081 8.18066 48.5419 8.18066 47.8757C14.9464 47.8757 21.7121 47.8757 28.4778 47.8757C28.4778 48.5419 28.4778 49.1637 28.4778 49.8743C21.7121 49.8743 14.9906 49.8743 8.18066 49.8743Z" fill="#3D3D3D"/>
<path d="M38.8698 55.3813C38.2065 55.2037 37.5874 55.026 36.8799 54.8484C38.1181 50.2296 39.312 45.6552 40.5502 41.0364C41.2135 41.214 41.8326 41.3917 42.5401 41.5693C41.3019 46.1437 40.108 50.7625 38.8698 55.3813Z" fill="#3D3D3D"/>
<path d="M42.7171 33.1311C43.3804 33.3087 43.9994 33.4864 44.6627 33.664C44.309 34.9964 43.9552 36.2399 43.6015 37.6167C42.9382 37.439 42.3191 37.2614 41.6558 37.0837C42.0095 35.7514 42.3191 34.4634 42.7171 33.1311Z" fill="#3D3D3D"/>
<path d="M46.0336 28.7344C46.6527 28.912 47.2717 29.0453 47.935 29.2229C47.7582 29.8891 47.6255 30.5108 47.4486 31.2214C46.7853 31.0438 46.1662 30.9105 45.5029 30.7329C45.6798 30.0223 45.8567 29.4005 46.0336 28.7344Z" fill="#3D3D3D"/>
<path d="M40.2407 27.1799C40.0638 27.8905 39.887 28.5123 39.7101 29.134C39.091 28.9564 38.4719 28.8232 37.8086 28.6455C37.9855 27.9793 38.1181 27.3576 38.295 26.6914C38.9583 26.8691 39.5332 27.0023 40.2407 27.1799Z" fill="#3D3D3D"/>
<path d="M41.6558 29.667C41.8326 29.0008 42.0095 28.3791 42.1864 27.7129C42.8497 27.8905 43.4246 28.0238 44.1321 28.2014C43.9552 28.8676 43.8226 29.4894 43.6457 30.1555C42.9382 30.0223 42.3633 29.8446 41.6558 29.667Z" fill="#3D3D3D"/>
<path d="M15.3887 31.9762C15.3887 30.2886 15.3887 28.6454 15.3887 26.8689C15.8309 26.8689 16.1846 26.8689 16.5384 26.8689C17.9535 26.8689 19.3243 26.8689 20.7393 26.8689C20.9162 26.8689 21.2258 27.0465 21.2258 27.1798C21.4026 28.7786 21.4469 30.3774 21.1815 31.9762C19.2801 31.9762 17.3786 31.9762 15.3887 31.9762Z" fill="white"/>
<path d="M23.3481 26.9133C24.9401 26.9133 26.532 26.9133 28.1239 26.9133C28.6104 28.601 28.6104 30.2886 28.1239 31.9762C26.532 31.9762 24.9401 31.9762 23.3481 31.9762C23.3481 30.2886 23.3481 28.6454 23.3481 26.9133Z" fill="white"/>
<path d="M13.3106 31.9762C11.7629 31.9762 10.1709 31.9762 8.53477 31.9762C8.09256 30.3774 8.04834 28.7786 8.49055 27.1354C8.53477 27.0465 8.71165 26.8689 8.80009 26.8689C10.3036 26.8689 11.8071 26.8689 13.3106 26.8689C13.3106 28.6009 13.3106 30.2442 13.3106 31.9762Z" fill="white"/>
<path d="M20.828 34.0637C20.3858 36.0178 19.7225 37.7499 18.7054 39.3931C18.4843 39.7484 18.0864 39.7484 17.821 39.3487C16.804 37.7055 16.1849 35.9734 15.7427 34.0637C17.4673 34.0637 19.1034 34.0637 20.828 34.0637Z" fill="white"/>
<path d="M20.8722 24.8261C19.1919 24.8261 17.5557 24.8261 15.7427 24.8261C16.0964 23.7158 16.4502 22.6056 16.8482 21.5841C17.1135 20.8735 17.5115 20.2073 17.9095 19.4967C18.1306 19.1415 18.5286 19.097 18.7497 19.4523C19.7667 21.0956 20.43 22.872 20.8722 24.8261Z" fill="white"/>
<path d="M9.37451 34.0637C10.8338 34.0637 12.2488 34.0637 13.6197 34.0637C14.1945 35.7514 14.7252 37.439 15.3 39.0822C13.089 38.6381 10.3031 36.2843 9.37451 34.0637Z" fill="white"/>
<path d="M21.4028 39.0822C21.8893 37.4834 22.3757 35.8846 22.9063 34.3302C22.9505 34.1969 23.1274 34.0193 23.2601 34.0193C24.5867 34.0193 25.9133 34.0193 27.2841 34.0193C26.6651 36.0178 23.9234 38.3272 21.4028 39.0822Z" fill="white"/>
<path d="M21.3584 19.7188C24.0116 20.607 26.0015 22.2502 27.3281 24.7817C25.8247 24.7817 24.4096 24.7817 23.0388 24.7817C22.5081 23.1384 21.9775 21.4508 21.3584 19.7188Z" fill="white"/>
<path d="M15.3001 19.7188C14.7252 21.4508 14.1504 23.094 13.5755 24.7817C12.2489 24.7817 10.8338 24.7817 9.28613 24.7817C10.657 22.2502 12.6469 20.607 15.3001 19.7188Z" fill="white"/>
</g>
<defs>
<clipPath id="clip0_275_748">
<rect width="57" height="60" fill="white"/>
</clipPath>
</defs>
</svg>
