<svg width="49" height="60" viewBox="0 0 49 60" fill="none" xmlns="http://www.w3.org/2000/svg">
<g clip-path="url(#clip0_275_377)">
<path d="M14.8994 7.01937C14.8994 6.21461 14.8994 5.45455 14.8994 4.7392C14.8994 1.87779 16.7619 0 19.5999 0C22.8814 0 26.1185 0 29.3999 0C32.2379 0 34.056 1.87779 34.1004 4.69449C34.1004 5.45455 34.1004 6.1699 34.1004 6.97467C34.3664 6.97467 34.5881 6.97467 34.8099 6.97467C38.1357 6.97467 41.4171 6.97467 44.7429 6.97467C46.561 6.97467 47.6252 8.04769 47.6252 9.88078C47.6252 12.3845 47.6252 14.8882 47.6252 17.392C47.6252 18.9568 47.0931 20.2534 46.0732 21.3711C45.8515 21.5946 45.6741 21.997 45.6741 22.31C45.6298 26.2444 45.6741 30.2235 45.6741 34.158C45.6741 34.4709 45.7185 34.7839 45.8515 35.0969C46.7827 37.6006 47.7583 40.1043 48.7338 42.6081C49.399 44.307 48.8669 45.4694 47.1818 46.1401C46.428 46.4531 45.7185 46.7213 44.9646 47.0343C43.5013 47.6155 42.3483 47.079 41.7275 45.6483C41.6832 45.5589 41.6388 45.4695 41.5501 45.3353C40.885 45.6036 40.2642 45.8718 39.599 46.1401C39.6877 47.7943 38.9782 48.9121 37.4705 49.4933C37.5592 52.0864 36.761 53.07 34.2334 53.4724C33.7456 55.6632 32.9031 56.4233 30.6859 56.5574C29.666 59.5529 28.2026 60.1341 25.3646 58.7928C24.5221 59.687 23.5022 60.1788 22.2162 59.9106C21.3737 59.7317 20.6642 59.2399 20.2207 58.5246C20.0433 58.2116 19.866 58.1669 19.5556 58.2116C18.2252 58.4799 17.161 58.0328 16.3628 57.0045C16.2741 56.8703 16.008 56.7362 15.875 56.7809C13.9682 57.4963 11.6623 56.1997 11.618 53.6066C11.618 53.6066 11.618 53.5618 11.5737 53.5171C11.4406 53.4724 11.3076 53.4277 11.1746 53.383C9.13474 52.9806 8.07049 50.8346 8.91302 48.9121C8.95737 48.8674 8.95737 48.7779 9.00171 48.7332C9.93293 47.6602 9.53384 46.4978 9.22343 45.3353C9.17909 45.1118 8.95737 44.9329 8.77999 44.7988C8.3809 44.5753 7.93746 44.4411 7.49402 44.2176C7.40533 44.4411 7.31664 44.62 7.18361 44.7988C6.60714 45.9165 5.40986 46.4083 4.25692 45.9165C3.28135 45.5142 2.30578 45.1118 1.37456 44.62C0.177276 44.0387 -0.266163 42.7422 0.310308 41.4456C1.28587 39.2101 2.26144 37.0194 3.237 34.7839C3.37004 34.5157 3.41438 34.2027 3.41438 33.9344C3.41438 30 3.41438 26.1103 3.41438 22.1759C3.41438 21.9076 3.28135 21.5499 3.05963 21.3711C1.99538 20.2534 1.41891 18.9121 1.46325 17.3472C1.46325 14.8435 1.46325 12.3398 1.46325 9.83607C1.46325 7.95827 2.5275 6.92996 4.3456 6.92996C7.62705 6.92996 10.9085 6.92996 14.1899 6.92996C14.3673 7.01937 14.589 7.01937 14.8994 7.01937ZM29.3112 24.2325C32.8587 24.0089 36.3176 23.6513 39.732 22.7124C41.2841 22.2653 42.7918 21.6841 44.0777 20.6557C45.142 19.7616 45.7185 18.6885 45.6741 17.2578C45.6298 14.8435 45.6741 12.4292 45.6741 10.0149C45.6741 9.12072 45.4967 8.94188 44.6099 8.94188C42.2596 8.94188 39.9538 8.94188 37.6035 8.94188C37.4262 8.94188 37.2044 8.94188 36.9827 8.94188C36.9827 10.462 36.9827 11.8927 36.9827 13.2787C36.9827 15.1565 35.6524 16.4978 33.8343 16.4978C27.5818 16.4978 21.3293 16.4978 15.0768 16.4978C13.2144 16.4978 11.9284 15.1565 11.9284 13.2787C11.9284 12.0268 11.9284 10.775 11.9284 9.5231C11.9284 9.34426 11.9284 9.12072 11.8841 8.89717C11.6623 8.89717 11.485 8.89717 11.3076 8.89717C8.95737 8.89717 6.65148 8.89717 4.30126 8.89717C3.45872 8.89717 3.28135 9.07601 3.28135 9.97019C3.28135 12.3845 3.32569 14.8435 3.28135 17.2578C3.28135 18.5991 3.76913 19.6274 4.78904 20.4322C5.36551 20.8793 5.98633 21.3264 6.60714 21.6393C8.29221 22.4888 10.1103 22.9806 11.9728 23.2489C14.5447 23.6513 17.0723 23.9195 19.6442 24.2772C20.5755 21.997 22.1718 20.7452 24.4777 20.7452C26.828 20.7899 28.38 22.0417 29.3112 24.2325ZM16.3185 47.079C17.6931 46.9896 18.7574 47.5261 19.4225 48.7332C19.5999 49.0909 19.7773 49.1356 20.1764 49.1356C21.551 49.0015 22.5709 49.5827 23.2361 50.7899C23.4135 51.1475 23.5909 51.1923 23.9899 51.1475C24.8325 51.0581 25.542 51.3264 26.2071 51.7735C27.6261 52.7124 29.0895 53.6066 30.5972 54.456C31.351 54.8584 32.2379 54.3666 32.2823 53.5619C32.3266 52.9806 32.0605 52.5782 31.5728 52.2653C30.6415 51.7288 29.7103 51.1923 28.7791 50.6557C27.9366 50.1639 27.0497 49.7168 26.2515 49.1803C25.9854 49.0015 25.7637 48.5097 25.808 48.1967C25.808 47.9285 26.2071 47.5708 26.4732 47.4814C26.7393 47.392 27.1384 47.5261 27.4044 47.7049C29.4886 48.8674 31.5284 50.0298 33.6126 51.1923C34.4108 51.6393 35.1203 51.5499 35.475 50.924C35.8741 50.2534 35.5637 49.5827 34.7212 49.1356C34.1004 48.7779 33.4795 48.4203 32.8587 48.0626C31.8832 47.4814 30.8633 46.9449 29.8877 46.3636C29.3999 46.0507 29.2669 45.5142 29.5329 45.0671C29.799 44.62 30.2868 44.4411 30.8189 44.7094C30.9963 44.7988 31.218 44.9329 31.3954 45.0224C32.9031 45.8718 34.3664 46.7213 35.8741 47.5708C36.3619 47.8391 36.894 47.839 37.2931 47.4367C37.6922 47.079 37.8252 46.5872 37.5592 46.1401C37.3818 45.8271 37.1157 45.5589 36.8053 45.4247C34.6768 44.1729 32.4596 42.9657 30.3311 41.6692C29.1338 40.9538 27.9809 40.8644 26.7393 41.3115C25.4533 41.8033 24.1673 42.2951 22.8813 42.7422C20.2651 43.5917 18.0035 43.0999 16.1854 40.9091C15.4316 39.9702 15.5646 39.2996 16.5402 38.6289C17.7375 37.8241 18.9347 37.0194 20.0433 36.1252C20.8415 35.4993 21.551 34.7392 22.3936 33.9344C21.9501 33.845 21.6397 33.7109 21.3737 33.7109C20.1764 33.8003 18.9791 33.8897 17.8261 34.1133C16.2298 34.4262 14.7664 34.4709 13.3031 33.6215C12.9483 33.4426 12.5936 33.3085 12.1945 33.1297C10.8198 36.2593 9.44515 39.3443 8.07049 42.4739C9.40081 43.0104 10.7755 43.4575 10.9972 45.1118C13.17 43.8599 15.5646 44.62 16.3185 47.079ZM36.4506 32.1461C36.3176 31.8331 36.2289 31.5648 36.1402 31.3413C35.608 29.9106 36.1402 28.6587 37.5592 28.1222C38.4461 27.7645 39.2886 27.4516 40.1755 27.0939C41.5058 26.6021 42.7031 27.1386 43.2352 28.4799C43.3682 28.7928 43.4569 29.1058 43.59 29.4188C43.6343 29.4188 43.6343 29.4188 43.6786 29.3741C43.6786 27.3621 43.6786 25.3502 43.6786 23.2936C39.1556 25.3502 34.3664 25.7526 29.5773 26.1997C28.9565 29.2399 27.094 30.9836 24.4777 30.9836C21.8614 30.9836 20.0433 29.2399 19.3782 26.1997C14.6334 25.7526 9.7999 25.3055 5.32117 23.2489C5.32117 25.4396 5.32117 27.5857 5.32117 29.7317C5.76461 28.927 6.11936 28.1222 6.51845 27.3174C7.05058 26.155 8.29221 25.6185 9.48949 26.1103C10.4651 26.5127 11.485 26.9598 12.4162 27.4069C13.5248 27.9434 13.9682 29.1505 13.5248 30.313C13.3918 30.6259 13.2587 30.9836 13.1257 31.2966C14.589 32.1908 16.008 32.772 17.7375 32.1908C18.0479 32.0566 18.4026 32.0566 18.713 31.9672C20.4424 31.5648 22.1718 31.5648 23.7682 32.4143C24.0786 32.5931 24.3004 32.5484 24.6551 32.3696C26.4289 31.386 28.2913 31.1177 30.2424 31.7437C31.3067 32.1013 32.3266 32.5037 33.3909 32.8614C33.9673 33.0849 34.5438 33.1297 35.1203 32.8167C35.5194 32.6826 35.9628 32.4143 36.4506 32.1461ZM35.1203 8.98659C28.0252 8.98659 20.9746 8.98659 13.8795 8.98659C13.8795 10.3279 13.8795 11.6244 13.8795 12.921C13.8795 14.2176 14.2343 14.5753 15.5203 14.5753C21.551 14.5753 27.5375 14.5753 33.5682 14.5753C33.7013 14.5753 33.8343 14.5753 33.9673 14.5753C34.6325 14.5306 35.1203 14.1282 35.1203 13.4575C35.1203 11.9821 35.1203 10.5067 35.1203 8.98659ZM18.0479 40.0596C18.9791 40.9538 19.999 41.3115 21.1963 41.1326C21.8614 40.9985 22.5709 40.8197 23.1918 40.5961C24.4334 40.1937 25.6307 39.6572 26.9166 39.2548C28.0696 38.8972 29.2669 38.8525 30.3311 39.4784C33.1248 41.0432 35.8298 42.6528 38.5791 44.2623C38.6678 44.307 38.8452 44.3964 38.9338 44.3517C39.5547 44.1282 40.1755 43.8599 40.8406 43.5469C39.599 40.3279 38.4017 37.1982 37.1601 33.9791C36.8053 34.158 36.4949 34.2921 36.2289 34.4709C35.209 35.0522 34.189 35.1863 33.0804 34.8286C32.3266 34.6051 31.5728 34.2921 30.8189 34.0238C29.799 33.6215 28.7347 33.3085 27.6261 33.4426C26.0741 33.6215 24.8768 34.3815 23.7239 35.3651C22.7927 36.2146 21.9058 37.1088 20.9302 37.9136C20.0433 38.6736 19.0678 39.3443 18.0479 40.0596ZM11.7954 29.4635C11.6623 29.3294 11.485 29.1505 11.3076 29.0611C10.5537 28.7034 9.7999 28.3905 9.04605 28.0328C8.60262 27.8092 8.33655 27.9434 8.15918 28.3905C6.11936 32.9955 4.07954 37.6453 2.03972 42.2504C1.86234 42.6975 1.95103 42.921 2.35013 43.0999C3.05963 43.4128 3.81348 43.7258 4.52298 44.0835C5.18814 44.3517 5.27682 44.3517 5.58723 43.6811C7.58271 39.1207 9.57818 34.5604 11.5737 30C11.618 29.8659 11.7067 29.687 11.7954 29.4635ZM41.151 28.7928C40.9293 28.8823 40.7963 28.8823 40.6632 28.927C39.8651 29.2399 39.1112 29.5529 38.313 29.8212C37.8252 30 37.7809 30.2683 37.9583 30.7153C39.7764 35.4098 41.5945 40.1043 43.3682 44.8435C43.5456 45.2906 43.8117 45.4247 44.2551 45.2459C44.9646 44.9329 45.7185 44.6647 46.428 44.3964C47.1375 44.1282 47.1818 44.0387 46.9157 43.3234C46.2062 41.4903 45.4967 39.6572 44.7872 37.8241C43.723 35.0075 42.6587 32.2355 41.5501 29.4188C41.4614 29.2399 41.2841 29.0164 41.151 28.7928ZM27.6261 25.842C27.6261 24.0984 26.2071 22.7124 24.5221 22.7124C22.7927 22.7124 21.418 24.1431 21.418 25.842C21.418 27.5857 22.837 29.0164 24.5664 29.0164C26.2515 28.9717 27.6261 27.5857 27.6261 25.842ZM17.9592 6.97467C17.9592 6.21461 17.9592 5.49926 17.9592 4.82861C17.9592 3.62146 18.447 3.12966 19.6886 3.12966C22.8814 3.12966 26.0741 3.12966 29.2669 3.12966C30.5528 3.12966 31.0406 3.62146 31.0406 4.91803C31.0406 5.63338 31.0406 6.30402 31.0406 6.97467C31.4841 6.97467 31.7945 6.97467 32.1492 6.97467C32.1492 6.08048 32.1492 5.27571 32.1492 4.42623C32.1049 3.04024 31.085 1.96721 29.7103 1.96721C26.2071 1.9225 22.7483 1.96721 19.2452 1.96721C18.0922 1.96721 17.0723 2.72727 16.8949 3.84501C16.7619 4.87332 16.8506 5.94635 16.8506 7.01937C17.2053 6.97466 17.5601 6.97467 17.9592 6.97467ZM29.0895 6.97467C29.0895 6.30402 29.0895 5.67809 29.0895 5.09687C25.9854 5.09687 22.97 5.09687 19.9547 5.09687C19.9547 5.76751 19.9547 6.34873 19.9547 6.97467C22.97 6.97467 26.0298 6.97467 29.0895 6.97467ZM14.8551 55.1267C15.1655 54.9031 15.6533 54.769 15.8307 54.456C16.5402 53.2042 17.2053 51.8629 17.8261 50.5663C18.0479 50.1192 17.7375 49.4933 17.2497 49.1803C16.7619 48.9121 16.0967 48.9568 15.8307 49.4039C15.0768 50.7004 14.323 51.9523 13.6578 53.2936C13.2587 54.0536 13.8795 54.9925 14.8551 55.1267ZM21.6397 52.3994C21.6397 51.7288 21.285 51.237 20.7528 51.1028C20.1764 50.9687 19.6886 51.1475 19.4225 51.6841C18.8904 52.7124 18.3583 53.7407 17.8705 54.769C17.7375 55.0373 17.7375 55.4844 17.8705 55.6632C18.1366 55.9762 18.5356 56.2444 18.8904 56.3338C19.3338 56.4233 19.7773 56.155 19.999 55.7079C20.5311 54.7243 21.0189 53.7407 21.551 52.7124C21.5954 52.623 21.6397 52.4441 21.6397 52.3994ZM14.3673 47.839C14.323 47.1237 14.0569 46.7213 13.5691 46.5425C13.037 46.3636 12.5049 46.4083 12.2388 46.9002C11.618 47.8838 11.0859 48.9568 10.5981 50.0298C10.3764 50.5663 10.7311 51.237 11.3076 51.4605C11.751 51.6393 12.4605 51.5946 12.7709 50.9687C13.17 50.1192 13.7022 49.3592 14.1456 48.5097C14.2343 48.2414 14.323 47.9732 14.3673 47.839ZM25.4533 54.456C25.4533 53.7854 25.0985 53.2936 24.5664 53.1148C23.9456 52.9359 23.5022 53.1595 23.1918 53.7407C22.7483 54.6349 22.2605 55.4844 21.8171 56.4232C21.6841 56.6915 21.6397 57.1386 21.8171 57.3174C22.0388 57.6304 22.4379 57.9434 22.837 58.0328C23.3248 58.1669 23.7682 57.8539 24.0343 57.4069C24.4777 56.6021 24.9212 55.7526 25.3646 54.9031C25.409 54.769 25.4533 54.5455 25.4533 54.456ZM27.4044 54.9925C27.0497 55.7079 26.7393 56.4232 26.3845 57.0939C27.3157 57.8092 28.0696 57.8092 28.513 57.0939C29.0008 56.3338 28.6461 55.6185 27.4044 54.9925Z" fill="#3D3D3D"/>
<path d="M29.3114 24.2325C28.4245 22.0865 26.8281 20.7899 24.4779 20.7899C22.1276 20.7899 20.5756 22.0417 19.6444 24.3219C17.1168 24.009 14.5448 23.696 11.9729 23.2936C10.1105 23.0254 8.29235 22.5335 6.60729 21.6841C5.94213 21.3711 5.32131 20.924 4.78919 20.4769C3.76928 19.6721 3.28149 18.5991 3.28149 17.3026C3.32584 14.8882 3.28149 12.4292 3.28149 10.0149C3.28149 9.12073 3.45887 8.94189 4.3014 8.94189C6.65163 8.94189 8.95751 8.94189 11.3077 8.94189C11.4851 8.94189 11.6625 8.94189 11.8842 8.94189C11.8842 9.16544 11.9286 9.34428 11.9286 9.56783C11.9286 10.8197 11.9286 12.0716 11.9286 13.3234C11.9286 15.2012 13.2589 16.5425 15.077 16.5425C21.3295 16.5425 27.5819 16.5425 33.8344 16.5425C35.6969 16.5425 36.9828 15.2012 36.9828 13.3234C36.9828 11.8927 36.9828 10.462 36.9828 8.9866C37.2046 8.9866 37.4263 8.9866 37.6037 8.9866C39.9539 8.9866 42.2598 8.9866 44.61 8.9866C45.4525 8.9866 45.6299 9.16544 45.6743 10.0596C45.6743 12.4739 45.6299 14.8882 45.6743 17.3026C45.7186 18.7333 45.1421 19.8063 44.0779 20.7005C42.7919 21.7735 41.3285 22.31 39.7322 22.7571C36.3177 23.6513 32.8145 23.9642 29.3114 24.2325Z" fill="white"/>
<path d="M36.4506 32.1461C35.9628 32.4144 35.5194 32.6379 35.0759 32.9062C34.4995 33.2192 33.923 33.1297 33.3465 32.9509C32.2823 32.5932 31.2624 32.1461 30.1981 31.8332C28.247 31.2072 26.3845 31.4755 24.6108 32.4591C24.3004 32.6379 24.0787 32.6379 23.7239 32.5038C22.1275 31.6543 20.3981 31.6543 18.6687 32.0567C18.3583 32.1461 18.0036 32.1908 17.6931 32.2803C16.0081 32.8615 14.5447 32.325 13.0814 31.3861C13.2144 31.0731 13.3474 30.7154 13.4805 30.4025C13.8796 29.24 13.4361 28.0329 12.3719 27.4964C11.3963 27.0045 10.4207 26.6022 9.44518 26.1998C8.29224 25.708 7.05061 26.2445 6.47414 27.4069C6.07505 28.2117 5.76464 29.0612 5.27686 29.8212C5.27686 27.6752 5.27686 25.5291 5.27686 23.3384C9.75559 25.395 14.5891 25.8421 19.3782 26.2445C19.999 29.2847 21.8615 31.0284 24.4778 31.0284C27.0941 31.0284 28.9565 29.2847 29.5773 26.2445C34.3664 25.8421 39.1556 25.4397 43.6787 23.3384C43.6787 25.395 43.6787 27.4069 43.6787 29.4189C43.6343 29.4189 43.6343 29.4189 43.59 29.4636C43.4569 29.1506 43.3683 28.8376 43.2352 28.5247C42.7031 27.2281 41.4615 26.6916 40.1755 27.1387C39.2886 27.4516 38.4461 27.8093 37.5592 28.167C36.1845 28.7482 35.6081 29.9554 36.1402 31.3861C36.2289 31.6096 36.3176 31.8779 36.4506 32.1461Z" fill="white"/>
<path d="M35.1204 8.9866C35.1204 10.5067 35.1204 11.9821 35.1204 13.4128C35.1204 14.0835 34.6326 14.4859 33.9674 14.5306C33.8344 14.5306 33.7014 14.5306 33.5683 14.5306C27.5376 14.5306 21.5511 14.5306 15.5204 14.5306C14.2344 14.5306 13.8796 14.1729 13.8796 12.8763C13.8796 11.5797 13.8796 10.2832 13.8796 8.94189C20.9747 8.9866 27.981 8.9866 35.1204 8.9866Z" fill="white"/>
<path d="M27.6264 25.8421C27.6264 27.5858 26.296 28.9718 24.5666 29.0165C22.8372 29.0612 21.4182 27.6305 21.4182 25.8421C21.4182 24.0984 22.7929 22.7124 24.5223 22.7124C26.2074 22.6677 27.582 24.0984 27.6264 25.8421Z" fill="white"/>
<path d="M17.9593 6.97462C17.5602 6.97462 17.2498 6.97462 16.8951 6.97462C16.8951 5.90159 16.762 4.82857 16.9394 3.80025C17.0724 2.72723 18.1367 1.92246 19.2896 1.92246C22.7928 1.92246 26.2516 1.87775 29.7548 1.92246C31.1294 1.92246 32.1494 2.99548 32.1937 4.38148C32.238 5.23095 32.1937 6.08043 32.1937 6.92991C31.839 6.92991 31.4842 6.92991 31.0851 6.92991C31.0851 6.25927 31.0851 5.54392 31.0851 4.87328C31.0851 3.57671 30.5973 3.0849 29.3113 3.0849C26.1186 3.0849 22.8815 3.0849 19.6887 3.0849C18.4914 3.0849 18.0037 3.57671 17.9593 4.78386C17.9593 5.54392 17.9593 6.21456 17.9593 6.97462Z" fill="white"/>
<path d="M9.40081 31.4754C8.73565 31.4754 8.20352 30.9389 8.15918 30.2682C8.15918 29.5976 8.69131 29.0611 9.35646 29.0164C10.066 29.0164 10.6424 29.5529 10.5981 30.2235C10.5981 30.9389 10.066 31.4754 9.40081 31.4754Z" fill="#3D3D3D"/>
<path d="M41.3729 31.1625C41.3729 31.8331 40.8851 32.4144 40.2199 32.4144C39.5548 32.4591 38.934 31.8779 38.9783 31.1625C38.9783 30.4919 39.5104 29.9554 40.1756 29.9106C40.8408 29.9106 41.3729 30.4472 41.3729 31.1625Z" fill="#3D3D3D"/>
</g>
<defs>
<clipPath id="clip0_275_377">
<rect width="49" height="60" fill="white"/>
</clipPath>
</defs>
</svg>
