<svg width="49" height="50" viewBox="0 0 49 50" fill="none" xmlns="http://www.w3.org/2000/svg">
<g clip-path="url(#clip0_245_350)">
<path d="M48.6231 29.0816C48.7488 28.4438 48.7488 27.8061 48.8744 27.2959L49 26.403V23.2142C49 23.2142 49 23.0867 49 22.9591C49 22.5765 48.8744 22.1938 48.8744 21.8112C48.7488 21.0459 48.6231 20.153 48.4975 19.3877C45.3564 6.37751 32.918 -1.9133 20.1026 0.382615C19.4744 0.510166 18.8462 1.02037 18.8462 1.78568C18.8462 2.55098 19.2231 3.18874 19.8513 3.31629C20.2282 3.44384 20.6052 3.44384 20.9821 3.31629C25.6308 2.55098 30.0282 3.18874 34.0488 5.22955C39.8282 8.16323 43.9744 13.3928 45.4821 19.6428C46.9898 25.8928 45.7334 32.5255 41.9641 37.7551C38.1949 42.9847 33.1693 45.9183 26.6359 46.6836C24.7513 46.9387 22.8667 46.8112 20.6052 46.4285C20.4795 46.4285 20.4795 46.4285 20.3539 46.4285C19.977 46.4285 19.7257 46.5561 19.4744 46.6836C19.2231 46.9387 18.9718 47.3214 18.9718 47.704C18.8462 48.4693 19.4744 49.2347 20.3539 49.3622C20.9821 49.4898 21.6103 49.4898 22.2385 49.6173L23.2436 49.7449H26.259C26.3847 49.7449 26.7616 49.6173 27.0129 49.6173H27.1385C27.7667 49.4898 28.3949 49.4898 28.8975 49.3622C38.9488 47.5765 46.8641 39.4132 48.6231 29.0816Z" fill="#38B1AF"/>
<path d="M29.777 26.2755L33.1693 22.5765C34.1744 21.5561 35.0539 20.5357 36.059 19.5153C36.4359 19.1326 36.5616 18.6224 36.4359 18.1122C36.3103 17.602 35.9334 17.2193 35.4308 17.0918C34.8026 16.9642 34.3 17.0918 33.7975 17.602C30.7821 20.9183 27.7667 24.1071 24.7513 27.4234L20.4795 31.8877L19.977 31.1224C19.977 30.9948 19.8513 30.9948 19.8513 30.8673L19.0975 30.102C17.8411 28.6989 16.5847 27.4234 15.3282 26.0204C14.9513 25.6377 14.5744 25.5101 14.1975 25.5101C13.8206 25.5101 13.4436 25.6377 13.1923 25.8928C12.5641 26.5306 12.5641 27.4234 13.1923 28.0612L13.4436 28.4438C15.077 30.2295 16.8359 32.0153 18.4693 33.801C19.8513 35.204 21.4847 35.204 22.8667 33.801C25.1282 31.2499 27.3898 28.8265 29.777 26.2755Z" fill="#38B1AF"/>
<path d="M13.6948 43.8775C13.5691 43.75 13.3178 43.6224 13.1922 43.4949C12.9409 43.3673 12.8153 43.2398 12.564 43.1122C10.1768 41.4541 8.04091 39.4133 6.53322 36.9898C6.1563 36.352 5.77938 36.2245 5.15117 36.0969C4.64861 36.0969 4.27168 36.352 3.89476 36.8622C3.64348 37.3724 3.64348 37.8826 3.89476 38.3928C6.03066 41.7092 8.79476 44.3877 12.1871 46.4286C12.9409 46.8112 13.6948 46.5561 14.1973 45.9184C14.6999 45.153 14.4486 44.2602 13.6948 43.8775Z" fill="#38B1AF"/>
<path d="M5.15126 13.648C5.65383 13.648 6.15639 13.3929 6.40768 12.8827C8.29229 10.0766 10.6795 7.65312 13.6949 5.8674C14.0718 5.6123 14.3231 5.3572 14.4487 4.84699C14.5743 4.46434 14.4487 4.08169 14.3231 3.69903C14.0718 3.31638 13.5692 3.06128 13.0666 3.06128C12.8154 3.06128 12.4384 3.18883 12.1872 3.31638C11.3077 3.82659 10.6795 4.33679 10.0513 4.84699C7.66409 6.63271 5.65383 8.67352 4.0205 11.2245C3.64357 11.7347 3.64357 12.245 3.89485 12.8827C4.14614 13.2654 4.6487 13.5205 5.15126 13.648Z" fill="#38B1AF"/>
<path d="M3.26667 21.1735C3.26667 20.9184 3.39231 20.7909 3.39231 20.5358C3.51795 20.1531 3.51795 19.7705 3.51795 19.3878C3.51795 18.6225 2.88974 18.1123 2.1359 17.9847H2.01026C1.38205 17.9847 0.753846 18.4949 0.628205 19.1327C0.251282 20.9184 0 22.7041 0 24.8725C0 26.9133 0.251282 28.8266 0.628205 30.4847C0.879487 31.25 1.63333 31.7603 2.38718 31.6327C3.26667 31.3776 3.64359 30.6123 3.39231 29.5919C2.88974 26.7858 2.7641 23.9796 3.26667 21.1735Z" fill="#38B1AF"/>
</g>
<defs>
<clipPath id="clip0_245_350">
<rect width="49" height="50" fill="white"/>
</clipPath>
</defs>
</svg>
