<svg width="1288" height="511" viewBox="0 0 1288 511" fill="none" xmlns="http://www.w3.org/2000/svg">
<g filter="url(#filter0_d_165_3734)">
<path d="M1234.5 30.5772C1275.63 45.9895 1282.35 136.901 1283.23 168.516C1285.7 257.268 1283.63 440.404 1255.55 462.929C1227.46 485.455 1073.12 490.757 999.458 490.592C761.497 495.862 257.792 505.313 146.656 500.966C7.73523 495.532 5.75781 423.411 5.75781 412.049C5.75781 400.688 1.80273 187.287 5.75781 96.3948C9.71289 5.50209 88.319 6.98404 135.285 1.05626C172.858 -3.68597 434 9.07732 577 9.07718C1086.26 9.07718 1183.08 11.3119 1234.5 30.5772Z" fill="#BF92C7"/>
</g>
<defs>
<filter id="filter0_d_165_3734" x="0" y="0" width="1288" height="510.077" filterUnits="userSpaceOnUse" color-interpolation-filters="sRGB">
<feFlood flood-opacity="0" result="BackgroundImageFix"/>
<feColorMatrix in="SourceAlpha" type="matrix" values="0 0 0 0 0 0 0 0 0 0 0 0 0 0 0 0 0 0 127 0" result="hardAlpha"/>
<feOffset dy="4"/>
<feGaussianBlur stdDeviation="2"/>
<feComposite in2="hardAlpha" operator="out"/>
<feColorMatrix type="matrix" values="0 0 0 0 0 0 0 0 0 0 0 0 0 0 0 0 0 0 0.25 0"/>
<feBlend mode="normal" in2="BackgroundImageFix" result="effect1_dropShadow_165_3734"/>
<feBlend mode="normal" in="SourceGraphic" in2="effect1_dropShadow_165_3734" result="shape"/>
</filter>
</defs>
</svg>
