<svg width="85" height="112" viewBox="0 0 85 112" fill="none" xmlns="http://www.w3.org/2000/svg">
<path d="M58.709 49.0489C60.0735 69.273 44.1539 86.9893 16.3582 96.5584C18.0833 91.6048 25.396 89.998 23.8633 83.7819C23.0488 83.4663 22.4168 82.8634 22.181 82.9152C15.3643 87.2566 8.40294 91.5062 1.78428 96.1751C-0.452357 97.7792 -0.755286 100.813 1.84824 102.467C7.19995 105.865 12.605 109.5 20.2846 111.15C19.012 107.721 18.0976 105.325 17.488 103.728C25.3706 100.266 33.4133 97.5093 40.5193 93.3516C57.6377 83.6557 67.5619 68.9877 67.5748 48.8318C67.5885 45.6143 68.9728 44.0737 71.156 42.234C80.688 34.5759 85.4623 24.5013 84.7713 12.1657C84.518 7.77037 84.0133 2.81211 77.6802 -7.82261e-05C80.9641 7.93305 80.8077 14.8912 78.4215 21.8446C75.9819 28.5626 72.3851 34.5456 66.0247 38.1686C61.1671 33.6722 56.9639 28.7848 51.7568 25.4779C46.641 22.0273 40.5971 19.3989 34.6756 17.8563C28.4647 16.13 23.1391 19.4019 20.7442 24.1318C18.3493 28.8618 19.6306 34.5149 24.3435 38.9194C31.8735 45.9196 41.2509 49.052 51.4565 49.2824C53.9756 49.4707 56.3879 49.188 58.709 49.0489ZM57.1607 42.2181C46.4766 43.7001 38.0583 40.9752 30.5593 35.2046C28.1383 33.2637 25.991 30.8919 27.8539 27.6389C29.4431 24.8169 32.434 24.9016 35.1133 25.7966C43.8587 28.326 50.9616 33.4418 57.1607 42.2181Z" fill="#FF8A8D"/>
</svg>
