<svg width="35" height="50" viewBox="0 0 35 50" fill="none" xmlns="http://www.w3.org/2000/svg">
<g clip-path="url(#clip0_245_320)">
<path d="M3.01079 29C3.01079 28.625 3.01079 28.5 3.01079 28.25C3.01079 19.25 3.01079 10.25 3.01079 1.25C3.01079 0.25 3.26169 0 4.26527 0C10.6631 0 17.061 0 23.4588 0C23.9606 0 24.337 0.125 24.7133 0.5C26.9714 3 29.3549 5.5 31.6129 7.875C31.9893 8.25 32.1147 8.625 32.1147 9.125C32.1147 15.625 32.1147 22.25 32.1147 28.75C32.1147 29 32.1147 29.125 32.1147 29.5C32.742 29.5 33.3692 29.5 33.9965 29.5C34.8746 29.5 35.1255 29.75 35.1255 30.5C35.1255 35.375 35.1255 40.25 35.1255 45.25C35.1255 46 34.8746 46.25 34.1219 46.25C33.1183 46.25 31.9893 46.25 30.9857 46.25C29.8567 46.25 29.104 45.75 28.4767 44.75C28.3513 44.625 28.2258 44.5 27.975 44.25C27.7241 44.875 27.7241 45.375 27.4732 45.875C26.9714 47.125 25.8423 47.625 24.5879 47.5C24.2115 47.5 23.9606 47.5 23.7097 47.75C22.957 48.5 22.0789 48.75 20.9499 48.625C20.5735 48.625 20.3226 48.625 19.9463 48.875C18.9427 49.625 17.9391 49.75 16.8101 49.375C16.5592 49.25 16.3083 49.375 16.0574 49.375C14.1757 50.25 12.0431 49.625 11.0395 47.75C10.4122 46.75 9.91044 45.625 9.2832 44.5C9.0323 44 8.65596 43.625 8.15416 43.625C7.52692 43.75 7.15058 43.75 6.89968 44.375C6.52334 45.25 5.6452 45.625 4.76707 45.625C3.51259 45.625 2.2581 45.625 1.00362 45.625C0.376384 45.625 0.125488 45.375 0.125488 44.625C0.125488 39.625 0.125488 34.75 0.125488 29.75C0.125488 29.125 0.376384 28.875 1.12907 28.75C1.63086 28.875 2.25811 29 3.01079 29ZM28.4767 30.75C28.9785 30.375 29.3549 30 29.8567 29.875C30.233 29.75 30.3585 29.5 30.3585 29.125C30.3585 22.875 30.3585 16.625 30.3585 10.375C30.3585 10.125 30.3585 10 30.3585 9.75C30.1076 9.75 29.8567 9.75 29.7312 9.75C27.8495 9.75 26.0932 9.75 24.2115 9.75C23.0825 9.75 22.957 9.625 22.957 8.5C22.957 6.5 22.957 4.375 22.957 2.375C22.957 2.125 22.957 2 22.957 1.75C16.8101 1.75 10.7886 1.75 4.64162 1.75C4.64162 2 4.64162 2.25 4.64162 2.375C4.64162 4.75 4.64162 7 4.64162 9.375C4.64162 15.75 4.64162 22.125 4.64162 28.375C4.64162 28.75 4.76707 28.875 5.14341 29.125C5.6452 29.25 6.39789 29.625 6.64879 30C7.15058 30.875 7.77782 31 8.53051 30.875C8.90685 30.875 9.28319 30.875 9.65954 30.875C9.91043 30.875 10.2868 30.875 10.5377 30.625C12.1685 29.75 14.0502 29.375 15.9319 29.375C16.1828 29.375 16.3083 29.25 16.5592 29.125C17.1864 28.5 17.8137 28.125 18.6918 27.875C20.1972 27.375 21.7025 27.625 23.0825 28C25.0896 28.625 26.9714 29.5 28.4767 30.75ZM14.9284 31.125C13.6739 31.125 12.5448 31.5 11.5413 32C10.914 32.25 10.2868 32.5 9.40864 32.5C8.65595 32.5 8.02872 32.5 7.27603 32.5C7.27603 35.75 7.27603 39 7.27603 42.25C9.53409 42.5 9.91043 42.75 11.0395 44.75C11.5413 45.625 11.9176 46.5 12.4194 47.375C13.0466 48.5 14.3011 48.875 15.3047 48.375C14.8029 47.5 14.3011 46.5 13.7993 45.625C13.423 45 13.5484 44.5 14.0502 44.25C14.552 44 14.9284 44.25 15.3047 44.875C15.8065 45.875 16.3083 46.75 16.8101 47.75C16.9355 47.875 17.061 48.125 17.1864 48.25C17.8137 48.625 18.6918 48.375 19.1936 47.875C18.4409 46.5 17.6882 45.125 17.061 43.875C16.6846 43.25 16.8101 42.875 17.3119 42.625C17.8137 42.375 18.19 42.625 18.4409 43.125C19.0681 44.375 19.6954 45.625 20.4481 46.75C20.8244 47.5 21.5771 47.75 22.3298 47.25C22.7061 47 22.8316 46.875 22.5807 46.375C21.828 45 21.0753 43.625 20.3226 42.25C19.9463 41.625 20.1972 41 20.8244 41C21.3262 40.875 21.5771 41.125 21.7025 41.5C22.4552 43 23.2079 44.375 24.0861 45.875C24.2115 46.125 24.5879 46.25 24.8388 46.375C25.2151 46.5 25.7169 46.375 25.9678 45.875C26.2187 45.375 26.4696 44.875 26.0932 44.25C24.2115 41 22.4552 37.625 20.5735 34.375C20.1972 33.75 19.6954 33.625 19.1936 34.125C18.4409 34.75 17.5628 35.5 16.8101 36.125C16.3083 36.5 15.681 36.75 15.0538 37C14.0502 37.25 13.1721 36.875 12.6703 36.125C12.1685 35.375 12.2939 34.5 13.0466 33.625C13.6739 32.625 14.3011 31.875 14.9284 31.125ZM28.2258 42.875C28.2258 42.625 28.2258 42.5 28.2258 42.25C28.2258 39.625 28.2258 37 28.2258 34.25C28.2258 32.25 28.2258 32.25 26.4696 31.25C24.4624 30 22.4552 29.125 20.0717 29.25C19.1936 29.25 18.4409 29.5 17.9391 30.125C16.6846 31.5 15.4301 33 14.1757 34.5C14.0502 34.625 14.0502 34.875 14.0502 34.875C14.1757 35 14.4266 35.125 14.552 35.125C14.9284 35 15.4301 34.875 15.8065 34.625C16.6846 34 17.5628 33.25 18.4409 32.5C19.0681 32 19.8208 31.875 20.5735 32.125C21.3262 32.375 21.7026 32.75 22.0789 33.375C23.7097 36.375 25.466 39.375 27.0968 42.375C27.2223 43 27.5986 43.125 28.2258 42.875ZM1.63086 30.5C1.63086 35 1.63086 39.5 1.63086 44.125C2.63445 44.125 3.63803 44.125 4.51617 44.125C5.26886 44.125 5.6452 43.75 5.6452 43C5.6452 42.25 5.6452 41.5 5.6452 40.625C5.6452 37.625 5.6452 34.625 5.6452 31.625C5.6452 31 5.26886 30.5 4.76707 30.5C3.63803 30.5 2.63445 30.5 1.63086 30.5ZM33.3692 31.25C32.3656 31.25 31.4875 31.25 30.6094 31.25C30.1076 31.25 29.7312 31.75 29.7312 32.25C29.7312 36.125 29.7312 39.875 29.7312 43.75C29.7312 44.25 29.9821 44.75 30.4839 44.75C31.362 44.875 32.3656 44.75 33.2438 44.75C33.3692 40.25 33.3692 35.75 33.3692 31.25ZM29.3549 8C27.7241 6.25 26.2187 4.625 24.5879 2.875C24.5879 4.625 24.5879 6.25 24.5879 8C26.0932 8 27.7241 8 29.3549 8Z" fill="#38B1AF"/>
<path d="M13.7992 3.875C15.0537 3.875 16.3082 3.875 17.6881 3.875C18.4408 3.875 18.6917 4 18.8171 4.75C18.9426 5.375 19.1935 5.625 19.9462 5.75C20.448 5.875 20.6989 6.125 20.6989 6.625C20.8243 11.75 18.8171 15.875 14.4265 18.875C13.9247 19.25 13.4229 19.25 12.9211 18.875C8.65585 15.875 6.64868 11.75 6.64868 6.625C6.64868 6.125 6.89958 5.875 7.40137 5.75C8.40495 5.625 8.65585 5.375 8.7813 4.625C8.90675 4 9.15764 3.75 9.78488 3.75C11.1648 3.875 12.4193 3.875 13.7992 3.875ZM13.7992 17.5C17.1863 15 19.068 11.75 19.068 7.5C19.068 7.375 18.9426 7.125 18.8171 7.125C18.1899 6.75 17.8136 6.375 17.4372 5.75C17.3118 5.625 17.0609 5.375 16.9354 5.375C14.8028 5.375 12.7956 5.375 10.663 5.375C10.2867 5.375 10.1612 5.5 10.0358 5.75C9.91033 6.125 9.65943 6.625 9.28309 6.75C8.27951 7.125 8.40495 7.75 8.5304 8.5C8.5304 8.75 8.5304 9.125 8.65585 9.375C9.28309 12.875 10.9139 15.5 13.7992 17.5Z" fill="#38B1AF"/>
<path d="M17.4373 26.125C14.4266 26.125 11.2904 26.125 8.27963 26.125C8.15418 26.125 7.90328 26.125 7.77783 26.125C7.40149 26.125 7.15059 25.875 7.02515 25.375C7.02515 24.875 7.27604 24.625 7.65239 24.5C7.77783 24.5 8.02873 24.5 8.15418 24.5C14.4266 24.5 20.5735 24.5 26.8459 24.5C26.9714 24.5 27.2223 24.5 27.3477 24.5C27.7241 24.625 27.975 24.875 27.975 25.375C27.975 25.75 27.7241 26 27.2223 26.125C27.0968 26.125 26.8459 26.125 26.7205 26.125C23.7097 26.125 20.5735 26.125 17.4373 26.125Z" fill="#38B1AF"/>
<path d="M17.5628 22C14.4266 22 11.4159 22 8.27967 22C8.15422 22 7.90332 22 7.77787 22C7.40153 21.875 7.15063 21.625 7.15063 21.25C7.15063 20.875 7.40153 20.625 7.77787 20.5C7.90332 20.5 8.02877 20.5 8.15422 20.5C14.4266 20.5 20.699 20.5 27.0969 20.5C27.2223 20.5 27.3478 20.5 27.4732 20.5C27.8496 20.625 28.1005 20.875 28.1005 21.25C28.1005 21.625 27.8496 22 27.4732 22C27.3478 22 27.0969 22 26.9714 22C23.7098 22 20.5736 22 17.5628 22Z" fill="#38B1AF"/>
<path d="M12.6704 11.875C13.7994 10.75 14.9285 9.625 16.0575 8.5C16.183 8.375 16.3084 8.125 16.5593 8C16.9356 7.625 17.4374 7.625 17.6883 8C18.0647 8.375 17.9392 8.75 17.6883 9.125C17.6883 9.25 17.5629 9.25 17.4374 9.375C16.0575 10.75 14.803 12 13.4231 13.375C12.7959 14 12.4195 14 11.7923 13.375C11.165 12.75 10.5378 12.125 9.91056 11.5C9.40876 11 9.40876 10.625 9.78511 10.25C10.1615 9.875 10.5378 10 11.0396 10.375C11.6668 10.875 12.1686 11.375 12.6704 11.875Z" fill="#38B1AF"/>
</g>
<defs>
<clipPath id="clip0_245_320">
<rect width="35" height="50" fill="white"/>
</clipPath>
</defs>
</svg>
