<svg width="134" height="134" viewBox="0 0 134 134" fill="none" xmlns="http://www.w3.org/2000/svg">
<g clip-path="url(#clip0_243_246)">
<path d="M68.7045 47.4489C88.7455 50.4874 102.603 69.8596 105.938 99.0664C101.475 96.3115 101.486 88.8244 95.0859 88.9775C94.6018 89.7045 93.8765 90.1912 93.8761 90.4327C96.6417 98.0266 99.2864 105.742 102.415 113.213C103.497 115.744 106.394 116.695 108.571 114.51C113.046 110.02 117.763 105.528 121.034 98.3863C117.411 98.8877 114.874 99.2628 113.183 99.5128C111.506 91.0682 110.553 82.6198 108.029 74.7833C102.262 55.974 90.0853 43.1143 70.4086 38.7456C67.27 38.037 66.065 36.3524 64.7406 33.8232C59.3235 22.8615 50.5188 16.0227 38.3254 14.0314C33.9792 13.3288 29.029 12.75 24.9146 18.3258C33.3699 16.8339 40.1298 18.4904 46.4033 22.323C52.4352 26.1568 57.4996 30.9615 59.6624 37.9546C54.2224 41.7257 48.5421 44.7734 44.188 49.1427C39.7134 53.3919 35.8408 58.7248 33.055 64.1731C30.0272 69.8641 32.0709 75.7709 36.1714 79.1315C40.272 82.492 46.0684 82.4627 51.3874 78.8131C59.8495 72.9739 64.9345 64.495 67.365 54.5805C68.0933 52.1616 68.3386 49.7452 68.7045 47.4489ZM61.7004 47.4843C60.8385 58.2362 56.3586 65.8667 49.1037 71.9413C46.6855 73.8857 43.9056 75.4696 41.1321 72.9477C38.7203 70.7862 39.4494 67.8843 40.9022 65.4618C45.2619 57.4696 51.7919 51.6402 61.7004 47.4843Z" fill="#FF8A8D"/>
</g>
<defs>
<clipPath id="clip0_243_246">
<rect width="127.662" height="60.8271" fill="white" transform="matrix(0.708344 0.705868 0.705868 -0.708344 0 43.0865)"/>
</clipPath>
</defs>
</svg>
