<svg width="67" height="60" viewBox="0 0 67 60" fill="none" xmlns="http://www.w3.org/2000/svg">
<g clip-path="url(#clip0_275_298)">
<path d="M0 26.1713C0.576833 24.7378 1.62562 24.2308 3.14636 24.3007C5.15654 24.3881 7.14923 24.3182 9.15941 24.3182C10.8724 24.3182 11.8163 25.2797 11.8338 27.0105C11.8338 27.7448 11.8338 28.479 11.8338 29.3007C13.0574 29.2483 14.2285 29.1783 15.3822 29.1259C17.5147 29.021 19.6473 28.8637 21.7798 28.8287C24.4367 28.7762 26.7615 29.6329 28.7717 31.4161C32.425 34.6504 36.0957 37.8846 39.8364 41.0315C41.7068 42.6049 42.6332 44.4755 42.4759 46.9406C42.9653 46.9406 43.4373 46.9581 43.8917 46.9406C49.2405 46.6609 54.6068 46.3636 59.9557 46.0664C60.7422 46.0315 61.5288 46.014 62.2979 45.9266C65.0423 45.6644 66.8776 47.9371 66.9825 50.2972C67.1049 52.8322 65.9337 54.5105 63.4516 55.0699C60.917 55.6294 58.3475 55.9965 55.7955 56.3986C50.9011 57.1504 46.0068 57.8497 41.1299 58.5664C38.0884 59.021 35.0644 59.493 32.023 59.9126C29.5059 60.2623 27.251 59.493 25.2758 58.007C22.5839 55.9965 19.9619 53.8986 17.3399 51.8007C16.6757 51.2762 15.9765 50.9965 15.12 51.0315C14.0537 51.0664 12.9875 51.049 11.8338 51.049C11.8338 51.8007 11.8338 52.5175 11.8338 53.2343C11.8163 54.965 10.8724 55.9091 9.15941 55.9091C7.14923 55.9091 5.13906 55.8567 3.14636 55.9266C1.62562 55.9965 0.576833 55.4895 0 54.056C0 44.7553 0 35.472 0 26.1713ZM11.8688 49.2133C12.9176 49.2133 13.9314 49.2657 14.9277 49.1958C16.3611 49.1084 17.5322 49.5979 18.6509 50.4895C21.0457 52.4476 23.4928 54.3532 25.94 56.2413C27.6705 57.5699 29.5758 58.4091 31.8307 58.0944C34.8896 57.6574 37.9486 57.1853 41.0076 56.7308C46.7584 55.8741 52.5093 55.035 58.2601 54.1609C59.9207 53.9161 61.5638 53.5839 63.2069 53.2518C63.9935 53.0769 64.6577 52.6574 64.9724 51.8357C65.6016 50.1748 64.8325 47.3602 62.1231 47.7623C61.9309 47.7972 61.7386 47.7797 61.5288 47.7972C55.2361 48.1294 48.9434 48.479 42.6507 48.7937C42.1787 48.8112 41.934 48.9511 41.7068 49.3881C40.8503 51.0315 39.5218 52.1154 37.634 52.2902C36.0433 52.4476 34.6449 51.8532 33.3689 50.9266C30.6071 48.9511 27.8453 46.9581 25.0835 44.9651C24.9611 44.8776 24.8388 44.7902 24.7339 44.6853C24.3843 44.3182 24.3319 43.9161 24.6115 43.4965C24.9087 43.0769 25.3282 43.0245 25.7652 43.2343C25.94 43.3042 26.0973 43.4441 26.2546 43.5664C28.9465 45.507 31.6209 47.4476 34.3303 49.3532C34.8722 49.7378 35.484 50.0525 36.1132 50.2797C37.2319 50.6644 38.3157 50.4895 39.2246 49.6678C41.095 47.972 41.1299 44.6154 39.2246 42.9371C35.2043 39.4056 31.1665 35.9091 27.1286 32.4126C25.975 31.4161 24.629 30.7518 23.1083 30.7343C20.6087 30.7168 18.1091 30.8392 15.592 30.9266C14.3509 30.9616 13.1273 31.0665 11.8513 31.1364C11.8688 37.1853 11.8688 43.1469 11.8688 49.2133ZM1.83538 40.0699C1.83538 44.4056 1.83538 48.7413 1.83538 53.0944C1.83538 53.9511 1.95774 54.0734 2.81424 54.0734C4.91182 54.0734 6.99191 54.0734 9.08949 54.0734C9.82364 54.0734 9.98096 53.9336 9.99844 53.1993C9.99844 44.4755 9.99844 35.7518 9.99844 27.028C9.99844 26.2937 9.84112 26.1539 9.10697 26.1364C7.04435 26.1364 4.96426 26.1364 2.90164 26.1364C1.92278 26.1364 1.83538 26.2238 1.83538 27.2378C1.83538 31.521 1.83538 35.8042 1.83538 40.0699Z" fill="#3D3D3D"/>
<path d="M61.6686 39.1784C61.5113 39.6854 61.4064 40.1749 61.1966 40.6294C60.3751 42.4476 58.3649 43.4441 56.4246 42.9721C55.7779 42.8148 55.3409 42.9371 54.8515 43.3917C53.2084 44.9476 50.7088 44.9127 49.0482 43.3392C48.6287 42.9371 48.2266 42.7973 47.6498 42.9371C45.3075 43.4966 43.2099 42.2553 42.5282 39.9301C42.3709 39.4057 42.0912 39.1434 41.5668 38.9861C39.277 38.3218 38.0359 36.1714 38.5953 33.8462C38.7176 33.3043 38.6302 32.9022 38.2282 32.5001C36.5851 30.7693 36.5851 28.3043 38.2457 26.556C38.6128 26.1714 38.7176 25.7868 38.5953 25.2623C38.0359 22.8672 39.242 20.7693 41.5843 20.07C42.1087 19.9127 42.3709 19.6329 42.5282 19.1085C43.1925 16.8183 45.3599 15.5595 47.6673 16.119C48.2266 16.2588 48.6112 16.1364 49.0132 15.7518C50.7612 14.1085 53.2258 14.1085 54.9563 15.7693C55.3409 16.1364 55.708 16.2588 56.2498 16.119C58.6096 15.542 60.7422 16.7833 61.4413 19.1085C61.5987 19.6329 61.8609 19.8952 62.3853 20.0525C64.7101 20.7518 65.9336 22.8847 65.3568 25.2623C65.2345 25.7693 65.3219 26.119 65.6715 26.5036C67.3845 28.3218 67.3845 30.6994 65.6715 32.535C65.3568 32.8672 65.1645 33.1994 65.3219 33.6539C66.0735 35.8742 64.6401 38.6889 61.7909 39.1085C61.756 39.1259 61.7035 39.1609 61.6686 39.1784ZM61.0568 37.3078C62.8572 37.3602 64.0284 35.9791 63.6088 34.2308C63.3117 33.0595 63.5739 32.1155 64.4304 31.2413C65.4442 30.2099 65.4267 28.8287 64.4129 27.7973C63.5914 26.9581 63.3117 26.0315 63.6088 24.8777C63.9934 23.4092 63.2942 22.2378 61.8259 21.8183C60.7247 21.5036 60.043 20.8218 59.7283 19.7204C59.3088 18.2518 58.1377 17.57 56.6694 17.9371C55.5507 18.2169 54.6242 17.9721 53.8027 17.1679C52.7015 16.1015 51.338 16.084 50.2543 17.1504C49.4153 17.9896 48.4713 18.2169 47.3177 17.9197C45.9193 17.5525 44.6957 18.2343 44.3112 19.6155C43.979 20.8218 43.2624 21.5211 42.0912 21.8532C40.7453 22.2378 40.0286 23.4616 40.3957 24.7903C40.7103 25.9791 40.4481 26.9581 39.5916 27.8322C38.6128 28.8287 38.6128 30.2448 39.5916 31.2413C40.4656 32.1155 40.7278 33.0945 40.4132 34.2833C40.0636 35.5945 40.7453 36.8357 42.0563 37.2029C43.2973 37.5525 44.0315 38.2693 44.3636 39.5106C44.7307 40.8218 45.9717 41.5036 47.2827 41.1539C48.4713 40.8392 49.4502 41.084 50.3242 41.9581C51.2856 42.9197 52.7015 42.9721 53.6803 42.0106C54.6242 41.084 55.6206 40.8392 56.8966 41.1714C58.4698 41.5735 59.9381 40.2448 59.8332 38.619C59.7108 37.5176 59.9556 37.2728 61.0568 37.3078Z" fill="#3D3D3D"/>
<path d="M10.3306 19.6679C10.6277 19.1085 10.9074 18.584 11.2046 18.042C11.6765 17.1854 11.4318 16.591 10.4879 16.3113C8.47771 15.6994 8.49519 16.1714 8.30292 13.6539C8.233 12.6924 8.39032 11.6959 8.46024 10.7169C8.49519 10.1924 8.80983 9.89517 9.31674 9.77279C9.71878 9.6679 10.1033 9.54552 10.5054 9.44063C11.4143 9.17839 11.6765 8.5665 11.222 7.74482C10.2257 5.92664 9.85862 6.20636 11.6066 4.23084C12.2009 3.5665 12.9176 3.02454 13.5818 2.43014C14.0538 2.01056 14.5432 1.97559 15.0676 2.32524C15.3997 2.53503 15.7493 2.70986 16.0814 2.90217C16.868 3.33923 17.5148 3.07699 17.7595 2.22035C17.8119 2.04552 17.8469 1.88818 17.8993 1.71335C18.3188 0.174893 18.4062 0.0699983 19.9794 0.0175508C21.0806 -0.0174142 22.1993 0.0699983 23.3006 0.122446C23.8424 0.139928 24.1746 0.472096 24.3144 0.979089C24.4193 1.38119 24.5242 1.78328 24.629 2.18538C24.8737 3.09447 25.5205 3.33923 26.342 2.88468C28.1774 1.90566 27.8104 1.4686 29.8555 3.28678C30.5372 3.88119 31.0965 4.63294 31.6909 5.31475C32.0754 5.75182 32.0929 6.20636 31.7957 6.69587C31.5685 7.04552 31.3937 7.41265 31.1839 7.77979C30.747 8.54902 31.0266 9.19587 31.8657 9.44063C31.9531 9.45811 32.023 9.49307 32.1104 9.52804C33.9458 10.035 33.9807 10.035 34.1031 11.9231C34.1555 12.9196 34.0506 13.9162 33.9982 14.9301C33.9632 15.5071 33.6661 15.8917 33.0543 16.0141C32.6697 16.084 32.3027 16.2238 31.9181 16.3287C31.0091 16.5735 30.747 17.2203 31.2014 18.0071C31.2189 18.0245 31.2189 18.042 31.2364 18.0595C32.1803 19.8602 32.5823 19.528 30.8693 21.4686C30.2226 22.2029 29.436 22.7973 28.6843 23.4266C28.3173 23.7413 27.8977 23.7413 27.4782 23.4966C27.0937 23.2868 26.7266 23.0595 26.342 22.8497C25.5555 22.4127 24.9087 22.6574 24.664 23.5141C24.6116 23.7064 24.5591 23.8987 24.5067 24.0735C24.1046 25.542 24.0172 25.6644 22.5315 25.7169C21.4128 25.7518 20.2766 25.6644 19.1404 25.612C18.5461 25.5945 18.2489 25.2448 18.1091 24.6854C18.0042 24.3008 17.9168 23.9336 17.8119 23.549C17.5672 22.6399 16.9379 22.3777 16.1164 22.8322C14.2635 23.8462 14.5956 24.1959 12.6029 22.4476C11.9212 21.8532 11.3619 21.1015 10.7676 20.4196C10.5578 20.2448 10.4704 19.9651 10.3306 19.6679ZM27.9851 21.6959C28.3522 21.3812 28.6843 21.1015 28.9815 20.8043C30.0652 19.7553 30.0652 19.7553 29.3311 18.4616C29.2437 18.3043 29.1039 18.1644 29.0864 18.0071C29.0514 17.6749 28.9815 17.3252 29.0689 17.0106C29.436 15.5945 30.1701 14.528 31.8132 14.4406C31.9531 14.4406 32.1978 14.2833 32.1978 14.1784C32.2327 13.3043 32.3201 12.4301 32.1453 11.591C32.0929 11.3462 31.2888 11.2413 30.8344 11.0665C30.677 11.0141 30.4673 11.0141 30.3449 10.9092C30.1177 10.7343 29.8555 10.5595 29.7156 10.3148C28.999 9.03853 28.6843 7.76231 29.803 6.48608C29.9079 6.3637 29.873 5.96161 29.7506 5.82175C29.2961 5.29727 28.8067 4.79028 28.2823 4.33573C28.1425 4.21335 27.7579 4.17839 27.6356 4.28328C26.4644 5.24482 25.3107 5.19238 24.0347 4.47559C23.5802 4.23084 23.2656 4.00356 23.1083 3.47909C22.6014 1.71335 22.5839 1.71335 20.7136 1.7658C20.6087 1.7658 20.4863 1.78328 20.3814 1.78328C19.9095 1.73084 19.6648 1.92315 19.5949 2.41266C19.455 3.65391 18.8782 4.52804 17.5672 4.7728C17.4274 4.80776 17.2875 4.94762 17.1477 4.94762C16.7631 4.9651 16.3261 5.03503 15.9765 4.89517C15.4347 4.68538 14.9452 4.33573 14.4208 4.03853C14.1586 4.24832 13.9139 4.42314 13.7042 4.63294C13.3546 4.9651 13.0399 5.33224 12.7078 5.6644C12.4456 5.92664 12.3757 6.18888 12.6204 6.50356C13.442 7.53503 13.5993 8.5665 12.9001 9.79028C12.5505 10.4022 12.2533 10.8392 11.5542 11.0315C10.0334 11.4162 10.0509 11.4511 10.0684 13.0245C10.0684 13.042 10.0684 13.0595 10.0684 13.0945C10.1033 14.2833 10.1033 14.2833 11.257 14.598C11.4493 14.6504 11.6416 14.7029 11.8164 14.7553C12.533 14.9651 13.6342 17.0805 13.3721 17.7798C13.3021 17.9546 13.1973 18.1294 13.1099 18.3043C12.8651 18.7413 12.6204 19.1784 12.2883 19.7728C12.9351 20.4546 13.5818 21.1539 14.281 21.8882C15.6794 20.612 16.9554 20.3672 18.3887 21.2588C18.8083 21.521 19.1229 21.7134 19.2802 22.2029C19.8221 24.021 19.8396 24.021 21.7623 23.9336C21.8847 23.9336 22.042 23.9686 22.1469 23.8987C22.3567 23.7763 22.6888 23.6189 22.7063 23.4441C22.8636 21.9581 23.7026 21.1539 25.101 20.7518C25.5904 20.612 26.0099 20.5245 26.4644 20.8043C26.9713 21.1539 27.4608 21.3987 27.9851 21.6959Z" fill="#3D3D3D"/>
<path d="M6.81716 30.0351C6.81716 30.5421 6.43261 30.9791 5.94318 30.9966C5.43626 31.0141 4.98179 30.5595 4.99927 30.0351C5.01675 29.5281 5.41878 29.126 5.9257 29.126C6.43261 29.126 6.81716 29.5106 6.81716 30.0351Z" fill="#3D3D3D"/>
<path d="M42.1262 29.5106C42.1262 24.1085 46.5486 19.6679 51.9324 19.6504C57.4035 19.633 61.8784 24.091 61.8784 29.5281C61.8784 35.0001 57.456 39.4057 51.9673 39.4057C46.5311 39.4057 42.1437 34.9826 42.1262 29.5106ZM43.9616 29.4581C43.9441 33.9511 47.51 37.5525 51.9848 37.5525C56.4072 37.5525 60.0255 33.9686 60.043 29.5455C60.0605 25.105 56.4247 21.4686 51.9848 21.4686C47.6149 21.4686 43.9791 25.105 43.9616 29.4581Z" fill="#3D3D3D"/>
<path d="M21.1854 20.0524C19.9269 20.0524 18.6509 20.0524 17.3923 20.0524C16.4309 20.0524 16.1338 19.7727 16.1338 18.8286C16.1338 18.0419 16.1338 17.2552 16.1338 16.4685C16.1513 14.3181 17.6021 12.6573 19.7521 12.4825C20.8708 12.3951 22.0245 12.3951 23.1432 12.5699C25.066 12.8846 26.2895 14.4755 26.307 16.3985C26.307 17.2027 26.307 18.0069 26.307 18.8111C26.307 19.7552 26.0099 20.0349 25.0485 20.0349C23.755 20.0524 22.4615 20.0524 21.1854 20.0524ZM24.4716 18.1818C24.4716 17.5699 24.4716 17.0279 24.4716 16.486C24.4542 15.2272 23.6326 14.3531 22.3741 14.2832C21.6224 14.2482 20.8533 14.2482 20.0842 14.2832C19.0005 14.3356 18.109 15.0349 18.0041 16.0139C17.9167 16.7132 17.9866 17.43 17.9866 18.1992C20.1541 18.1818 22.2692 18.1818 24.4716 18.1818Z" fill="#3D3D3D"/>
<path d="M18.0216 8.96855C18.0042 7.16786 19.3851 5.75177 21.168 5.73429C22.9859 5.71681 24.4367 7.15037 24.4192 8.93359C24.4018 10.6993 22.9684 12.1329 21.203 12.1329C19.4725 12.1329 18.0391 10.6993 18.0216 8.96855ZM21.2379 7.55247C20.4513 7.55247 19.8745 8.11191 19.857 8.89862C19.857 9.65037 20.4513 10.2797 21.203 10.2972C21.9371 10.2972 22.5839 9.68534 22.5839 8.93359C22.6014 8.18184 21.9896 7.55247 21.2379 7.55247Z" fill="#3D3D3D"/>
<path d="M50.2195 31.591C50.4642 31.2588 50.639 30.9791 50.8663 30.7518C52.4919 29.1085 54.1175 27.4826 55.7606 25.8567C56.3025 25.3148 56.8269 25.2449 57.2464 25.6644C57.6484 26.0665 57.596 26.626 57.0716 27.1504C55.0439 29.1784 53.0163 31.2239 50.9712 33.2518C50.3768 33.8288 49.9398 33.8463 49.3455 33.2518C48.524 32.4476 47.7024 31.626 46.8984 30.8043C46.3914 30.2798 46.339 29.7903 46.7585 29.3707C47.1606 28.9511 47.6675 28.9861 48.1919 29.4931C48.8211 30.14 49.4504 30.7868 50.2195 31.591Z" fill="#3D3D3D"/>
</g>
<defs>
<clipPath id="clip0_275_298">
<rect width="67" height="60" fill="white"/>
</clipPath>
</defs>
</svg>
